SplineFontDB: 3.2
FontName: IRLotus
FullName: IRLotus
FamilyName: IRLotus
Weight: Book
Copyright: Copyright (c) 2022, Information Technology Organization of Iran (ito.gov.ir)
Version: 1.000
ItalicAngle: 0
UnderlinePosition: -1000
UnderlineWidth: 60
Ascent: 1638
Descent: 410
InvalidEm: 0
sfntRevision: 0x00010000
LayerCount: 2
Layer: 0 1 "Back" 1
Layer: 1 1 "Fore" 0
XUID: [1021 420 722297922 3222363]
StyleMap: 0x0040
FSType: 0
OS2Version: 3
OS2_WeightWidthSlopeOnly: 0
OS2_UseTypoMetrics: 0
CreationTime: 1358027993
ModificationTime: 1662627768
PfmFamily: 17
TTFWeight: 400
TTFWidth: 5
LineGap: 100
VLineGap: 0
Panose: 2 0 5 3 0 0 0 2 0 2
OS2TypoAscent: 1733
OS2TypoAOffset: 0
OS2TypoDescent: -1287
OS2TypoDOffset: 0
OS2TypoLinegap: 300
OS2WinAscent: 1733
OS2WinAOffset: 0
OS2WinDescent: 1287
OS2WinDOffset: 0
HheadAscent: 1733
HheadAOffset: 0
HheadDescent: -1287
HheadDOffset: 0
OS2SubXSize: 1434
OS2SubYSize: 1331
OS2SubXOff: 0
OS2SubYOff: 293
OS2SupXSize: 1434
OS2SupYSize: 1331
OS2SupXOff: 0
OS2SupYOff: 928
OS2StrikeYSize: 50
OS2StrikeYPos: 250
OS2CapHeight: 1107
OS2XHeight: 1107
OS2FamilyClass: 2048
OS2Vendor: 'PARS'
OS2CodePages: 20000041.00000000
OS2UnicodeRanges: 00002003.00000000.00000000.00000000
Lookup: 1 1 0 "'isol' Isolated Forms in Arabic lookup 0" { "'isol' Isolated Forms in Arabic lookup 0 subtable"  } ['isol' ('arab' <'dflt' > ) ]
Lookup: 1 1 0 "'init' Initial Forms in Arabic lookup 1" { "'init' Initial Forms in Arabic lookup 1 subtable"  } ['init' ('arab' <'dflt' > ) ]
Lookup: 1 1 0 "'medi' Medial Forms in Arabic lookup 2" { "'medi' Medial Forms in Arabic lookup 2 subtable"  } ['medi' ('arab' <'dflt' > ) ]
Lookup: 1 1 0 "'fina' Terminal Forms in Arabic lookup 3" { "'fina' Terminal Forms in Arabic lookup 3 subtable"  } ['fina' ('arab' <'dflt' > ) ]
Lookup: 4 1 0 "'ccmp' Glyph Composition/Decomposition in Arabic lookup 4" { "'ccmp' Glyph Composition/Decomposition in Arabic lookup 4 subtable"  } ['ccmp' ('arab' <'dflt' > ) ]

StartChar: quotedbl
Encoding: 34 34 1
Width: 442
Flags: W
LayerCount: 2
Fore
SplineSet
72 1219 m 1,0,-1
 166 1219 l 1,1,-1
 145 923 l 1,2,-1
 83 923 l 1,3,-1
 72 1219 l 1,0,-1
268 1219 m 1,4,-1
 361 1219 l 1,5,-1
 340 923 l 1,6,-1
 279 923 l 1,7,-1
 268 1219 l 1,4,-1
EndSplineSet
EndChar

StartChar: numbersign
Encoding: 35 35 2
Width: 870
Flags: W
LayerCount: 2
Fore
SplineSet
631 377 m 1,0,-1
 575 0 l 1,1,-1
 475 0 l 1,2,-1
 530 377 l 1,3,-1
 297 377 l 1,4,-1
 240 0 l 1,5,-1
 137 0 l 1,6,-1
 195 377 l 1,7,-1
 8 377 l 1,8,-1
 8 471 l 1,9,-1
 211 471 l 1,10,-1
 248 705 l 1,11,-1
 55 705 l 1,12,-1
 55 801 l 1,13,-1
 260 801 l 1,14,-1
 315 1153 l 1,15,-1
 416 1153 l 1,16,-1
 362 801 l 1,17,-1
 594 801 l 1,18,-1
 645 1153 l 1,19,-1
 748 1153 l 1,20,-1
 694 801 l 1,21,-1
 864 801 l 1,22,-1
 864 705 l 1,23,-1
 682 705 l 1,24,-1
 645 471 l 1,25,-1
 819 471 l 1,26,-1
 819 377 l 1,27,-1
 631 377 l 1,0,-1
311 471 m 1,28,-1
 545 471 l 1,29,-1
 580 705 l 1,30,-1
 348 705 l 1,31,-1
 311 471 l 1,28,-1
EndSplineSet
EndChar

StartChar: dollar
Encoding: 36 36 3
Width: 870
Flags: W
LayerCount: 2
Fore
SplineSet
715 870 m 1,0,1
 690 981 690 981 630 1038.5 c 128,-1,2
 570 1096 570 1096 461 1110 c 1,3,-1
 461 682 l 1,4,5
 540 634 540 634 590 602.5 c 128,-1,6
 640 571 640 571 672 546.5 c 128,-1,7
 704 522 704 522 724 501 c 128,-1,8
 744 480 744 480 762 453 c 0,9,10
 776 427 776 427 786.5 384.5 c 128,-1,11
 797 342 797 342 797 297 c 0,12,13
 797 234 797 234 772.5 181.5 c 128,-1,14
 748 129 748 129 705 92 c 0,15,16
 682 73 682 73 658.5 59.5 c 128,-1,17
 635 46 635 46 607 35.5 c 128,-1,18
 579 25 579 25 544 17 c 128,-1,19
 509 9 509 9 461 0 c 1,20,-1
 461 -152 l 1,21,-1
 399 -152 l 1,22,-1
 399 0 l 1,23,24
 345 2 345 2 302.5 7.5 c 128,-1,25
 260 13 260 13 222.5 23 c 128,-1,26
 185 33 185 33 149.5 48.5 c 128,-1,27
 114 64 114 64 76 88 c 1,28,-1
 76 315 l 1,29,-1
 102 315 l 1,30,31
 133 178 133 178 204.5 113.5 c 128,-1,32
 276 49 276 49 399 47 c 1,33,-1
 399 541 l 1,34,35
 355 565 355 565 323 584 c 128,-1,36
 291 603 291 603 267 619.5 c 128,-1,37
 243 636 243 636 224.5 651 c 128,-1,38
 206 666 206 666 188 684 c 0,39,40
 135 733 135 733 112.5 781.5 c 128,-1,41
 90 830 90 830 90 893 c 0,42,43
 90 949 90 949 114.5 998.5 c 128,-1,44
 139 1048 139 1048 184 1083 c 0,45,46
 207 1100 207 1100 228.5 1112 c 128,-1,47
 250 1124 250 1124 274.5 1132 c 128,-1,48
 299 1140 299 1140 328.5 1145.5 c 128,-1,49
 358 1151 358 1151 399 1155 c 1,50,-1
 399 1266 l 1,51,-1
 461 1266 l 1,52,-1
 461 1155 l 1,53,54
 515 1149 515 1149 556.5 1141 c 128,-1,55
 598 1133 598 1133 631.5 1121.5 c 128,-1,56
 665 1110 665 1110 691 1095.5 c 128,-1,57
 717 1081 717 1081 739 1063 c 1,58,-1
 739 870 l 1,59,-1
 715 870 l 1,0,1
399 1110 m 1,60,61
 219 1072 219 1072 219 930 c 0,62,63
 219 899 219 899 226.5 874.5 c 128,-1,64
 234 850 234 850 254 825.5 c 128,-1,65
 274 801 274 801 309 773.5 c 128,-1,66
 344 746 344 746 399 709 c 1,67,-1
 399 1110 l 1,60,61
461 47 m 1,68,69
 564 67 564 67 610.5 116.5 c 128,-1,70
 657 166 657 166 657 254 c 0,71,72
 657 296 657 296 649 327 c 128,-1,73
 641 358 641 358 619 385.5 c 128,-1,74
 597 413 597 413 559 442 c 128,-1,75
 521 471 521 471 461 510 c 1,76,-1
 461 47 l 1,68,69
EndSplineSet
EndChar

StartChar: percent
Encoding: 37 37 4
Width: 1450
Flags: W
LayerCount: 2
Fore
SplineSet
1163 645 m 0,0,1
 1251 645 1251 645 1297 598.5 c 128,-1,2
 1343 552 1343 552 1343 461 c 0,3,4
 1343 358 1343 358 1303 260 c 128,-1,5
 1263 162 1263 162 1194 88 c 0,6,7
 1149 43 1149 43 1100 21.5 c 128,-1,8
 1051 0 1051 0 989 0 c 0,9,10
 942 0 942 0 904 16 c 128,-1,11
 866 32 866 32 839 61 c 128,-1,12
 812 90 812 90 797 131 c 128,-1,13
 782 172 782 172 782 223 c 0,14,15
 782 306 782 306 814 382 c 128,-1,16
 846 458 846 458 899 516.5 c 128,-1,17
 952 575 952 575 1020.5 610 c 128,-1,18
 1089 645 1089 645 1163 645 c 0,0,1
1176 590 m 0,19,20
 1099 590 1099 590 1026 489 c 0,21,22
 1003 454 1003 454 982.5 412 c 128,-1,23
 962 370 962 370 946.5 326.5 c 128,-1,24
 931 283 931 283 922 241 c 128,-1,25
 913 199 913 199 913 164 c 0,26,27
 913 113 913 113 942.5 82 c 128,-1,28
 972 51 972 51 1020 51 c 256,29,30
 1068 51 1068 51 1107.5 74.5 c 128,-1,31
 1147 98 1147 98 1190 152 c 0,32,33
 1214 182 1214 182 1233.5 218.5 c 128,-1,34
 1253 255 1253 255 1267.5 294 c 128,-1,35
 1282 333 1282 333 1290 373.5 c 128,-1,36
 1298 414 1298 414 1298 451 c 0,37,38
 1298 479 1298 479 1288.5 504.5 c 128,-1,39
 1279 530 1279 530 1262.5 549 c 128,-1,40
 1246 568 1246 568 1223.5 579 c 128,-1,41
 1201 590 1201 590 1176 590 c 0,19,20
350 -23 m 1,42,-1
 961 1067 l 1,43,44
 934 1052 934 1052 912 1042.5 c 128,-1,45
 890 1033 890 1033 868 1027 c 128,-1,46
 846 1021 846 1021 822.5 1018.5 c 128,-1,47
 799 1016 799 1016 768 1016 c 0,48,49
 731 1016 731 1016 705.5 1020 c 128,-1,50
 680 1024 680 1024 655 1032 c 1,51,52
 663 1009 663 1009 665.5 991.5 c 128,-1,53
 668 974 668 974 668 954 c 0,54,55
 668 877 668 877 641.5 797.5 c 128,-1,56
 615 718 615 718 567.5 652.5 c 128,-1,57
 520 587 520 587 454.5 545.5 c 128,-1,58
 389 504 389 504 311 504 c 0,59,60
 268 504 268 504 230.5 521 c 128,-1,61
 193 538 193 538 165.5 568 c 128,-1,62
 138 598 138 598 122 638.5 c 128,-1,63
 106 679 106 679 106 725 c 0,64,65
 106 808 106 808 138 885 c 128,-1,66
 170 962 170 962 223 1021.5 c 128,-1,67
 276 1081 276 1081 346 1117 c 128,-1,68
 416 1153 416 1153 492 1153 c 0,69,70
 513 1153 513 1153 528 1151 c 128,-1,71
 543 1149 543 1149 556.5 1144 c 128,-1,72
 570 1139 570 1139 583 1130 c 128,-1,73
 596 1121 596 1121 612 1106 c 0,74,75
 643 1077 643 1077 676.5 1068 c 128,-1,76
 710 1059 710 1059 764 1059 c 0,77,78
 804 1059 804 1059 838.5 1065 c 128,-1,79
 873 1071 873 1071 905 1084.5 c 128,-1,80
 937 1098 937 1098 969 1120.5 c 128,-1,81
 1001 1143 1001 1143 1036 1176 c 1,82,-1
 1104 1176 l 1,83,-1
 432 -23 l 1,84,-1
 350 -23 l 1,42,-1
608 1044 m 1,85,86
 589 1050 589 1050 575.5 1055 c 128,-1,87
 562 1060 562 1060 551.5 1065 c 128,-1,88
 541 1070 541 1070 532 1075.5 c 128,-1,89
 523 1081 523 1081 512 1090 c 0,90,91
 506 1098 506 1098 502 1099 c 128,-1,92
 498 1100 498 1100 492 1100 c 0,93,94
 450 1100 450 1100 404 1060 c 128,-1,95
 358 1020 358 1020 319 946 c 0,96,97
 302 913 302 913 287.5 876 c 128,-1,98
 273 839 273 839 262.5 802 c 128,-1,99
 252 765 252 765 246 730.5 c 128,-1,100
 240 696 240 696 240 668 c 0,101,102
 240 620 240 620 267 591.5 c 128,-1,103
 294 563 294 563 342 563 c 0,104,105
 394 563 394 563 445 597 c 128,-1,106
 496 631 496 631 536 687 c 128,-1,107
 576 743 576 743 600.5 813.5 c 128,-1,108
 625 884 625 884 625 958 c 0,109,110
 625 978 625 978 620.5 999.5 c 128,-1,111
 616 1021 616 1021 608 1044 c 1,85,86
EndSplineSet
EndChar

StartChar: ampersand
Encoding: 38 38 5
Width: 1354
Flags: W
LayerCount: 2
Fore
SplineSet
1237 705 m 1,0,1
 1205 701 1205 701 1181 694.5 c 128,-1,2
 1157 688 1157 688 1138 677 c 128,-1,3
 1119 666 1119 666 1103.5 648 c 128,-1,4
 1088 630 1088 630 1073 602 c 2,5,-1
 1028 522 l 2,6,7
 1008 487 1008 487 990 456 c 128,-1,8
 972 425 972 425 952 394 c 128,-1,9
 932 363 932 363 908.5 330.5 c 128,-1,10
 885 298 885 298 854 260 c 1,11,12
 978 100 978 100 1122 100 c 0,13,14
 1147 100 1147 100 1166.5 105 c 128,-1,15
 1186 110 1186 110 1203.5 121 c 128,-1,16
 1221 132 1221 132 1239 149.5 c 128,-1,17
 1257 167 1257 167 1280 193 c 1,18,-1
 1307 174 l 1,19,20
 1268 80 1268 80 1198.5 28.5 c 128,-1,21
 1129 -23 1129 -23 1042 -23 c 0,22,23
 1004 -23 1004 -23 969 -14 c 128,-1,24
 934 -5 934 -5 898.5 14.5 c 128,-1,25
 863 34 863 34 826 64 c 128,-1,26
 789 94 789 94 748 135 c 1,27,28
 698 92 698 92 653 62 c 128,-1,29
 608 32 608 32 563 13 c 128,-1,30
 518 -6 518 -6 471 -14.5 c 128,-1,31
 424 -23 424 -23 371 -23 c 0,32,33
 228 -23 228 -23 151 48 c 128,-1,34
 74 119 74 119 74 244 c 0,35,36
 74 355 74 355 140 446 c 128,-1,37
 206 537 206 537 346 618 c 2,38,-1
 412 655 l 1,39,40
 393 704 393 704 381.5 740.5 c 128,-1,41
 370 777 370 777 363.5 806.5 c 128,-1,42
 357 836 357 836 354.5 860.5 c 128,-1,43
 352 885 352 885 352 909 c 0,44,45
 352 965 352 965 372.5 1014 c 128,-1,46
 393 1063 393 1063 429.5 1099 c 128,-1,47
 466 1135 466 1135 515 1155.5 c 128,-1,48
 564 1176 564 1176 621 1176 c 0,49,50
 672 1176 672 1176 715 1160.5 c 128,-1,51
 758 1145 758 1145 789 1117.5 c 128,-1,52
 820 1090 820 1090 837 1051.5 c 128,-1,53
 854 1013 854 1013 854 967 c 0,54,55
 854 923 854 923 838.5 880.5 c 128,-1,56
 823 838 823 838 797 807 c 0,57,58
 779 787 779 787 759.5 770.5 c 128,-1,59
 740 754 740 754 716 738 c 128,-1,60
 692 722 692 722 660.5 705.5 c 128,-1,61
 629 689 629 689 586 668 c 1,62,63
 613 612 613 612 638.5 566 c 128,-1,64
 664 520 664 520 691.5 477.5 c 128,-1,65
 719 435 719 435 748.5 394.5 c 128,-1,66
 778 354 778 354 813 309 c 1,67,68
 898 419 898 419 935.5 495 c 128,-1,69
 973 571 973 571 973 627 c 0,70,71
 973 645 973 645 968 658.5 c 128,-1,72
 963 672 963 672 950.5 681.5 c 128,-1,73
 938 691 938 691 916.5 696.5 c 128,-1,74
 895 702 895 702 862 705 c 1,75,-1
 862 741 l 1,76,-1
 1237 741 l 1,77,-1
 1237 705 l 1,0,1
557 725 m 1,78,79
 666 782 666 782 714 840.5 c 128,-1,80
 762 899 762 899 762 973 c 0,81,82
 762 1038 762 1038 723.5 1079 c 128,-1,83
 685 1120 685 1120 623 1120 c 0,84,85
 593 1120 593 1120 568.5 1109.5 c 128,-1,86
 544 1099 544 1099 526 1080 c 128,-1,87
 508 1061 508 1061 498.5 1035.5 c 128,-1,88
 489 1010 489 1010 489 979 c 256,89,90
 489 948 489 948 492.5 920 c 128,-1,91
 496 892 496 892 504.5 862.5 c 128,-1,92
 513 833 513 833 526 800 c 128,-1,93
 539 767 539 767 557 725 c 1,78,79
438 598 m 1,94,95
 382 560 382 560 343 526.5 c 128,-1,96
 304 493 304 493 279.5 459.5 c 128,-1,97
 255 426 255 426 244 390.5 c 128,-1,98
 233 355 233 355 233 313 c 0,99,100
 233 262 233 262 250.5 217.5 c 128,-1,101
 268 173 268 173 299 140 c 128,-1,102
 330 107 330 107 371 87.5 c 128,-1,103
 412 68 412 68 459 68 c 0,104,105
 512 68 512 68 569.5 93 c 128,-1,106
 627 118 627 118 702 180 c 1,107,108
 665 227 665 227 634 269.5 c 128,-1,109
 603 312 603 312 572.5 359.5 c 128,-1,110
 542 407 542 407 509.5 464.5 c 128,-1,111
 477 522 477 522 438 598 c 1,94,95
EndSplineSet
EndChar

StartChar: quotesingle
Encoding: 39 39 6
Width: 353
Flags: W
LayerCount: 2
Fore
SplineSet
131 1219 m 1,0,-1
 224 1219 l 1,1,-1
 203 923 l 1,2,-1
 142 923 l 1,3,-1
 131 1219 l 1,0,-1
EndSplineSet
EndChar

StartChar: asterisk
Encoding: 42 42 7
Width: 712
Flags: W
LayerCount: 2
Fore
SplineSet
396 656 m 1,0,-1
 396 523 l 2,1,2
 396 511 396 511 388.5 501.5 c 128,-1,3
 381 492 381 492 367 492 c 2,4,-1
 320 492 l 2,5,6
 313 492 313 492 303 501.5 c 128,-1,7
 293 511 293 511 293 523 c 2,8,-1
 293 656 l 1,9,-1
 203 563 l 1,10,11
 178 546 178 546 151 563 c 1,12,-1
 122 593 l 2,13,14
 106 615 106 615 128 638 c 2,15,-1
 221 733 l 1,16,-1
 88 733 l 2,17,18
 75 733 75 733 63.5 741.5 c 128,-1,19
 52 750 52 750 52 765 c 2,20,-1
 52 811 l 2,21,22
 52 820 52 820 63.5 828 c 128,-1,23
 75 836 75 836 88 836 c 2,24,-1
 213 836 l 1,25,-1
 122 929 l 2,26,27
 109 940 109 940 108.5 953.5 c 128,-1,28
 108 967 108 967 117 980 c 1,29,-1
 151 1008 l 2,30,31
 160 1018 160 1018 171.5 1017 c 128,-1,32
 183 1016 183 1016 194 1003 c 2,33,-1
 293 906 l 1,34,-1
 293 1050 l 2,35,36
 293 1061 293 1061 303 1071.5 c 128,-1,37
 313 1082 313 1082 320 1082 c 2,38,-1
 367 1082 l 2,39,40
 381 1082 381 1082 388.5 1071.5 c 128,-1,41
 396 1061 396 1061 396 1050 c 2,42,-1
 396 912 l 1,43,-1
 494 1008 l 2,44,45
 505 1021 505 1021 516 1022 c 128,-1,46
 527 1023 527 1023 545 1016 c 1,47,-1
 569 980 l 2,48,49
 579 972 579 972 579 960.5 c 128,-1,50
 579 949 579 949 567 935 c 2,51,-1
 471 836 l 1,52,-1
 615 836 l 2,53,54
 624 836 624 836 635 828 c 128,-1,55
 646 820 646 820 646 811 c 2,56,-1
 646 765 l 2,57,58
 646 750 646 750 635 741.5 c 128,-1,59
 624 733 624 733 615 733 c 2,60,-1
 464 733 l 1,61,-1
 567 638 l 1,62,63
 584 615 584 615 567 586 c 1,64,-1
 539 558 l 2,65,66
 518 541 518 541 494 563 c 2,67,-1
 396 656 l 1,0,-1
EndSplineSet
EndChar

StartChar: plus
Encoding: 43 43 8
Width: 795
Flags: W
LayerCount: 2
Fore
SplineSet
349 705 m 1,0,-1
 453 705 l 1,1,-1
 453 451 l 1,2,-1
 707 451 l 1,3,-1
 707 347 l 1,4,-1
 453 347 l 1,5,-1
 453 92 l 1,6,-1
 349 92 l 1,7,-1
 349 347 l 1,8,-1
 94 347 l 1,9,-1
 94 451 l 1,10,-1
 349 451 l 1,11,-1
 349 705 l 1,0,-1
EndSplineSet
EndChar

StartChar: hyphen
Encoding: 45 45 9
Width: 853
Flags: W
LayerCount: 2
Fore
SplineSet
102 394 m 1,0,-1
 102 507 l 1,1,-1
 768 507 l 1,2,-1
 768 394 l 1,3,-1
 102 394 l 1,0,-1
EndSplineSet
EndChar

StartChar: period
Encoding: 46 46 10
Width: 479
Flags: W
LayerCount: 2
Fore
SplineSet
400 98 m 0,0,1
 400 56 400 56 372.5 28 c 128,-1,2
 345 0 345 0 303 0 c 0,3,4
 262 0 262 0 233.5 28 c 128,-1,5
 205 56 205 56 205 98 c 0,6,7
 205 139 205 139 233.5 167 c 128,-1,8
 262 195 262 195 303 195 c 0,9,10
 345 195 345 195 372.5 167 c 128,-1,11
 400 139 400 139 400 98 c 0,0,1
EndSplineSet
EndChar

StartChar: slash
Encoding: 47 47 11
Width: 424
Flags: W
LayerCount: 2
Fore
SplineSet
113 -92 m 1,0,-1
 43 -92 l 1,1,-1
 309 1118 l 1,2,-1
 379 1118 l 1,3,-1
 113 -92 l 1,0,-1
EndSplineSet
EndChar

StartChar: zero
Encoding: 48 48 12
Width: 961
Flags: W
LayerCount: 2
Fore
SplineSet
481 1176 m 0,0,1
 567 1176 567 1176 638.5 1132.5 c 128,-1,2
 710 1089 710 1089 761 1009.5 c 128,-1,3
 812 930 812 930 840 819.5 c 128,-1,4
 868 709 868 709 868 575 c 0,5,6
 868 495 868 495 856.5 419.5 c 128,-1,7
 845 344 845 344 823.5 277.5 c 128,-1,8
 802 211 802 211 770.5 157 c 128,-1,9
 739 103 739 103 700 66 c 0,10,11
 652 21 652 21 598 -2 c 128,-1,12
 544 -25 544 -25 475 -25 c 0,13,14
 400 -25 400 -25 335.5 6 c 128,-1,15
 271 37 271 37 221 94 c 0,16,17
 190 129 190 129 164.5 184 c 128,-1,18
 139 239 139 239 120.5 304.5 c 128,-1,19
 102 370 102 370 92 442.5 c 128,-1,20
 82 515 82 515 82 586 c 0,21,22
 82 662 82 662 93.5 736.5 c 128,-1,23
 105 811 105 811 126.5 877 c 128,-1,24
 148 943 148 943 179.5 996.5 c 128,-1,25
 211 1050 211 1050 250 1085 c 0,26,27
 299 1133 299 1133 354 1154.5 c 128,-1,28
 409 1176 409 1176 481 1176 c 0,0,1
477 1130 m 0,29,30
 250 1130 250 1130 250 569 c 0,31,32
 250 20 250 20 475 20 c 256,33,34
 700 20 700 20 700 571 c 0,35,36
 700 1130 700 1130 477 1130 c 0,29,30
EndSplineSet
EndChar

StartChar: one
Encoding: 49 49 13
Width: 961
Flags: W
LayerCount: 2
Fore
SplineSet
565 129 m 2,0,1
 565 97 565 97 571.5 77.5 c 128,-1,2
 578 58 578 58 596 46.5 c 128,-1,3
 614 35 614 35 646.5 31 c 128,-1,4
 679 27 679 27 731 27 c 1,5,-1
 731 0 l 1,6,-1
 252 0 l 1,7,-1
 252 27 l 1,8,9
 304 27 304 27 329.5 33 c 128,-1,10
 355 39 355 39 375 47 c 1,11,12
 395 61 395 61 405.5 89 c 128,-1,13
 416 117 416 117 416 162 c 2,14,-1
 416 950 l 2,15,16
 416 1032 416 1032 365 1032 c 0,17,18
 342 1032 342 1032 314.5 1024 c 128,-1,19
 287 1016 287 1016 238 993 c 1,20,-1
 238 1018 l 1,21,-1
 553 1176 l 1,22,-1
 565 1174 l 1,23,-1
 565 129 l 2,0,1
EndSplineSet
EndChar

StartChar: two
Encoding: 50 50 14
Width: 961
Flags: W
LayerCount: 2
Fore
SplineSet
96 0 m 1,0,-1
 96 20 l 1,1,-1
 408 350 l 2,2,3
 519 469 519 469 576 583.5 c 128,-1,4
 633 698 633 698 633 803 c 0,5,6
 633 857 633 857 615.5 902.5 c 128,-1,7
 598 948 598 948 565.5 980.5 c 128,-1,8
 533 1013 533 1013 487.5 1031 c 128,-1,9
 442 1049 442 1049 387 1049 c 0,10,11
 342 1049 342 1049 307 1037.5 c 128,-1,12
 272 1026 272 1026 242.5 999.5 c 128,-1,13
 213 973 213 973 187 929 c 128,-1,14
 161 885 161 885 135 821 c 1,15,-1
 98 829 l 1,16,17
 110 876 110 876 121.5 911 c 128,-1,18
 133 946 133 946 145.5 973.5 c 128,-1,19
 158 1001 158 1001 174 1023.5 c 128,-1,20
 190 1046 190 1046 211 1067 c 0,21,22
 260 1121 260 1121 323 1148.5 c 128,-1,23
 386 1176 386 1176 461 1176 c 0,24,25
 528 1176 528 1176 587 1152.5 c 128,-1,26
 646 1129 646 1129 689 1087.5 c 128,-1,27
 732 1046 732 1046 757 989.5 c 128,-1,28
 782 933 782 933 782 868 c 0,29,30
 782 767 782 767 729.5 664 c 128,-1,31
 677 561 677 561 559 438 c 2,32,-1
 268 133 l 1,33,-1
 684 133 l 2,34,35
 712 133 712 133 732.5 137 c 128,-1,36
 753 141 753 141 771 153.5 c 128,-1,37
 789 166 789 166 807 188.5 c 128,-1,38
 825 211 825 211 850 248 c 1,39,-1
 872 240 l 1,40,-1
 776 0 l 1,41,-1
 96 0 l 1,0,-1
EndSplineSet
EndChar

StartChar: three
Encoding: 51 51 15
Width: 961
Flags: W
LayerCount: 2
Fore
SplineSet
311 598 m 1,0,1
 356 613 356 613 389 626 c 128,-1,2
 422 639 422 639 447 653 c 128,-1,3
 472 667 472 667 491.5 682.5 c 128,-1,4
 511 698 511 698 530 717 c 0,5,6
 562 749 562 749 581 793 c 128,-1,7
 600 837 600 837 600 887 c 0,8,9
 600 927 600 927 586 961 c 128,-1,10
 572 995 572 995 546.5 1020 c 128,-1,11
 521 1045 521 1045 486 1059 c 128,-1,12
 451 1073 451 1073 410 1073 c 0,13,14
 325 1073 325 1073 264 1028.5 c 128,-1,15
 203 984 203 984 150 887 c 1,16,-1
 123 895 l 1,17,18
 138 935 138 935 150.5 964 c 128,-1,19
 163 993 163 993 176.5 1015.5 c 128,-1,20
 190 1038 190 1038 205 1056 c 128,-1,21
 220 1074 220 1074 240 1092 c 0,22,23
 289 1134 289 1134 345 1155 c 128,-1,24
 401 1176 401 1176 467 1176 c 0,25,26
 527 1176 527 1176 576.5 1158.5 c 128,-1,27
 626 1141 626 1141 662 1109.5 c 128,-1,28
 698 1078 698 1078 717.5 1034 c 128,-1,29
 737 990 737 990 737 938 c 0,30,31
 737 903 737 903 728.5 872.5 c 128,-1,32
 720 842 720 842 700.5 813.5 c 128,-1,33
 681 785 681 785 650.5 757 c 128,-1,34
 620 729 620 729 575 698 c 1,35,36
 629 674 629 674 661.5 654 c 128,-1,37
 694 634 694 634 719 606 c 0,38,39
 757 563 757 563 777 506 c 128,-1,40
 797 449 797 449 797 383 c 0,41,42
 797 290 797 290 761 214.5 c 128,-1,43
 725 139 725 139 660.5 86 c 128,-1,44
 596 33 596 33 508 4 c 128,-1,45
 420 -25 420 -25 315 -25 c 0,46,47
 224 -25 224 -25 172.5 1.5 c 128,-1,48
 121 28 121 28 121 76 c 0,49,50
 121 102 121 102 138 118.5 c 128,-1,51
 155 135 155 135 186 135 c 0,52,53
 209 135 209 135 234 126 c 128,-1,54
 259 117 259 117 297 92 c 0,55,56
 344 61 344 61 376.5 50 c 128,-1,57
 409 39 409 39 444 39 c 0,58,59
 492 39 492 39 533.5 58.5 c 128,-1,60
 575 78 575 78 605.5 112.5 c 128,-1,61
 636 147 636 147 654 194.5 c 128,-1,62
 672 242 672 242 672 297 c 0,63,64
 672 343 672 343 659 383.5 c 128,-1,65
 646 424 646 424 623 457.5 c 128,-1,66
 600 491 600 491 567.5 515.5 c 128,-1,67
 535 540 535 540 496 555 c 0,68,69
 479 561 479 561 463 565 c 128,-1,70
 447 569 447 569 426 571 c 128,-1,71
 405 573 405 573 377.5 574 c 128,-1,72
 350 575 350 575 311 575 c 1,73,-1
 311 598 l 1,74,-1
 311 598 l 1,0,1
EndSplineSet
EndChar

StartChar: four
Encoding: 52 52 16
Width: 961
Flags: W
LayerCount: 2
Fore
SplineSet
688 291 m 1,0,-1
 688 0 l 1,1,-1
 555 0 l 1,2,-1
 555 291 l 1,3,-1
 66 291 l 1,4,-1
 66 401 l 1,5,-1
 612 1176 l 1,6,-1
 688 1176 l 1,7,-1
 688 401 l 1,8,-1
 866 401 l 1,9,-1
 866 291 l 1,10,-1
 688 291 l 1,0,-1
135 401 m 1,11,-1
 553 401 l 1,12,-1
 553 999 l 1,13,-1
 135 401 l 1,11,-1
EndSplineSet
EndChar

StartChar: five
Encoding: 53 53 17
Width: 961
Flags: W
LayerCount: 2
Fore
SplineSet
287 866 m 1,0,1
 365 854 365 854 423.5 839 c 128,-1,2
 482 824 482 824 527 805 c 128,-1,3
 572 786 572 786 605.5 764 c 128,-1,4
 639 742 639 742 668 715 c 0,5,6
 701 682 701 682 724 649.5 c 128,-1,7
 747 617 747 617 761 582 c 128,-1,8
 775 547 775 547 781.5 508 c 128,-1,9
 788 469 788 469 788 422 c 0,10,11
 788 322 788 322 760 246.5 c 128,-1,12
 732 171 732 171 672 111 c 0,13,14
 604 45 604 45 515 10 c 128,-1,15
 426 -25 426 -25 313 -25 c 0,16,17
 213 -25 213 -25 156.5 4 c 128,-1,18
 100 33 100 33 100 84 c 0,19,20
 100 147 100 147 176 147 c 0,21,22
 202 147 202 147 233.5 134 c 128,-1,23
 265 121 265 121 307 90 c 0,24,25
 345 61 345 61 371.5 51 c 128,-1,26
 398 41 398 41 424 41 c 0,27,28
 475 41 475 41 519.5 63.5 c 128,-1,29
 564 86 564 86 596.5 125.5 c 128,-1,30
 629 165 629 165 647.5 219.5 c 128,-1,31
 666 274 666 274 666 338 c 0,32,33
 666 468 666 468 595 551 c 128,-1,34
 524 634 524 634 375 682 c 0,35,36
 319 701 319 701 269.5 709 c 128,-1,37
 220 717 220 717 178 717 c 0,38,39
 156 717 156 717 156 731 c 0,40,41
 156 735 156 735 158 739 c 2,42,-1
 348 1153 l 1,43,-1
 711 1153 l 2,44,45
 740 1153 740 1153 756.5 1162.5 c 128,-1,46
 773 1172 773 1172 793 1198 c 1,47,-1
 807 1186 l 1,48,-1
 741 1030 l 2,49,50
 736 1022 736 1022 729.5 1019 c 128,-1,51
 723 1016 723 1016 700 1016 c 2,52,-1
 360 1016 l 1,53,-1
 287 866 l 1,54,-1
 287 866 l 1,0,1
EndSplineSet
EndChar

StartChar: six
Encoding: 54 54 18
Width: 961
Flags: W
LayerCount: 2
Fore
SplineSet
825 1163 m 1,0,1
 722 1147 722 1147 635.5 1104.5 c 128,-1,2
 549 1062 549 1062 482.5 997.5 c 128,-1,3
 416 933 416 933 371.5 849 c 128,-1,4
 327 765 327 765 309 666 c 1,5,6
 351 691 351 691 380.5 706.5 c 128,-1,7
 410 722 410 722 434 730.5 c 128,-1,8
 458 739 458 739 481 742 c 128,-1,9
 504 745 504 745 532 745 c 0,10,11
 607 745 607 745 667 719 c 128,-1,12
 727 693 727 693 769.5 646 c 128,-1,13
 812 599 812 599 835 532 c 128,-1,14
 858 465 858 465 858 383 c 0,15,16
 858 292 858 292 831.5 217 c 128,-1,17
 805 142 805 142 757 88 c 128,-1,18
 709 34 709 34 642 4.5 c 128,-1,19
 575 -25 575 -25 494 -25 c 0,20,21
 403 -25 403 -25 331 12.5 c 128,-1,22
 259 50 259 50 208.5 117.5 c 128,-1,23
 158 185 158 185 131 279 c 128,-1,24
 104 373 104 373 104 485 c 0,25,26
 104 844 104 844 395 1051 c 0,27,28
 443 1086 443 1086 487.5 1109 c 128,-1,29
 532 1132 532 1132 581.5 1147 c 128,-1,30
 631 1162 631 1162 689 1172 c 128,-1,31
 747 1182 747 1182 821 1192 c 1,32,-1
 825 1163 l 1,0,1
467 666 m 0,33,34
 419 666 419 666 380.5 653.5 c 128,-1,35
 342 641 342 641 313 621 c 0,36,37
 289 601 289 601 277.5 563 c 128,-1,38
 266 525 266 525 266 459 c 0,39,40
 266 357 266 357 283 276.5 c 128,-1,41
 300 196 300 196 332 140 c 128,-1,42
 364 84 364 84 409.5 54.5 c 128,-1,43
 455 25 455 25 512 25 c 0,44,45
 606 25 606 25 654 100 c 128,-1,46
 702 175 702 175 702 322 c 0,47,48
 702 485 702 485 640.5 575.5 c 128,-1,49
 579 666 579 666 467 666 c 0,33,34
EndSplineSet
EndChar

StartChar: seven
Encoding: 55 55 19
Width: 961
Flags: W
LayerCount: 2
Fore
SplineSet
457 -14 m 1,0,-1
 344 -14 l 1,1,-1
 688 1024 l 1,2,-1
 311 1024 l 2,3,4
 276 1024 276 1024 250 1018.5 c 128,-1,5
 224 1013 224 1013 201.5 997 c 128,-1,6
 179 981 179 981 158 953.5 c 128,-1,7
 137 926 137 926 111 883 c 1,8,-1
 80 897 l 1,9,-1
 182 1153 l 1,10,-1
 827 1153 l 1,11,-1
 827 1124 l 1,12,-1
 457 -14 l 1,0,-1
EndSplineSet
EndChar

StartChar: eight
Encoding: 56 56 20
Width: 961
Flags: W
LayerCount: 2
Fore
SplineSet
551 645 m 1,0,1
 629 588 629 588 681 540.5 c 128,-1,2
 733 493 733 493 763.5 449.5 c 128,-1,3
 794 406 794 406 806.5 362.5 c 128,-1,4
 819 319 819 319 819 268 c 0,5,6
 819 201 819 201 794.5 147 c 128,-1,7
 770 93 770 93 725.5 54.5 c 128,-1,8
 681 16 681 16 618 -4.5 c 128,-1,9
 555 -25 555 -25 477 -25 c 0,10,11
 403 -25 403 -25 342 -4 c 128,-1,12
 281 17 281 17 236.5 55.5 c 128,-1,13
 192 94 192 94 167.5 146.5 c 128,-1,14
 143 199 143 199 143 262 c 0,15,16
 143 307 143 307 152 342 c 128,-1,17
 161 377 161 377 186 411.5 c 128,-1,18
 211 446 211 446 255 485 c 128,-1,19
 299 524 299 524 369 578 c 1,20,21
 300 638 300 638 257.5 680.5 c 128,-1,22
 215 723 215 723 192 757.5 c 128,-1,23
 169 792 169 792 161.5 825.5 c 128,-1,24
 154 859 154 859 154 901 c 0,25,26
 154 961 154 961 178.5 1011.5 c 128,-1,27
 203 1062 203 1062 247 1098.5 c 128,-1,28
 291 1135 291 1135 351.5 1155.5 c 128,-1,29
 412 1176 412 1176 483 1176 c 0,30,31
 548 1176 548 1176 603 1157.5 c 128,-1,32
 658 1139 658 1139 697.5 1106 c 128,-1,33
 737 1073 737 1073 759.5 1028 c 128,-1,34
 782 983 782 983 782 930 c 0,35,36
 782 885 782 885 770 848 c 128,-1,37
 758 811 758 811 730.5 777.5 c 128,-1,38
 703 744 703 744 659 712 c 128,-1,39
 615 680 615 680 551 645 c 1,0,1
414 543 m 1,40,41
 376 512 376 512 349.5 482.5 c 128,-1,42
 323 453 323 453 306 421 c 128,-1,43
 289 389 289 389 281.5 353.5 c 128,-1,44
 274 318 274 318 274 276 c 0,45,46
 274 219 274 219 290 173 c 128,-1,47
 306 127 306 127 335 94 c 128,-1,48
 364 61 364 61 405 43 c 128,-1,49
 446 25 446 25 496 25 c 0,50,51
 538 25 538 25 573 39 c 128,-1,52
 608 53 608 53 633.5 78.5 c 128,-1,53
 659 104 659 104 673.5 138.5 c 128,-1,54
 688 173 688 173 688 215 c 0,55,56
 688 253 688 253 679.5 284 c 128,-1,57
 671 315 671 315 651 344 c 128,-1,58
 631 373 631 373 598.5 402.5 c 128,-1,59
 566 432 566 432 518 467 c 2,60,-1
 414 543 l 1,40,41
500 678 m 1,61,62
 506 683 506 683 507.5 683 c 128,-1,63
 509 683 509 683 514 688 c 0,64,65
 589 739 589 739 626.5 797.5 c 128,-1,66
 664 856 664 856 664 932 c 0,67,68
 664 977 664 977 650.5 1013 c 128,-1,69
 637 1049 637 1049 612 1074.5 c 128,-1,70
 587 1100 587 1100 550.5 1114 c 128,-1,71
 514 1128 514 1128 469 1128 c 0,72,73
 428 1128 428 1128 394 1115.5 c 128,-1,74
 360 1103 360 1103 335 1080.5 c 128,-1,75
 310 1058 310 1058 296.5 1025.5 c 128,-1,76
 283 993 283 993 283 954 c 0,77,78
 283 919 283 919 294.5 885.5 c 128,-1,79
 306 852 306 852 332 818 c 128,-1,80
 358 784 358 784 399.5 749.5 c 128,-1,81
 441 715 441 715 500 678 c 1,61,62
EndSplineSet
EndChar

StartChar: nine
Encoding: 57 57 21
Width: 961
Flags: W
LayerCount: 2
Fore
SplineSet
143 -2 m 1,0,1
 344 32 344 32 479.5 164.5 c 128,-1,2
 615 297 615 297 672 512 c 1,3,4
 603 458 603 458 542.5 435 c 128,-1,5
 482 412 482 412 410 412 c 0,6,7
 340 412 340 412 282 437.5 c 128,-1,8
 224 463 224 463 183 509.5 c 128,-1,9
 142 556 142 556 119 621 c 128,-1,10
 96 686 96 686 96 766 c 0,11,12
 96 854 96 854 124 929 c 128,-1,13
 152 1004 152 1004 200.5 1059 c 128,-1,14
 249 1114 249 1114 315.5 1145 c 128,-1,15
 382 1176 382 1176 459 1176 c 0,16,17
 543 1176 543 1176 613.5 1140 c 128,-1,18
 684 1104 684 1104 735 1039.5 c 128,-1,19
 786 975 786 975 815 884.5 c 128,-1,20
 844 794 844 794 844 686 c 0,21,22
 844 598 844 598 824.5 514 c 128,-1,23
 805 430 805 430 768 355 c 128,-1,24
 731 280 731 280 677.5 215.5 c 128,-1,25
 624 151 624 151 557 102 c 0,26,27
 512 69 512 69 470 46.5 c 128,-1,28
 428 24 428 24 380.5 8.5 c 128,-1,29
 333 -7 333 -7 277 -18 c 128,-1,30
 221 -29 221 -29 147 -39 c 1,31,-1
 143 -2 l 1,0,1
676 686 m 2,32,33
 676 1128 676 1128 444 1128 c 0,34,35
 367 1128 367 1128 322 1073 c 0,36,37
 308 1057 308 1057 296 1029.5 c 128,-1,38
 284 1002 284 1002 275 968.5 c 128,-1,39
 266 935 266 935 261 898 c 128,-1,40
 256 861 256 861 256 825 c 0,41,42
 256 747 256 747 271.5 684.5 c 128,-1,43
 287 622 287 622 315.5 578 c 128,-1,44
 344 534 344 534 384 510.5 c 128,-1,45
 424 487 424 487 473 487 c 0,46,47
 571 487 571 487 649 553 c 0,48,49
 663 564 663 564 669.5 578 c 128,-1,50
 676 592 676 592 676 618 c 2,51,-1
 676 686 l 2,32,33
EndSplineSet
EndChar

StartChar: less
Encoding: 60 60 22
Width: 981
Flags: W
LayerCount: 2
Fore
SplineSet
47 393 m 1,0,-1
 934 795 l 1,1,-1
 934 670 l 1,2,-1
 203 336 l 1,3,-1
 934 4 l 1,4,-1
 934 -121 l 1,5,-1
 47 279 l 1,6,-1
 47 393 l 1,0,-1
EndSplineSet
EndChar

StartChar: equal
Encoding: 61 61 23
Width: 768
Flags: W
LayerCount: 2
Fore
SplineSet
55 457 m 1,0,-1
 55 532 l 1,1,-1
 707 532 l 1,2,-1
 707 457 l 1,3,-1
 55 457 l 1,0,-1
55 211 m 1,4,-1
 55 287 l 1,5,-1
 707 287 l 1,6,-1
 707 211 l 1,7,-1
 55 211 l 1,4,-1
EndSplineSet
EndChar

StartChar: greater
Encoding: 62 62 24
Width: 981
Flags: W
LayerCount: 2
Fore
SplineSet
780 336 m 1,0,-1
 47 670 l 1,1,-1
 47 795 l 1,2,-1
 934 393 l 1,3,-1
 934 279 l 1,4,-1
 47 -121 l 1,5,-1
 47 4 l 1,6,-1
 780 336 l 1,0,-1
EndSplineSet
EndChar

StartChar: question
Encoding: 63 63 25
Width: 772
Flags: W
LayerCount: 2
Fore
SplineSet
395 287 m 1,0,1
 397 342 397 342 409.5 404 c 128,-1,2
 422 466 422 466 446 532 c 1,3,-1
 496 643 l 2,4,5
 528 717 528 717 543.5 785.5 c 128,-1,6
 559 854 559 854 559 915 c 0,7,8
 559 958 559 958 544.5 996 c 128,-1,9
 530 1034 530 1034 505 1062.5 c 128,-1,10
 480 1091 480 1091 446 1107.5 c 128,-1,11
 412 1124 412 1124 373 1124 c 0,12,13
 341 1124 341 1124 311 1115.5 c 128,-1,14
 281 1107 281 1107 258 1092.5 c 128,-1,15
 235 1078 235 1078 221 1058.5 c 128,-1,16
 207 1039 207 1039 207 1018 c 0,17,18
 207 995 207 995 238 963 c 0,19,20
 256 940 256 940 265 922.5 c 128,-1,21
 274 905 274 905 274 887 c 0,22,23
 274 856 274 856 254 836.5 c 128,-1,24
 234 817 234 817 203 817 c 0,25,26
 159 817 159 817 139 845 c 128,-1,27
 119 873 119 873 119 924 c 0,28,29
 119 978 119 978 140.5 1024.5 c 128,-1,30
 162 1071 162 1071 200 1104.5 c 128,-1,31
 238 1138 238 1138 289 1157 c 128,-1,32
 340 1176 340 1176 399 1176 c 0,33,34
 472 1176 472 1176 540.5 1148 c 128,-1,35
 609 1120 609 1120 657 1075 c 0,36,37
 688 1046 688 1046 704.5 1002 c 128,-1,38
 721 958 721 958 721 907 c 0,39,40
 721 853 721 853 703 802 c 128,-1,41
 685 751 685 751 643 688 c 0,42,43
 635 673 635 673 628.5 664.5 c 128,-1,44
 622 656 622 656 611.5 643.5 c 128,-1,45
 601 631 601 631 584.5 610.5 c 128,-1,46
 568 590 568 590 539 553 c 0,47,48
 514 522 514 522 495.5 493 c 128,-1,49
 477 464 477 464 463.5 432.5 c 128,-1,50
 450 401 450 401 441 365.5 c 128,-1,51
 432 330 432 330 426 287 c 1,52,-1
 395 287 l 1,0,1
412 172 m 0,53,54
 431 172 431 172 448.5 164.5 c 128,-1,55
 466 157 466 157 479 144.5 c 128,-1,56
 492 132 492 132 500 114.5 c 128,-1,57
 508 97 508 97 508 76 c 0,58,59
 508 39 508 39 481 12.5 c 128,-1,60
 454 -14 454 -14 412 -14 c 0,61,62
 373 -14 373 -14 346 12 c 128,-1,63
 319 38 319 38 319 76 c 0,64,65
 319 118 319 118 346 145 c 128,-1,66
 373 172 373 172 412 172 c 0,53,54
EndSplineSet
EndChar

StartChar: at
Encoding: 64 64 26
Width: 1604
Flags: W
LayerCount: 2
Fore
SplineSet
1219 76 m 1,0,1
 1157 46 1157 46 1107 26.5 c 128,-1,2
 1057 7 1057 7 1013 -4.5 c 128,-1,3
 969 -16 969 -16 928 -20.5 c 128,-1,4
 887 -25 887 -25 842 -25 c 0,5,6
 705 -25 705 -25 588 20 c 128,-1,7
 471 65 471 65 385.5 144.5 c 128,-1,8
 300 224 300 224 251.5 332.5 c 128,-1,9
 203 441 203 441 203 567 c 0,10,11
 203 652 203 652 225.5 730 c 128,-1,12
 248 808 248 808 289 876 c 128,-1,13
 330 944 330 944 387.5 999 c 128,-1,14
 445 1054 445 1054 515.5 1093.5 c 128,-1,15
 586 1133 586 1133 667.5 1154.5 c 128,-1,16
 749 1176 749 1176 838 1176 c 0,17,18
 958 1176 958 1176 1062 1137 c 128,-1,19
 1166 1098 1166 1098 1243 1029 c 128,-1,20
 1320 960 1320 960 1364.5 867 c 128,-1,21
 1409 774 1409 774 1409 666 c 0,22,23
 1409 581 1409 581 1383.5 505.5 c 128,-1,24
 1358 430 1358 430 1314 373 c 128,-1,25
 1270 316 1270 316 1211.5 283 c 128,-1,26
 1153 250 1153 250 1087 250 c 0,27,28
 1024 250 1024 250 981 283.5 c 128,-1,29
 938 317 938 317 930 377 c 1,30,31
 885 315 885 315 827.5 283.5 c 128,-1,32
 770 252 770 252 713 252 c 0,33,34
 681 252 681 252 652.5 267 c 128,-1,35
 624 282 624 282 603 307.5 c 128,-1,36
 582 333 582 333 569.5 368 c 128,-1,37
 557 403 557 403 557 444 c 0,38,39
 557 494 557 494 569 546.5 c 128,-1,40
 581 599 581 599 603.5 648 c 128,-1,41
 626 697 626 697 657 740 c 128,-1,42
 688 783 688 783 726 815.5 c 128,-1,43
 764 848 764 848 807.5 866.5 c 128,-1,44
 851 885 851 885 899 885 c 0,45,46
 942 885 942 885 970.5 866 c 128,-1,47
 999 847 999 847 1024 795 c 1,48,-1
 1042 860 l 1,49,-1
 1163 860 l 1,50,-1
 1051 418 l 2,51,52
 1049 412 1049 412 1048 404 c 128,-1,53
 1047 396 1047 396 1047 387 c 0,54,55
 1047 305 1047 305 1114 305 c 0,56,57
 1156 305 1156 305 1196.5 334.5 c 128,-1,58
 1237 364 1237 364 1268.5 412.5 c 128,-1,59
 1300 461 1300 461 1319.5 522.5 c 128,-1,60
 1339 584 1339 584 1339 649 c 0,61,62
 1339 746 1339 746 1299.5 832.5 c 128,-1,63
 1260 919 1260 919 1191.5 983 c 128,-1,64
 1123 1047 1123 1047 1032.5 1084.5 c 128,-1,65
 942 1122 942 1122 840 1122 c 0,66,67
 741 1122 741 1122 657 1089.5 c 128,-1,68
 573 1057 573 1057 510 989 c 0,69,70
 473 951 473 951 443 902.5 c 128,-1,71
 413 854 413 854 392 798.5 c 128,-1,72
 371 743 371 743 359.5 683.5 c 128,-1,73
 348 624 348 624 348 563 c 0,74,75
 348 449 348 449 386 353.5 c 128,-1,76
 424 258 424 258 491.5 189 c 128,-1,77
 559 120 559 120 652 81.5 c 128,-1,78
 745 43 745 43 856 43 c 0,79,80
 901 43 901 43 940.5 48 c 128,-1,81
 980 53 980 53 1020 63 c 128,-1,82
 1060 73 1060 73 1103.5 89 c 128,-1,83
 1147 105 1147 105 1198 127 c 1,84,-1
 1219 76 l 1,0,1
918 807 m 2,85,86
 885 807 885 807 847 785 c 128,-1,87
 809 763 809 763 772 721 c 0,88,89
 682 617 682 617 682 473 c 0,90,91
 682 404 682 404 709.5 365 c 128,-1,92
 737 326 737 326 786 326 c 0,93,94
 816 326 816 326 843.5 344.5 c 128,-1,95
 871 363 871 363 894 394 c 128,-1,96
 917 425 917 425 936 465 c 128,-1,97
 955 505 955 505 968 548 c 128,-1,98
 981 591 981 591 988 633 c 128,-1,99
 995 675 995 675 995 711 c 0,100,101
 995 756 995 756 977 780.5 c 128,-1,102
 959 805 959 805 924 807 c 2,103,-1
 918 807 l 2,85,86
EndSplineSet
EndChar

StartChar: A
Encoding: 65 65 27
Width: 1257
Flags: W
LayerCount: 2
Fore
SplineSet
784 0 m 1,0,-1
 784 33 l 1,1,2
 819 35 819 35 842.5 38.5 c 128,-1,3
 866 42 866 42 880.5 48 c 128,-1,4
 895 54 895 54 901 64.5 c 128,-1,5
 907 75 907 75 907 92 c 0,6,7
 907 111 907 111 899 141.5 c 128,-1,8
 891 172 891 172 874 209 c 2,9,-1
 803 377 l 1,10,-1
 346 377 l 1,11,-1
 266 172 l 2,12,13
 260 155 260 155 256 138 c 128,-1,14
 252 121 252 121 252 104 c 0,15,16
 252 67 252 67 280 50 c 128,-1,17
 308 33 308 33 371 33 c 1,18,-1
 371 0 l 1,19,-1
 27 0 l 1,20,-1
 27 33 l 1,21,22
 57 35 57 35 79 44.5 c 128,-1,23
 101 54 101 54 123.5 83.5 c 128,-1,24
 146 113 146 113 173.5 168.5 c 128,-1,25
 201 224 201 224 242 319 c 2,26,-1
 604 1174 l 1,27,-1
 639 1174 l 1,28,-1
 1073 184 l 2,29,30
 1095 136 1095 136 1111.5 107 c 128,-1,31
 1128 78 1128 78 1144.5 62.5 c 128,-1,32
 1161 47 1161 47 1180.5 41 c 128,-1,33
 1200 35 1200 35 1229 33 c 1,34,-1
 1229 0 l 1,35,-1
 784 0 l 1,0,-1
575 926 m 1,36,-1
 377 446 l 1,37,-1
 778 446 l 1,38,-1
 575 926 l 1,36,-1
EndSplineSet
EndChar

StartChar: B
Encoding: 66 66 28
Width: 1161
Flags: W
LayerCount: 2
Fore
SplineSet
516 1153 m 2,0,1
 973 1153 973 1153 973 856 c 0,2,3
 973 802 973 802 954 757.5 c 128,-1,4
 935 713 935 713 903 682 c 0,5,6
 888 669 888 669 872 658.5 c 128,-1,7
 856 648 856 648 836.5 639 c 128,-1,8
 817 630 817 630 792 622 c 128,-1,9
 767 614 767 614 733 606 c 1,10,11
 775 596 775 596 807 587 c 128,-1,12
 839 578 839 578 863.5 567 c 128,-1,13
 888 556 888 556 908 542 c 128,-1,14
 928 528 928 528 946 510 c 0,15,16
 990 472 990 472 1011 421 c 128,-1,17
 1032 370 1032 370 1032 313 c 0,18,19
 1032 246 1032 246 1006 189 c 128,-1,20
 980 132 980 132 927.5 90 c 128,-1,21
 875 48 875 48 795.5 24 c 128,-1,22
 716 0 716 0 610 0 c 2,23,-1
 31 0 l 1,24,-1
 31 33 l 1,25,26
 84 35 84 35 116.5 41.5 c 128,-1,27
 149 48 149 48 167 64.5 c 128,-1,28
 185 81 185 81 191 111 c 128,-1,29
 197 141 197 141 197 190 c 2,30,-1
 197 963 l 2,31,32
 197 1011 197 1011 191 1040 c 128,-1,33
 185 1069 185 1069 167.5 1085.5 c 128,-1,34
 150 1102 150 1102 117.5 1109 c 128,-1,35
 85 1116 85 1116 31 1118 c 1,36,-1
 31 1153 l 1,37,-1
 516 1153 l 2,0,1
375 135 m 2,38,39
 375 114 375 114 380 101 c 128,-1,40
 385 88 385 88 397.5 80 c 128,-1,41
 410 72 410 72 430.5 69 c 128,-1,42
 451 66 451 66 483 66 c 0,43,44
 578 66 578 66 644.5 81 c 128,-1,45
 711 96 711 96 752.5 127 c 128,-1,46
 794 158 794 158 812.5 203.5 c 128,-1,47
 831 249 831 249 831 311 c 0,48,49
 831 396 831 396 796 449 c 128,-1,50
 761 502 761 502 686 532 c 0,51,52
 662 542 662 542 634.5 549 c 128,-1,53
 607 556 607 556 570 560 c 128,-1,54
 533 564 533 564 485.5 565.5 c 128,-1,55
 438 567 438 567 375 567 c 1,56,-1
 375 135 l 2,38,39
541 637 m 2,57,58
 666 637 666 637 731.5 691 c 128,-1,59
 797 745 797 745 797 850 c 0,60,61
 797 968 797 968 719.5 1027.5 c 128,-1,62
 642 1087 642 1087 489 1087 c 2,63,-1
 412 1087 l 2,64,65
 393 1087 393 1087 384 1076 c 128,-1,66
 375 1065 375 1065 375 1036 c 2,67,-1
 375 637 l 1,68,-1
 541 637 l 2,57,58
EndSplineSet
EndChar

StartChar: C
Encoding: 67 67 29
Width: 1161
Flags: W
LayerCount: 2
Fore
SplineSet
1040 784 m 1,0,1
 1025 826 1025 826 1013 857 c 128,-1,2
 1001 888 1001 888 988.5 913 c 128,-1,3
 976 938 976 938 960.5 959 c 128,-1,4
 945 980 945 980 924 1001 c 0,5,6
 817 1108 817 1108 666 1108 c 0,7,8
 571 1108 571 1108 494.5 1071.5 c 128,-1,9
 418 1035 418 1035 364 967 c 128,-1,10
 310 899 310 899 281 803 c 128,-1,11
 252 707 252 707 252 588 c 0,12,13
 252 457 252 457 282.5 356.5 c 128,-1,14
 313 256 313 256 369.5 188 c 128,-1,15
 426 120 426 120 505 85.5 c 128,-1,16
 584 51 584 51 682 51 c 0,17,18
 789 51 789 51 883 92 c 128,-1,19
 977 133 977 133 1071 227 c 1,20,-1
 1102 197 l 1,21,22
 1021 90 1021 90 898.5 32.5 c 128,-1,23
 776 -25 776 -25 627 -25 c 0,24,25
 503 -25 503 -25 397 16 c 128,-1,26
 291 57 291 57 213 133.5 c 128,-1,27
 135 210 135 210 91 319 c 128,-1,28
 47 428 47 428 47 565 c 0,29,30
 47 714 47 714 95.5 830 c 128,-1,31
 144 946 144 946 238 1026 c 1,32,33
 318 1100 318 1100 419.5 1138 c 128,-1,34
 521 1176 521 1176 633 1176 c 0,35,36
 695 1176 695 1176 758 1165.5 c 128,-1,37
 821 1155 821 1155 887 1135 c 0,38,39
 905 1127 905 1127 923.5 1122.5 c 128,-1,40
 942 1118 942 1118 954 1118 c 0,41,42
 980 1118 980 1118 1000 1134 c 128,-1,43
 1020 1150 1020 1150 1026 1176 c 1,44,-1
 1063 1176 l 1,45,-1
 1063 784 l 1,46,-1
 1040 784 l 1,47,-1
 1040 784 l 1,0,1
EndSplineSet
EndChar

StartChar: D
Encoding: 68 68 30
Width: 1257
Flags: W
LayerCount: 2
Fore
SplineSet
180 963 m 2,0,1
 180 1012 180 1012 175.5 1041 c 128,-1,2
 171 1070 171 1070 155 1086 c 128,-1,3
 139 1102 139 1102 109.5 1108 c 128,-1,4
 80 1114 80 1114 29 1118 c 1,5,-1
 29 1153 l 1,6,-1
 498 1153 l 2,7,8
 660 1153 660 1153 789 1114.5 c 128,-1,9
 918 1076 918 1076 1008 1002.5 c 128,-1,10
 1098 929 1098 929 1146 823 c 128,-1,11
 1194 717 1194 717 1194 582 c 0,12,13
 1194 453 1194 453 1149.5 346 c 128,-1,14
 1105 239 1105 239 1019.5 162 c 128,-1,15
 934 85 934 85 809 42.5 c 128,-1,16
 684 0 684 0 522 0 c 2,17,-1
 29 0 l 1,18,-1
 29 33 l 1,19,20
 78 37 78 37 108 44.5 c 128,-1,21
 138 52 138 52 154 69 c 128,-1,22
 170 86 170 86 175 114.5 c 128,-1,23
 180 143 180 143 180 190 c 2,24,-1
 180 963 l 2,0,1
358 135 m 2,25,26
 358 114 358 114 362.5 101 c 128,-1,27
 367 88 367 88 377.5 80 c 128,-1,28
 388 72 388 72 405.5 69 c 128,-1,29
 423 66 423 66 449 66 c 0,30,31
 506 66 506 66 554 70 c 128,-1,32
 602 74 602 74 643.5 82 c 128,-1,33
 685 90 685 90 721.5 103.5 c 128,-1,34
 758 117 758 117 791 135 c 0,35,36
 1004 259 1004 259 1004 569 c 0,37,38
 1004 856 1004 856 797 1001 c 0,39,40
 672 1087 672 1087 449 1087 c 0,41,42
 422 1087 422 1087 404.5 1084.5 c 128,-1,43
 387 1082 387 1082 376.5 1074.5 c 128,-1,44
 366 1067 366 1067 362 1054 c 128,-1,45
 358 1041 358 1041 358 1020 c 2,46,-1
 358 135 l 2,25,26
EndSplineSet
EndChar

StartChar: E
Encoding: 69 69 31
Width: 1063
Flags: W
LayerCount: 2
Fore
SplineSet
20 0 m 1,0,-1
 20 33 l 1,1,2
 69 37 69 37 99 44.5 c 128,-1,3
 129 52 129 52 145.5 69 c 128,-1,4
 162 86 162 86 167 114.5 c 128,-1,5
 172 143 172 143 172 190 c 2,6,-1
 172 963 l 2,7,8
 172 1009 172 1009 167 1038 c 128,-1,9
 162 1067 162 1067 145.5 1083.5 c 128,-1,10
 129 1100 129 1100 99 1107 c 128,-1,11
 69 1114 69 1114 20 1118 c 1,12,-1
 20 1153 l 1,13,-1
 944 1153 l 1,14,-1
 944 903 l 1,15,-1
 907 903 l 1,16,17
 897 962 897 962 882 998 c 128,-1,18
 867 1034 867 1034 838.5 1053.5 c 128,-1,19
 810 1073 810 1073 763 1079 c 128,-1,20
 716 1085 716 1085 643 1085 c 2,21,-1
 408 1085 l 2,22,23
 372 1085 372 1085 361 1074 c 128,-1,24
 350 1063 350 1063 350 1026 c 2,25,-1
 350 641 l 1,26,-1
 618 641 l 2,27,28
 737 641 737 641 770 684 c 0,29,30
 786 700 786 700 793.5 726.5 c 128,-1,31
 801 753 801 753 809 807 c 1,32,-1
 850 807 l 1,33,-1
 850 401 l 1,34,-1
 809 401 l 1,35,36
 800 456 800 456 789.5 489 c 128,-1,37
 779 522 779 522 759 540 c 128,-1,38
 739 558 739 558 705.5 563.5 c 128,-1,39
 672 569 672 569 618 569 c 2,40,-1
 350 569 l 1,41,-1
 350 139 l 2,42,43
 350 116 350 116 353 102 c 128,-1,44
 356 88 356 88 362 86 c 0,45,46
 365 81 365 81 380.5 77 c 128,-1,47
 396 73 396 73 419 70.5 c 128,-1,48
 442 68 442 68 471.5 67 c 128,-1,49
 501 66 501 66 532 66 c 2,50,-1
 580 66 l 2,51,52
 673 66 673 66 737 75 c 128,-1,53
 801 84 801 84 847 109 c 128,-1,54
 893 134 893 134 925.5 178.5 c 128,-1,55
 958 223 958 223 989 295 c 1,56,-1
 1040 295 l 1,57,-1
 961 0 l 1,58,-1
 20 0 l 1,0,-1
EndSplineSet
EndChar

StartChar: F
Encoding: 70 70 32
Width: 969
Flags: W
LayerCount: 2
Fore
SplineSet
795 401 m 1,0,1
 786 454 786 454 775 487 c 128,-1,2
 764 520 764 520 743 538 c 128,-1,3
 722 556 722 556 688.5 562.5 c 128,-1,4
 655 569 655 569 602 569 c 2,5,-1
 350 569 l 1,6,-1
 350 190 l 2,7,8
 350 142 350 142 356 112.5 c 128,-1,9
 362 83 362 83 379 66.5 c 128,-1,10
 396 50 396 50 427 43.5 c 128,-1,11
 458 37 458 37 508 33 c 1,12,-1
 508 0 l 1,13,-1
 20 0 l 1,14,-1
 20 33 l 1,15,16
 70 37 70 37 100 44.5 c 128,-1,17
 130 52 130 52 146 70 c 128,-1,18
 162 88 162 88 167 121 c 128,-1,19
 172 154 172 154 172 209 c 2,20,-1
 172 963 l 2,21,22
 172 1009 172 1009 167 1038 c 128,-1,23
 162 1067 162 1067 145.5 1083.5 c 128,-1,24
 129 1100 129 1100 99 1107 c 128,-1,25
 69 1114 69 1114 20 1118 c 1,26,-1
 20 1153 l 1,27,-1
 944 1153 l 1,28,-1
 944 903 l 1,29,-1
 907 903 l 1,30,31
 897 962 897 962 882 998 c 128,-1,32
 867 1034 867 1034 838.5 1053.5 c 128,-1,33
 810 1073 810 1073 763 1079 c 128,-1,34
 716 1085 716 1085 643 1085 c 2,35,-1
 406 1085 l 2,36,37
 388 1085 388 1085 377 1082.5 c 128,-1,38
 366 1080 366 1080 360 1073.5 c 128,-1,39
 354 1067 354 1067 352 1055.5 c 128,-1,40
 350 1044 350 1044 350 1026 c 2,41,-1
 350 641 l 1,42,-1
 602 641 l 2,43,44
 654 641 654 641 687.5 647 c 128,-1,45
 721 653 721 653 742 671 c 128,-1,46
 763 689 763 689 774.5 721.5 c 128,-1,47
 786 754 786 754 795 807 c 1,48,-1
 834 807 l 1,49,-1
 834 401 l 1,50,-1
 795 401 l 1,51,-1
 795 401 l 1,0,1
EndSplineSet
EndChar

StartChar: G
Encoding: 71 71 33
Width: 1257
Flags: W
LayerCount: 2
Fore
SplineSet
1235 586 m 1,0,1
 1197 582 1197 582 1173 575 c 128,-1,2
 1149 568 1149 568 1135.5 553.5 c 128,-1,3
 1122 539 1122 539 1117 514.5 c 128,-1,4
 1112 490 1112 490 1112 451 c 2,5,-1
 1112 98 l 1,6,7
 1086 75 1086 75 1035.5 53 c 128,-1,8
 985 31 985 31 923.5 13.5 c 128,-1,9
 862 -4 862 -4 796.5 -14.5 c 128,-1,10
 731 -25 731 -25 676 -25 c 0,11,12
 527 -25 527 -25 408 22 c 128,-1,13
 289 69 289 69 201 162 c 0,14,15
 127 240 127 240 91 338 c 128,-1,16
 55 436 55 436 55 565 c 0,17,18
 55 699 55 699 99 811 c 128,-1,19
 143 923 143 923 222.5 1004 c 128,-1,20
 302 1085 302 1085 412 1130.5 c 128,-1,21
 522 1176 522 1176 653 1176 c 0,22,23
 771 1176 771 1176 891 1137 c 0,24,25
 939 1118 939 1118 967 1118 c 0,26,27
 993 1118 993 1118 1014.5 1135.5 c 128,-1,28
 1036 1153 1036 1153 1044 1176 c 1,29,-1
 1083 1176 l 1,30,-1
 1083 809 l 1,31,-1
 1057 809 l 1,32,33
 1041 849 1041 849 1026.5 878.5 c 128,-1,34
 1012 908 1012 908 997.5 931.5 c 128,-1,35
 983 955 983 955 967.5 974.5 c 128,-1,36
 952 994 952 994 934 1012 c 0,37,38
 827 1108 827 1108 682 1108 c 0,39,40
 587 1108 587 1108 508.5 1072 c 128,-1,41
 430 1036 430 1036 373.5 966.5 c 128,-1,42
 317 897 317 897 285.5 796.5 c 128,-1,43
 254 696 254 696 254 567 c 0,44,45
 254 447 254 447 285.5 350 c 128,-1,46
 317 253 317 253 376.5 185.5 c 128,-1,47
 436 118 436 118 521 81.5 c 128,-1,48
 606 45 606 45 713 45 c 0,49,50
 760 45 760 45 801.5 53 c 128,-1,51
 843 61 843 61 874.5 75 c 128,-1,52
 906 89 906 89 924 107.5 c 128,-1,53
 942 126 942 126 942 147 c 2,54,-1
 942 430 l 2,55,56
 942 487 942 487 934.5 517.5 c 128,-1,57
 927 548 927 548 907 559 c 0,58,59
 899 565 899 565 890.5 569 c 128,-1,60
 882 573 882 573 869 576 c 128,-1,61
 856 579 856 579 837 581.5 c 128,-1,62
 818 584 818 584 791 586 c 1,63,-1
 791 616 l 1,64,-1
 1235 616 l 1,65,-1
 1235 586 l 1,66,-1
 1235 586 l 1,0,1
EndSplineSet
EndChar

StartChar: H
Encoding: 72 72 34
Width: 1257
Flags: W
LayerCount: 2
Fore
SplineSet
893 963 m 2,0,1
 893 1009 893 1009 888 1038 c 128,-1,2
 883 1067 883 1067 866.5 1083.5 c 128,-1,3
 850 1100 850 1100 819 1107 c 128,-1,4
 788 1114 788 1114 737 1118 c 1,5,-1
 737 1153 l 1,6,-1
 1223 1153 l 1,7,-1
 1223 1118 l 1,8,9
 1171 1114 1171 1114 1140.5 1107 c 128,-1,10
 1110 1100 1110 1100 1093.5 1083.5 c 128,-1,11
 1077 1067 1077 1067 1072 1038 c 128,-1,12
 1067 1009 1067 1009 1067 963 c 2,13,-1
 1067 190 l 2,14,15
 1067 143 1067 143 1072.5 114.5 c 128,-1,16
 1078 86 1078 86 1095 69 c 128,-1,17
 1112 52 1112 52 1142.5 44.5 c 128,-1,18
 1173 37 1173 37 1223 33 c 1,19,-1
 1223 0 l 1,20,-1
 737 0 l 1,21,-1
 737 33 l 1,22,23
 788 37 788 37 819 44 c 128,-1,24
 850 51 850 51 866.5 69 c 128,-1,25
 883 87 883 87 888 120 c 128,-1,26
 893 153 893 153 893 209 c 2,27,-1
 893 549 l 1,28,-1
 365 549 l 1,29,-1
 365 190 l 2,30,31
 365 143 365 143 370.5 114.5 c 128,-1,32
 376 86 376 86 392 69.5 c 128,-1,33
 408 53 408 53 438 45 c 128,-1,34
 468 37 468 37 516 33 c 1,35,-1
 516 0 l 1,36,-1
 33 0 l 1,37,-1
 33 33 l 1,38,39
 84 37 84 37 114.5 44 c 128,-1,40
 145 51 145 51 161 69 c 128,-1,41
 177 87 177 87 181.5 120 c 128,-1,42
 186 153 186 153 186 209 c 2,43,-1
 186 963 l 2,44,45
 186 1009 186 1009 181 1038 c 128,-1,46
 176 1067 176 1067 160 1083.5 c 128,-1,47
 144 1100 144 1100 114 1107 c 128,-1,48
 84 1114 84 1114 33 1118 c 1,49,-1
 33 1153 l 1,50,-1
 516 1153 l 1,51,-1
 516 1118 l 1,52,53
 466 1114 466 1114 436 1107 c 128,-1,54
 406 1100 406 1100 390.5 1083.5 c 128,-1,55
 375 1067 375 1067 370 1038 c 128,-1,56
 365 1009 365 1009 365 963 c 2,57,-1
 365 625 l 1,58,-1
 893 625 l 1,59,-1
 893 963 l 2,0,1
EndSplineSet
EndChar

StartChar: I
Encoding: 73 73 35
Width: 580
Flags: W
LayerCount: 2
Fore
SplineSet
201 963 m 1,0,1
 201 1011 201 1011 195 1040 c 128,-1,2
 189 1069 189 1069 171 1085.5 c 128,-1,3
 153 1102 153 1102 119.5 1109 c 128,-1,4
 86 1116 86 1116 31 1118 c 1,5,-1
 31 1153 l 1,6,-1
 549 1153 l 1,7,-1
 549 1118 l 1,8,9
 493 1116 493 1116 459.5 1109.5 c 128,-1,10
 426 1103 426 1103 407.5 1086.5 c 128,-1,11
 389 1070 389 1070 383 1040.5 c 128,-1,12
 377 1011 377 1011 377 963 c 2,13,-1
 377 190 l 2,14,15
 377 142 377 142 383.5 112.5 c 128,-1,16
 390 83 390 83 408.5 66 c 128,-1,17
 427 49 427 49 460.5 42 c 128,-1,18
 494 35 494 35 549 33 c 1,19,-1
 549 0 l 1,20,-1
 31 0 l 1,21,-1
 31 33 l 1,22,23
 86 35 86 35 119.5 41.5 c 128,-1,24
 153 48 153 48 171 64.5 c 128,-1,25
 189 81 189 81 195 111 c 128,-1,26
 201 141 201 141 201 190 c 2,27,-1
 201 963 l 1,28,-1
 201 963 l 1,0,1
EndSplineSet
EndChar

StartChar: J
Encoding: 74 74 36
Width: 678
Flags: W
LayerCount: 2
Fore
SplineSet
483 319 m 1,0,1
 483 152 483 152 408.5 63.5 c 128,-1,2
 334 -25 334 -25 190 -25 c 0,3,4
 152 -25 152 -25 120 -15.5 c 128,-1,5
 88 -6 88 -6 65 10.5 c 128,-1,6
 42 27 42 27 29 50 c 128,-1,7
 16 73 16 73 16 100 c 0,8,9
 16 118 16 118 23 134 c 128,-1,10
 30 150 30 150 42 162 c 128,-1,11
 54 174 54 174 69.5 181 c 128,-1,12
 85 188 85 188 102 188 c 0,13,14
 167 188 167 188 193 98 c 0,15,16
 204 67 204 67 213 55 c 128,-1,17
 222 43 222 43 242 43 c 0,18,19
 274 43 274 43 289.5 69.5 c 128,-1,20
 305 96 305 96 305 156 c 2,21,-1
 305 963 l 2,22,23
 305 1011 305 1011 300.5 1040 c 128,-1,24
 296 1069 296 1069 279.5 1085 c 128,-1,25
 263 1101 263 1101 230.5 1107.5 c 128,-1,26
 198 1114 198 1114 143 1118 c 1,27,-1
 143 1153 l 1,28,-1
 643 1153 l 1,29,-1
 643 1118 l 1,30,31
 591 1114 591 1114 559.5 1107.5 c 128,-1,32
 528 1101 528 1101 511 1085 c 128,-1,33
 494 1069 494 1069 488.5 1040 c 128,-1,34
 483 1011 483 1011 483 963 c 2,35,-1
 483 319 l 1,36,-1
 483 319 l 1,0,1
EndSplineSet
EndChar

StartChar: K
Encoding: 75 75 37
Width: 1257
Flags: W
LayerCount: 2
Fore
SplineSet
1176 1153 m 1,0,-1
 1176 1118 l 1,1,2
 1131 1116 1131 1116 1100.5 1110 c 128,-1,3
 1070 1104 1070 1104 1042.5 1090 c 128,-1,4
 1015 1076 1015 1076 984.5 1050.5 c 128,-1,5
 954 1025 954 1025 909 983 c 2,6,-1
 580 655 l 1,7,-1
 985 221 l 2,8,9
 1045 157 1045 157 1082.5 120.5 c 128,-1,10
 1120 84 1120 84 1147.5 65.5 c 128,-1,11
 1175 47 1175 47 1200 41 c 128,-1,12
 1225 35 1225 35 1260 33 c 1,13,-1
 1260 0 l 1,14,-1
 727 0 l 1,15,-1
 727 33 l 1,16,17
 733 35 733 35 738 35 c 128,-1,18
 743 35 743 35 750 35 c 2,19,-1
 762 35 l 1,20,-1
 776 35 l 2,21,22
 850 35 850 35 850 74 c 0,23,24
 850 90 850 90 833 119.5 c 128,-1,25
 816 149 816 149 785.5 188 c 128,-1,26
 755 227 755 227 713.5 273.5 c 128,-1,27
 672 320 672 320 623 369 c 2,28,-1
 438 553 l 1,29,-1
 393 514 l 1,30,-1
 393 190 l 2,31,32
 393 142 393 142 398 112.5 c 128,-1,33
 403 83 403 83 419.5 66.5 c 128,-1,34
 436 50 436 50 467.5 43.5 c 128,-1,35
 499 37 499 37 551 33 c 1,36,-1
 551 0 l 1,37,-1
 59 0 l 1,38,-1
 59 33 l 1,39,40
 111 37 111 37 141.5 44.5 c 128,-1,41
 172 52 172 52 188.5 70 c 128,-1,42
 205 88 205 88 210 121 c 128,-1,43
 215 154 215 154 215 209 c 2,44,-1
 215 963 l 2,45,46
 215 1009 215 1009 210 1038 c 128,-1,47
 205 1067 205 1067 188.5 1083.5 c 128,-1,48
 172 1100 172 1100 141.5 1107 c 128,-1,49
 111 1114 111 1114 59 1118 c 1,50,-1
 59 1153 l 1,51,-1
 553 1153 l 1,52,-1
 553 1118 l 1,53,54
 500 1114 500 1114 468.5 1107.5 c 128,-1,55
 437 1101 437 1101 420 1085 c 128,-1,56
 403 1069 403 1069 398 1040 c 128,-1,57
 393 1011 393 1011 393 963 c 2,58,-1
 393 606 l 1,59,-1
 700 887 l 2,60,61
 774 953 774 953 805 994.5 c 128,-1,62
 836 1036 836 1036 838 1065 c 0,63,64
 838 1083 838 1083 832 1092.5 c 128,-1,65
 826 1102 826 1102 811.5 1107 c 128,-1,66
 797 1112 797 1112 774.5 1114 c 128,-1,67
 752 1116 752 1116 719 1118 c 1,68,-1
 719 1153 l 1,69,-1
 1176 1153 l 1,0,-1
EndSplineSet
EndChar

StartChar: L
Encoding: 76 76 38
Width: 1063
Flags: W
LayerCount: 2
Fore
SplineSet
956 0 m 1,0,-1
 20 0 l 1,1,-1
 20 33 l 1,2,3
 69 37 69 37 99 44.5 c 128,-1,4
 129 52 129 52 145.5 69 c 128,-1,5
 162 86 162 86 167 114.5 c 128,-1,6
 172 143 172 143 172 190 c 2,7,-1
 172 963 l 2,8,9
 172 1009 172 1009 167 1038 c 128,-1,10
 162 1067 162 1067 145.5 1083.5 c 128,-1,11
 129 1100 129 1100 99 1107 c 128,-1,12
 69 1114 69 1114 20 1118 c 1,13,-1
 20 1153 l 1,14,-1
 512 1153 l 1,15,-1
 512 1118 l 1,16,17
 461 1116 461 1116 429 1108.5 c 128,-1,18
 397 1101 397 1101 379.5 1084 c 128,-1,19
 362 1067 362 1067 356 1038 c 128,-1,20
 350 1009 350 1009 350 963 c 2,21,-1
 350 139 l 2,22,23
 350 117 350 117 355.5 103 c 128,-1,24
 361 89 361 89 377.5 81.5 c 128,-1,25
 394 74 394 74 423 71 c 128,-1,26
 452 68 452 68 500 68 c 2,27,-1
 616 68 l 2,28,29
 726 68 726 68 799.5 92.5 c 128,-1,30
 873 117 873 117 918 168 c 0,31,32
 938 188 938 188 956 220 c 128,-1,33
 974 252 974 252 997 303 c 1,34,-1
 1040 303 l 1,35,-1
 956 0 l 1,0,-1
EndSplineSet
EndChar

StartChar: M
Encoding: 77 77 39
Width: 1548
Flags: W
LayerCount: 2
Fore
SplineSet
702 0 m 1,0,-1
 266 956 l 1,1,-1
 266 256 l 2,2,3
 266 190 266 190 273 148.5 c 128,-1,4
 280 107 280 107 298 82.5 c 128,-1,5
 316 58 316 58 348 47.5 c 128,-1,6
 380 37 380 37 430 33 c 1,7,-1
 430 0 l 1,8,-1
 20 0 l 1,9,-1
 20 33 l 1,10,11
 75 37 75 37 108.5 47 c 128,-1,12
 142 57 142 57 160 81 c 128,-1,13
 178 105 178 105 184 146.5 c 128,-1,14
 190 188 190 188 190 256 c 2,15,-1
 190 963 l 2,16,17
 190 1011 190 1011 184 1040 c 128,-1,18
 178 1069 178 1069 160.5 1085.5 c 128,-1,19
 143 1102 143 1102 110.5 1109 c 128,-1,20
 78 1116 78 1116 25 1118 c 1,21,-1
 25 1153 l 1,22,-1
 369 1153 l 1,23,-1
 770 274 l 1,24,-1
 1155 1153 l 1,25,-1
 1501 1153 l 1,26,-1
 1501 1118 l 1,27,28
 1453 1114 1453 1114 1424 1107 c 128,-1,29
 1395 1100 1395 1100 1379 1083.5 c 128,-1,30
 1363 1067 1363 1067 1357.5 1038 c 128,-1,31
 1352 1009 1352 1009 1352 963 c 2,32,-1
 1352 190 l 2,33,34
 1352 143 1352 143 1357.5 114.5 c 128,-1,35
 1363 86 1363 86 1379 69 c 128,-1,36
 1395 52 1395 52 1424 44.5 c 128,-1,37
 1453 37 1453 37 1501 33 c 1,38,-1
 1501 0 l 1,39,-1
 1016 0 l 1,40,-1
 1016 33 l 1,41,42
 1067 37 1067 37 1098 44.5 c 128,-1,43
 1129 52 1129 52 1146 70 c 128,-1,44
 1163 88 1163 88 1168.5 121 c 128,-1,45
 1174 154 1174 154 1174 209 c 2,46,-1
 1174 997 l 1,47,-1
 727 0 l 1,48,-1
 702 0 l 1,0,-1
EndSplineSet
EndChar

StartChar: N
Encoding: 78 78 40
Width: 1257
Flags: W
LayerCount: 2
Fore
SplineSet
266 938 m 1,0,-1
 266 256 l 2,1,2
 266 190 266 190 273 148.5 c 128,-1,3
 280 107 280 107 298 82.5 c 128,-1,4
 316 58 316 58 348 47.5 c 128,-1,5
 380 37 380 37 430 33 c 1,6,-1
 430 0 l 1,7,-1
 20 0 l 1,8,-1
 20 33 l 1,9,10
 75 37 75 37 108.5 47 c 128,-1,11
 142 57 142 57 160 81 c 128,-1,12
 178 105 178 105 184 146.5 c 128,-1,13
 190 188 190 188 190 256 c 2,14,-1
 190 1024 l 1,15,16
 163 1055 163 1055 143.5 1073.5 c 128,-1,17
 124 1092 124 1092 106 1102 c 128,-1,18
 88 1112 88 1112 68 1115 c 128,-1,19
 48 1118 48 1118 20 1118 c 1,20,-1
 20 1153 l 1,21,-1
 319 1153 l 1,22,-1
 989 309 l 1,23,-1
 989 897 l 2,24,25
 989 967 989 967 982 1008.5 c 128,-1,26
 975 1050 975 1050 956.5 1073.5 c 128,-1,27
 938 1097 938 1097 905 1105.5 c 128,-1,28
 872 1114 872 1114 821 1118 c 1,29,-1
 821 1153 l 1,30,-1
 1231 1153 l 1,31,-1
 1231 1118 l 1,32,33
 1205 1116 1205 1116 1187.5 1113.5 c 128,-1,34
 1170 1111 1170 1111 1157 1107.5 c 128,-1,35
 1144 1104 1144 1104 1134.5 1099 c 128,-1,36
 1125 1094 1125 1094 1116 1087 c 0,37,38
 1065 1055 1065 1055 1065 897 c 2,39,-1
 1065 -20 l 1,40,-1
 1036 -20 l 1,41,-1
 266 938 l 1,0,-1
EndSplineSet
EndChar

StartChar: O
Encoding: 79 79 41
Width: 1257
Flags: W
LayerCount: 2
Fore
SplineSet
629 1176 m 0,0,1
 746 1176 746 1176 849.5 1134.5 c 128,-1,2
 953 1093 953 1093 1030.5 1014.5 c 128,-1,3
 1108 936 1108 936 1153 823.5 c 128,-1,4
 1198 711 1198 711 1198 569 c 0,5,6
 1198 437 1198 437 1155.5 327.5 c 128,-1,7
 1113 218 1113 218 1036.5 140 c 128,-1,8
 960 62 960 62 853.5 18.5 c 128,-1,9
 747 -25 747 -25 618 -25 c 0,10,11
 560 -25 560 -25 503.5 -12.5 c 128,-1,12
 447 0 447 0 394.5 23 c 128,-1,13
 342 46 342 46 295 79 c 128,-1,14
 248 112 248 112 209 154 c 0,15,16
 137 232 137 232 98 341.5 c 128,-1,17
 59 451 59 451 59 575 c 0,18,19
 59 707 59 707 101 817.5 c 128,-1,20
 143 928 143 928 218.5 1007.5 c 128,-1,21
 294 1087 294 1087 399 1131.5 c 128,-1,22
 504 1176 504 1176 629 1176 c 0,0,1
629 1114 m 0,23,24
 479 1114 479 1114 379 1001 c 0,25,26
 322 936 322 936 290 823.5 c 128,-1,27
 258 711 258 711 258 573 c 0,28,29
 258 501 258 501 268.5 433 c 128,-1,30
 279 365 279 365 298 306 c 128,-1,31
 317 247 317 247 344.5 200 c 128,-1,32
 372 153 372 153 406 123 c 0,33,34
 454 81 454 81 509.5 60 c 128,-1,35
 565 39 565 39 625 39 c 0,36,37
 764 39 764 39 856 131 c 0,38,39
 918 193 918 193 942 258 c 0,40,41
 955 292 955 292 965.5 330.5 c 128,-1,42
 976 369 976 369 983.5 409.5 c 128,-1,43
 991 450 991 450 995 491 c 128,-1,44
 999 532 999 532 999 571 c 0,45,46
 999 703 999 703 971.5 804.5 c 128,-1,47
 944 906 944 906 894.5 975 c 128,-1,48
 845 1044 845 1044 777.5 1079 c 128,-1,49
 710 1114 710 1114 629 1114 c 0,23,24
EndSplineSet
EndChar

StartChar: P
Encoding: 80 80 42
Width: 969
Flags: W
LayerCount: 2
Fore
SplineSet
352 190 m 2,0,1
 352 142 352 142 358 112.5 c 128,-1,2
 364 83 364 83 381.5 66 c 128,-1,3
 399 49 399 49 431 42 c 128,-1,4
 463 35 463 35 514 33 c 1,5,-1
 514 0 l 1,6,-1
 29 0 l 1,7,-1
 29 33 l 1,8,9
 78 37 78 37 107 44.5 c 128,-1,10
 136 52 136 52 151 70 c 128,-1,11
 166 88 166 88 170 121 c 128,-1,12
 174 154 174 154 174 209 c 2,13,-1
 174 963 l 2,14,15
 174 1009 174 1009 169 1038 c 128,-1,16
 164 1067 164 1067 148.5 1083.5 c 128,-1,17
 133 1100 133 1100 104.5 1107 c 128,-1,18
 76 1114 76 1114 29 1118 c 1,19,-1
 29 1153 l 1,20,-1
 487 1153 l 2,21,22
 548 1153 548 1153 606.5 1144 c 128,-1,23
 665 1135 665 1135 715 1118 c 128,-1,24
 765 1101 765 1101 805.5 1077.5 c 128,-1,25
 846 1054 846 1054 872 1026 c 0,26,27
 908 989 908 989 925 941 c 128,-1,28
 942 893 942 893 942 838 c 0,29,30
 942 750 942 750 898.5 676 c 128,-1,31
 855 602 855 602 776 559 c 0,32,33
 745 544 745 544 713.5 533 c 128,-1,34
 682 522 682 522 646 515 c 128,-1,35
 610 508 610 508 567.5 505 c 128,-1,36
 525 502 525 502 471 502 c 0,37,38
 439 502 439 502 411.5 502.5 c 128,-1,39
 384 503 384 503 352 508 c 1,40,-1
 352 190 l 2,0,1
352 575 m 1,41,42
 383 573 383 573 404 572 c 128,-1,43
 425 571 425 571 451 571 c 0,44,45
 754 571 754 571 754 827 c 0,46,47
 754 963 754 963 671 1025 c 128,-1,48
 588 1087 588 1087 412 1087 c 0,49,50
 377 1087 377 1087 364.5 1076 c 128,-1,51
 352 1065 352 1065 352 1028 c 2,52,-1
 352 575 l 1,41,42
EndSplineSet
EndChar

StartChar: Q
Encoding: 81 81 43
Width: 1257
Flags: W
LayerCount: 2
Fore
SplineSet
1221 -307 m 1,0,1
 1208 -309 1208 -309 1201.5 -309 c 128,-1,2
 1195 -309 1195 -309 1190 -309 c 0,3,4
 961 -309 961 -309 800.5 -259 c 128,-1,5
 640 -209 640 -209 543 -98 c 2,6,-1
 463 -2 l 1,7,8
 415 15 415 15 380.5 30.5 c 128,-1,9
 346 46 346 46 317.5 63 c 128,-1,10
 289 80 289 80 264.5 100 c 128,-1,11
 240 120 240 120 213 147 c 0,12,13
 136 232 136 232 97.5 337.5 c 128,-1,14
 59 443 59 443 59 573 c 0,15,16
 59 706 59 706 101 817 c 128,-1,17
 143 928 143 928 218.5 1007.5 c 128,-1,18
 294 1087 294 1087 399 1131.5 c 128,-1,19
 504 1176 504 1176 629 1176 c 0,20,21
 752 1176 752 1176 856.5 1131.5 c 128,-1,22
 961 1087 961 1087 1037 1007.5 c 128,-1,23
 1113 928 1113 928 1155.5 817.5 c 128,-1,24
 1198 707 1198 707 1198 575 c 0,25,26
 1198 285 1198 285 1004 111 c 0,27,28
 972 84 972 84 944 64.5 c 128,-1,29
 916 45 916 45 886 30.5 c 128,-1,30
 856 16 856 16 821 6 c 128,-1,31
 786 -4 786 -4 741 -12 c 1,32,33
 793 -81 793 -81 847 -130.5 c 128,-1,34
 901 -180 901 -180 959.5 -211.5 c 128,-1,35
 1018 -243 1018 -243 1082.5 -258.5 c 128,-1,36
 1147 -274 1147 -274 1221 -276 c 1,37,-1
 1221 -307 l 1,0,1
633 1114 m 0,38,39
 557 1114 557 1114 495 1086 c 128,-1,40
 433 1058 433 1058 379 1001 c 0,41,42
 352 972 352 972 329.5 926.5 c 128,-1,43
 307 881 307 881 291.5 825.5 c 128,-1,44
 276 770 276 770 267 707.5 c 128,-1,45
 258 645 258 645 258 584 c 0,46,47
 258 449 258 449 285 347 c 128,-1,48
 312 245 312 245 360.5 176.5 c 128,-1,49
 409 108 409 108 477.5 73.5 c 128,-1,50
 546 39 546 39 629 39 c 0,51,52
 701 39 701 39 765 67.5 c 128,-1,53
 829 96 829 96 879 150 c 0,54,55
 906 180 906 180 928 226.5 c 128,-1,56
 950 273 950 273 965.5 330 c 128,-1,57
 981 387 981 387 990 451 c 128,-1,58
 999 515 999 515 999 580 c 0,59,60
 999 705 999 705 971 804 c 128,-1,61
 943 903 943 903 894 972 c 128,-1,62
 845 1041 845 1041 778 1077.5 c 128,-1,63
 711 1114 711 1114 633 1114 c 0,38,39
EndSplineSet
EndChar

StartChar: R
Encoding: 82 82 44
Width: 1161
Flags: W
LayerCount: 2
Fore
SplineSet
866 0 m 1,0,-1
 453 537 l 1,1,-1
 354 537 l 1,2,-1
 354 190 l 2,3,4
 354 143 354 143 359.5 114.5 c 128,-1,5
 365 86 365 86 382 69 c 128,-1,6
 399 52 399 52 430 44.5 c 128,-1,7
 461 37 461 37 512 33 c 1,8,-1
 512 0 l 1,9,-1
 31 0 l 1,10,-1
 31 33 l 1,11,12
 79 37 79 37 108 44.5 c 128,-1,13
 137 52 137 52 152.5 70 c 128,-1,14
 168 88 168 88 173 121 c 128,-1,15
 178 154 178 154 178 209 c 2,16,-1
 178 963 l 2,17,18
 178 1008 178 1008 173 1036.5 c 128,-1,19
 168 1065 168 1065 152.5 1082 c 128,-1,20
 137 1099 137 1099 108 1106.5 c 128,-1,21
 79 1114 79 1114 31 1118 c 1,22,-1
 31 1153 l 1,23,-1
 510 1153 l 2,24,25
 728 1153 728 1153 840 1073.5 c 128,-1,26
 952 994 952 994 952 846 c 0,27,28
 952 783 952 783 929 731.5 c 128,-1,29
 906 680 906 680 864 645 c 0,30,31
 842 629 842 629 820 615.5 c 128,-1,32
 798 602 798 602 772 591 c 128,-1,33
 746 580 746 580 713.5 571 c 128,-1,34
 681 562 681 562 637 555 c 1,35,-1
 995 115 l 2,36,37
 1013 92 1013 92 1030 77.5 c 128,-1,38
 1047 63 1047 63 1065 54 c 128,-1,39
 1083 45 1083 45 1103 40 c 128,-1,40
 1123 35 1123 35 1147 33 c 1,41,-1
 1147 0 l 1,42,-1
 866 0 l 1,0,-1
354 598 m 1,43,44
 418 598 418 598 462.5 600.5 c 128,-1,45
 507 603 507 603 541.5 609.5 c 128,-1,46
 576 616 576 616 604.5 627 c 128,-1,47
 633 638 633 638 664 655 c 0,48,49
 712 681 712 681 737 731.5 c 128,-1,50
 762 782 762 782 762 850 c 0,51,52
 762 974 762 974 684 1030.5 c 128,-1,53
 606 1087 606 1087 444 1087 c 0,54,55
 391 1087 391 1087 372.5 1074 c 128,-1,56
 354 1061 354 1061 354 1024 c 2,57,-1
 354 598 l 1,43,44
EndSplineSet
EndChar

StartChar: S
Encoding: 83 83 45
Width: 969
Flags: W
LayerCount: 2
Fore
SplineSet
772 807 m 1,0,1
 762 844 762 844 752 872.5 c 128,-1,2
 742 901 742 901 730 924 c 128,-1,3
 718 947 718 947 702.5 967.5 c 128,-1,4
 687 988 687 988 666 1010 c 0,5,6
 618 1059 618 1059 566.5 1082.5 c 128,-1,7
 515 1106 515 1106 455 1106 c 0,8,9
 414 1106 414 1106 380.5 1094 c 128,-1,10
 347 1082 347 1082 323.5 1060 c 128,-1,11
 300 1038 300 1038 287 1008 c 128,-1,12
 274 978 274 978 274 942 c 0,13,14
 274 907 274 907 288 875 c 128,-1,15
 302 843 302 843 333 810.5 c 128,-1,16
 364 778 364 778 412.5 744 c 128,-1,17
 461 710 461 710 530 672 c 0,18,19
 616 625 616 625 677.5 580 c 128,-1,20
 739 535 739 535 778 488.5 c 128,-1,21
 817 442 817 442 835.5 394 c 128,-1,22
 854 346 854 346 854 293 c 0,23,24
 854 225 854 225 827 167 c 128,-1,25
 800 109 800 109 752.5 66.5 c 128,-1,26
 705 24 705 24 640.5 -0.5 c 128,-1,27
 576 -25 576 -25 500 -25 c 0,28,29
 446 -25 446 -25 395 -14.5 c 128,-1,30
 344 -4 344 -4 295 14 c 0,31,32
 267 25 267 25 247 30 c 128,-1,33
 227 35 227 35 213 35 c 0,34,35
 193 35 193 35 179.5 18.5 c 128,-1,36
 166 2 166 2 164 -23 c 1,37,-1
 125 -23 l 1,38,-1
 74 346 l 1,39,-1
 113 346 l 1,40,41
 179 186 179 186 263.5 112.5 c 128,-1,42
 348 39 348 39 465 39 c 0,43,44
 513 39 513 39 552.5 53 c 128,-1,45
 592 67 592 67 620.5 93 c 128,-1,46
 649 119 649 119 664.5 155 c 128,-1,47
 680 191 680 191 680 236 c 0,48,49
 680 266 680 266 673 291.5 c 128,-1,50
 666 317 666 317 653 336 c 0,51,52
 621 387 621 387 555 438.5 c 128,-1,53
 489 490 489 490 395 541 c 0,54,55
 322 579 322 579 270.5 616.5 c 128,-1,56
 219 654 219 654 186 694.5 c 128,-1,57
 153 735 153 735 138 780.5 c 128,-1,58
 123 826 123 826 123 879 c 0,59,60
 123 1015 123 1015 215 1096 c 0,61,62
 260 1134 260 1134 314.5 1155 c 128,-1,63
 369 1176 369 1176 426 1176 c 0,64,65
 511 1176 511 1176 608 1139 c 0,66,67
 633 1128 633 1128 652.5 1123 c 128,-1,68
 672 1118 672 1118 686 1118 c 0,69,70
 732 1118 732 1118 741 1176 c 1,71,-1
 778 1176 l 1,72,-1
 817 807 l 1,73,-1
 772 807 l 1,0,1
EndSplineSet
EndChar

StartChar: T
Encoding: 84 84 46
Width: 1063
Flags: W
LayerCount: 2
Fore
SplineSet
348 1079 m 1,0,1
 276 1079 276 1079 229.5 1071.5 c 128,-1,2
 183 1064 183 1064 153 1040 c 128,-1,3
 123 1016 123 1016 105 972 c 128,-1,4
 87 928 87 928 72 856 c 1,5,-1
 31 856 l 1,6,-1
 31 1153 l 1,7,-1
 1022 1153 l 1,8,-1
 1022 856 l 1,9,-1
 989 856 l 1,10,11
 975 928 975 928 958 972 c 128,-1,12
 941 1016 941 1016 911.5 1040 c 128,-1,13
 882 1064 882 1064 835 1071.5 c 128,-1,14
 788 1079 788 1079 715 1079 c 2,15,-1
 621 1079 l 1,16,-1
 621 190 l 2,17,18
 621 141 621 141 627 111.5 c 128,-1,19
 633 82 633 82 650.5 66 c 128,-1,20
 668 50 668 50 700.5 43.5 c 128,-1,21
 733 37 733 37 786 33 c 1,22,-1
 786 0 l 1,23,-1
 279 0 l 1,24,-1
 279 33 l 1,25,26
 333 37 333 37 365.5 43.5 c 128,-1,27
 398 50 398 50 415 68 c 128,-1,28
 432 86 432 86 437 119 c 128,-1,29
 442 152 442 152 442 209 c 2,30,-1
 442 1079 l 1,31,-1
 348 1079 l 1,32,-1
 348 1079 l 1,0,1
EndSplineSet
EndChar

StartChar: U
Encoding: 85 85 47
Width: 1257
Flags: W
LayerCount: 2
Fore
SplineSet
1063 442 m 1,0,1
 1063 391 1063 391 1060 350 c 128,-1,2
 1057 309 1057 309 1050.5 274.5 c 128,-1,3
 1044 240 1044 240 1033 211 c 128,-1,4
 1022 182 1022 182 1006 156 c 0,5,6
 901 -25 901 -25 618 -25 c 0,7,8
 396 -25 396 -25 288 84 c 128,-1,9
 180 193 180 193 180 420 c 2,10,-1
 180 963 l 2,11,12
 180 1011 180 1011 175 1040 c 128,-1,13
 170 1069 170 1069 154 1085 c 128,-1,14
 138 1101 138 1101 107 1107.5 c 128,-1,15
 76 1114 76 1114 25 1118 c 1,16,-1
 25 1153 l 1,17,-1
 516 1153 l 1,18,-1
 516 1118 l 1,19,20
 464 1114 464 1114 432.5 1107 c 128,-1,21
 401 1100 401 1100 384.5 1083.5 c 128,-1,22
 368 1067 368 1067 363 1038 c 128,-1,23
 358 1009 358 1009 358 963 c 2,24,-1
 358 406 l 2,25,26
 358 324 358 324 368 270.5 c 128,-1,27
 378 217 378 217 401 176 c 0,28,29
 472 51 472 51 657 51 c 0,30,31
 705 51 705 51 750.5 60.5 c 128,-1,32
 796 70 796 70 834 88 c 128,-1,33
 872 106 872 106 901 132 c 128,-1,34
 930 158 930 158 946 190 c 0,35,36
 969 229 969 229 978 283.5 c 128,-1,37
 987 338 987 338 987 426 c 2,38,-1
 987 897 l 2,39,40
 987 962 987 962 981 1003.5 c 128,-1,41
 975 1045 975 1045 957 1069 c 128,-1,42
 939 1093 939 1093 907 1103.5 c 128,-1,43
 875 1114 875 1114 823 1118 c 1,44,-1
 823 1153 l 1,45,-1
 1227 1153 l 1,46,-1
 1227 1118 l 1,47,48
 1174 1112 1174 1112 1141.5 1101.5 c 128,-1,49
 1109 1091 1109 1091 1091.5 1067.5 c 128,-1,50
 1074 1044 1074 1044 1068.5 1003.5 c 128,-1,51
 1063 963 1063 963 1063 897 c 2,52,-1
 1063 442 l 1,53,-1
 1063 442 l 1,0,1
EndSplineSet
EndChar

StartChar: V
Encoding: 86 86 48
Width: 1257
Flags: W
LayerCount: 2
Fore
SplineSet
1212 1118 m 1,0,1
 1181 1116 1181 1116 1160.5 1110 c 128,-1,2
 1140 1104 1140 1104 1123.5 1087.5 c 128,-1,3
 1107 1071 1107 1071 1091 1040 c 128,-1,4
 1075 1009 1075 1009 1053 956 c 2,5,-1
 666 -20 l 1,6,-1
 641 -20 l 1,7,-1
 213 938 l 2,8,9
 184 995 184 995 163.5 1030 c 128,-1,10
 143 1065 143 1065 123.5 1084.5 c 128,-1,11
 104 1104 104 1104 82 1111 c 128,-1,12
 60 1118 60 1118 29 1118 c 1,13,-1
 29 1153 l 1,14,-1
 492 1153 l 1,15,-1
 492 1118 l 1,16,17
 424 1116 424 1116 392 1105.5 c 128,-1,18
 360 1095 360 1095 360 1063 c 0,19,20
 360 1053 360 1053 363 1039 c 128,-1,21
 366 1025 366 1025 374 1002.5 c 128,-1,22
 382 980 382 980 396 947.5 c 128,-1,23
 410 915 410 915 432 868 c 2,24,-1
 694 281 l 1,25,-1
 950 920 l 2,26,27
 967 958 967 958 975 991 c 128,-1,28
 983 1024 983 1024 983 1047 c 0,29,30
 983 1065 983 1065 976.5 1077.5 c 128,-1,31
 970 1090 970 1090 955.5 1098.5 c 128,-1,32
 941 1107 941 1107 916.5 1111.5 c 128,-1,33
 892 1116 892 1116 856 1118 c 1,34,-1
 856 1153 l 1,35,-1
 1212 1153 l 1,36,-1
 1212 1118 l 1,37,-1
 1212 1118 l 1,0,1
EndSplineSet
EndChar

StartChar: W
Encoding: 87 87 49
Width: 1642
Flags: W
LayerCount: 2
Fore
SplineSet
1622 1118 m 1,0,1
 1587 1112 1587 1112 1564.5 1104.5 c 128,-1,2
 1542 1097 1542 1097 1527 1084 c 128,-1,3
 1512 1071 1512 1071 1501.5 1050 c 128,-1,4
 1491 1029 1491 1029 1479 995 c 0,5,6
 1444 899 1444 899 1415.5 822.5 c 128,-1,7
 1387 746 1387 746 1364 683.5 c 128,-1,8
 1341 621 1341 621 1322 568 c 128,-1,9
 1303 515 1303 515 1285 465.5 c 128,-1,10
 1267 416 1267 416 1250 366 c 128,-1,11
 1233 316 1233 316 1213.5 258.5 c 128,-1,12
 1194 201 1194 201 1172 133 c 128,-1,13
 1150 65 1150 65 1122 -20 c 1,14,-1
 1096 -20 l 1,15,-1
 819 717 l 1,16,-1
 551 -20 l 1,17,-1
 524 -20 l 1,18,-1
 188 915 l 2,19,20
 164 976 164 976 145.5 1014.5 c 128,-1,21
 127 1053 127 1053 107.5 1075 c 128,-1,22
 88 1097 88 1097 65 1106.5 c 128,-1,23
 42 1116 42 1116 8 1118 c 1,24,-1
 8 1153 l 1,25,-1
 434 1153 l 1,26,-1
 434 1118 l 1,27,28
 402 1116 402 1116 380.5 1113 c 128,-1,29
 359 1110 359 1110 346 1104 c 128,-1,30
 333 1098 333 1098 327.5 1088 c 128,-1,31
 322 1078 322 1078 322 1063 c 0,32,33
 322 1049 322 1049 326.5 1028.5 c 128,-1,34
 331 1008 331 1008 342 983 c 2,35,-1
 592 330 l 1,36,-1
 778 819 l 1,37,-1
 721 963 l 2,38,39
 699 1016 699 1016 683 1047 c 128,-1,40
 667 1078 667 1078 649 1093.5 c 128,-1,41
 631 1109 631 1109 607 1113.5 c 128,-1,42
 583 1118 583 1118 545 1118 c 1,43,-1
 545 1153 l 1,44,-1
 1010 1153 l 1,45,-1
 1010 1118 l 1,46,47
 937 1118 937 1118 905.5 1104 c 128,-1,48
 874 1090 874 1090 874 1059 c 0,49,50
 874 1034 874 1034 888 1001.5 c 128,-1,51
 902 969 902 969 922 918 c 2,52,-1
 1153 324 l 1,53,-1
 1370 913 l 2,54,55
 1384 951 1384 951 1391.5 984.5 c 128,-1,56
 1399 1018 1399 1018 1399 1044 c 0,57,58
 1399 1080 1399 1080 1372.5 1096 c 128,-1,59
 1346 1112 1346 1112 1278 1118 c 1,60,-1
 1278 1153 l 1,61,-1
 1622 1153 l 1,62,-1
 1622 1118 l 1,63,-1
 1622 1118 l 1,0,1
EndSplineSet
EndChar

StartChar: X
Encoding: 88 88 50
Width: 1257
Flags: W
LayerCount: 2
Fore
SplineSet
1210 1118 m 1,0,1
 1170 1116 1170 1116 1140 1110 c 128,-1,2
 1110 1104 1110 1104 1082 1087 c 128,-1,3
 1054 1070 1054 1070 1023.5 1038.5 c 128,-1,4
 993 1007 993 1007 952 954 c 2,5,-1
 698 639 l 1,6,-1
 1032 162 l 2,7,8
 1060 123 1060 123 1081 99.5 c 128,-1,9
 1102 76 1102 76 1122.5 62.5 c 128,-1,10
 1143 49 1143 49 1167.5 43 c 128,-1,11
 1192 37 1192 37 1227 33 c 1,12,-1
 1227 0 l 1,13,-1
 709 0 l 1,14,-1
 709 33 l 1,15,16
 726 35 726 35 738.5 36 c 128,-1,17
 751 37 751 37 756 37 c 0,18,19
 842 40 842 40 842 86 c 0,20,21
 842 130 842 130 754 258 c 2,22,-1
 588 502 l 1,23,-1
 383 244 l 2,24,25
 332 185 332 185 311.5 148 c 128,-1,26
 291 111 291 111 291 94 c 256,27,28
 291 77 291 77 297 67 c 128,-1,29
 303 57 303 57 318 50.5 c 128,-1,30
 333 44 333 44 359 40.5 c 128,-1,31
 385 37 385 37 424 33 c 1,32,-1
 424 0 l 1,33,-1
 16 0 l 1,34,-1
 16 33 l 1,35,36
 50 36 50 36 72 41 c 128,-1,37
 94 46 94 46 118.5 65 c 128,-1,38
 143 84 143 84 177 122.5 c 128,-1,39
 211 161 211 161 268 231 c 2,40,-1
 543 567 l 1,41,-1
 354 846 l 2,42,43
 289 935 289 935 248 988.5 c 128,-1,44
 207 1042 207 1042 174.5 1071 c 128,-1,45
 142 1100 142 1100 111.5 1109 c 128,-1,46
 81 1118 81 1118 39 1118 c 1,47,-1
 39 1153 l 1,48,-1
 563 1153 l 1,49,-1
 563 1118 l 1,50,-1
 514 1118 l 2,51,52
 471 1116 471 1116 451.5 1104.5 c 128,-1,53
 432 1093 432 1093 432 1067 c 0,54,55
 432 1052 432 1052 440.5 1030.5 c 128,-1,56
 449 1009 449 1009 467 978 c 128,-1,57
 485 947 485 947 513 905 c 128,-1,58
 541 863 541 863 580 807 c 2,59,-1
 653 702 l 1,60,-1
 850 942 l 2,61,62
 887 992 887 992 903.5 1019 c 128,-1,63
 920 1046 920 1046 920 1063 c 0,64,65
 920 1078 920 1078 914.5 1088 c 128,-1,66
 909 1098 909 1098 894.5 1104.5 c 128,-1,67
 880 1111 880 1111 856.5 1114 c 128,-1,68
 833 1117 833 1117 797 1118 c 1,69,-1
 797 1153 l 1,70,-1
 1210 1153 l 1,71,-1
 1210 1118 l 1,72,-1
 1210 1118 l 1,0,1
EndSplineSet
EndChar

StartChar: Y
Encoding: 89 89 51
Width: 1257
Flags: W
LayerCount: 2
Fore
SplineSet
1225 1118 m 1,0,1
 1190 1116 1190 1116 1163.5 1106 c 128,-1,2
 1137 1096 1137 1096 1110.5 1074 c 128,-1,3
 1084 1052 1084 1052 1054 1015.5 c 128,-1,4
 1024 979 1024 979 983 922 c 2,5,-1
 725 528 l 1,6,-1
 725 190 l 2,7,8
 725 140 725 140 731.5 110 c 128,-1,9
 738 80 738 80 757.5 63.5 c 128,-1,10
 777 47 777 47 812.5 41 c 128,-1,11
 848 35 848 35 905 33 c 1,12,-1
 905 0 l 1,13,-1
 373 0 l 1,14,-1
 373 33 l 1,15,16
 432 37 432 37 467 43 c 128,-1,17
 502 49 502 49 520 67 c 128,-1,18
 538 85 538 85 543.5 118 c 128,-1,19
 549 151 549 151 549 209 c 2,20,-1
 549 512 l 1,21,-1
 319 846 l 2,22,23
 256 937 256 937 216 991 c 128,-1,24
 176 1045 176 1045 146.5 1073.5 c 128,-1,25
 117 1102 117 1102 93 1110 c 128,-1,26
 69 1118 69 1118 39 1118 c 1,27,-1
 39 1153 l 1,28,-1
 524 1153 l 1,29,-1
 524 1118 l 1,30,31
 462 1116 462 1116 431.5 1107 c 128,-1,32
 401 1098 401 1098 401 1067 c 0,33,34
 401 1053 401 1053 409.5 1032.5 c 128,-1,35
 418 1012 418 1012 432 989 c 2,36,-1
 688 604 l 1,37,-1
 938 997 l 2,38,39
 950 1017 950 1017 956.5 1033 c 128,-1,40
 963 1049 963 1049 963 1063 c 0,41,42
 963 1094 963 1094 936.5 1106 c 128,-1,43
 910 1118 910 1118 842 1118 c 1,44,-1
 842 1153 l 1,45,-1
 1225 1153 l 1,46,-1
 1225 1118 l 1,47,-1
 1225 1118 l 1,0,1
EndSplineSet
EndChar

StartChar: Z
Encoding: 90 90 52
Width: 1063
Flags: W
LayerCount: 2
Fore
SplineSet
997 0 m 1,0,-1
 14 0 l 1,1,-1
 14 27 l 1,2,-1
 776 1085 l 1,3,-1
 391 1085 l 2,4,5
 216 1085 216 1085 158 1012 c 0,6,7
 147 997 147 997 138.5 983 c 128,-1,8
 130 969 130 969 123.5 951.5 c 128,-1,9
 117 934 117 934 110.5 911 c 128,-1,10
 104 888 104 888 98 854 c 1,11,-1
 53 854 l 1,12,-1
 88 1153 l 1,13,-1
 1006 1153 l 1,14,-1
 1006 1126 l 1,15,-1
 252 66 l 1,16,-1
 700 66 l 2,17,18
 852 66 852 66 918 133 c 0,19,20
 929 149 929 149 939 164.5 c 128,-1,21
 949 180 949 180 959 199 c 128,-1,22
 969 218 969 218 978.5 243.5 c 128,-1,23
 988 269 988 269 999 305 c 1,24,-1
 1040 305 l 1,25,-1
 997 0 l 1,0,-1
EndSplineSet
EndChar

StartChar: bracketleft
Encoding: 91 91 53
Width: 580
Flags: W
LayerCount: 2
Fore
SplineSet
154 -270 m 1,0,-1
 154 1153 l 1,1,-1
 520 1153 l 1,2,-1
 520 1110 l 1,3,-1
 365 1110 l 2,4,5
 321 1110 321 1110 304 1092 c 128,-1,6
 287 1074 287 1074 287 1032 c 2,7,-1
 287 -137 l 2,8,9
 287 -227 287 -227 371 -227 c 2,10,-1
 520 -227 l 1,11,-1
 520 -270 l 1,12,-1
 154 -270 l 1,0,-1
EndSplineSet
EndChar

StartChar: backslash
Encoding: 92 92 54
Width: 424
Flags: W
LayerCount: 2
Fore
SplineSet
377 -92 m 1,0,-1
 307 -92 l 1,1,-1
 43 1118 l 1,2,-1
 111 1118 l 1,3,-1
 377 -92 l 1,0,-1
EndSplineSet
EndChar

StartChar: bracketright
Encoding: 93 93 55
Width: 580
Flags: W
LayerCount: 2
Fore
SplineSet
215 -227 m 1,0,1
 257 -227 257 -227 276 -210.5 c 128,-1,2
 295 -194 295 -194 295 -152 c 2,3,-1
 295 1018 l 2,4,5
 295 1110 295 1110 209 1110 c 2,6,-1
 59 1110 l 1,7,-1
 59 1153 l 1,8,-1
 426 1153 l 1,9,-1
 426 -270 l 1,10,-1
 59 -270 l 1,11,-1
 59 -227 l 1,12,-1
 215 -227 l 1,13,-1
 215 -227 l 1,0,1
EndSplineSet
EndChar

StartChar: asciicircum
Encoding: 94 94 56
Width: 817
Flags: W
LayerCount: 2
Fore
SplineSet
356 1153 m 1,0,-1
 463 1153 l 1,1,-1
 776 516 l 1,2,-1
 657 516 l 1,3,-1
 410 1020 l 1,4,-1
 160 516 l 1,5,-1
 43 516 l 1,6,-1
 356 1153 l 1,0,-1
EndSplineSet
EndChar

StartChar: underscore
Encoding: 95 95 57
Width: 870
Flags: W
LayerCount: 2
Fore
SplineSet
0 -131 m 1,0,-1
 870 -131 l 1,1,-1
 870 -217 l 1,2,-1
 0 -217 l 1,3,-1
 0 -131 l 1,0,-1
EndSplineSet
EndChar

StartChar: grave
Encoding: 96 96 58
Width: 580
Flags: W
LayerCount: 2
Fore
SplineSet
84 1051 m 2,0,1
 33 1085 33 1085 33 1126 c 0,2,3
 33 1151 33 1151 49.5 1166.5 c 128,-1,4
 66 1182 66 1182 92 1182 c 0,5,6
 111 1182 111 1182 126 1173 c 128,-1,7
 141 1164 141 1164 166 1141 c 2,8,-1
 422 883 l 1,9,-1
 352 883 l 1,10,-1
 84 1051 l 2,0,1
EndSplineSet
EndChar

StartChar: a
Encoding: 97 97 59
Width: 772
Flags: W
LayerCount: 2
Fore
SplineSet
768 70 m 1,0,1
 746 44 746 44 728 27 c 128,-1,2
 710 10 710 10 692 0.5 c 128,-1,3
 674 -9 674 -9 655 -12.5 c 128,-1,4
 636 -16 636 -16 612 -16 c 0,5,6
 558 -16 558 -16 533 12.5 c 128,-1,7
 508 41 508 41 502 111 c 1,8,9
 461 76 461 76 427 52 c 128,-1,10
 393 28 393 28 363 13 c 128,-1,11
 333 -2 333 -2 305 -9 c 128,-1,12
 277 -16 277 -16 248 -16 c 0,13,14
 207 -16 207 -16 173.5 -2.5 c 128,-1,15
 140 11 140 11 116 35.5 c 128,-1,16
 92 60 92 60 79 94 c 128,-1,17
 66 128 66 128 66 170 c 0,18,19
 66 213 66 213 82 254 c 128,-1,20
 98 295 98 295 127 319 c 0,21,22
 144 336 144 336 160 350 c 128,-1,23
 176 364 176 364 195.5 376 c 128,-1,24
 215 388 215 388 240 400.5 c 128,-1,25
 265 413 265 413 300.5 428 c 128,-1,26
 336 443 336 443 384.5 462.5 c 128,-1,27
 433 482 433 482 500 508 c 1,28,-1
 500 614 l 2,29,30
 500 687 500 687 465 723.5 c 128,-1,31
 430 760 430 760 367 760 c 0,32,33
 341 760 341 760 318 753 c 128,-1,34
 295 746 295 746 278 734.5 c 128,-1,35
 261 723 261 723 251.5 707.5 c 128,-1,36
 242 692 242 692 242 674 c 0,37,38
 242 667 242 667 243.5 657 c 128,-1,39
 245 647 245 647 247 637 c 128,-1,40
 249 627 249 627 250.5 618 c 128,-1,41
 252 609 252 609 252 604 c 0,42,43
 252 589 252 589 245.5 576 c 128,-1,44
 239 563 239 563 227.5 552.5 c 128,-1,45
 216 542 216 542 201.5 536 c 128,-1,46
 187 530 187 530 172 530 c 256,47,48
 157 530 157 530 144 536 c 128,-1,49
 131 542 131 542 120.5 552.5 c 128,-1,50
 110 563 110 563 104 577 c 128,-1,51
 98 591 98 591 98 606 c 0,52,53
 98 647 98 647 120.5 682.5 c 128,-1,54
 143 718 143 718 182 744.5 c 128,-1,55
 221 771 221 771 274 786 c 128,-1,56
 327 801 327 801 389 801 c 0,57,58
 547 801 547 801 606 705 c 0,59,60
 625 674 625 674 633 632 c 128,-1,61
 641 590 641 590 641 522 c 2,62,-1
 641 182 l 2,63,64
 641 125 641 125 652 103.5 c 128,-1,65
 663 82 663 82 692 82 c 0,66,67
 712 82 712 82 728.5 89 c 128,-1,68
 745 96 745 96 768 115 c 1,69,-1
 768 70 l 1,0,1
500 467 m 1,70,71
 422 438 422 438 368.5 411.5 c 128,-1,72
 315 385 315 385 281 356.5 c 128,-1,73
 247 328 247 328 232 295.5 c 128,-1,74
 217 263 217 263 217 223 c 2,75,-1
 217 217 l 2,76,77
 217 189 217 189 225.5 165 c 128,-1,78
 234 141 234 141 249 123 c 128,-1,79
 264 105 264 105 284.5 94.5 c 128,-1,80
 305 84 305 84 328 84 c 0,81,82
 352 84 352 84 388 94 c 128,-1,83
 424 104 424 104 455 123 c 1,84,85
 483 135 483 135 491.5 155.5 c 128,-1,86
 500 176 500 176 500 213 c 2,87,-1
 500 467 l 1,70,71
EndSplineSet
EndChar

StartChar: b
Encoding: 98 98 60
Width: 870
Flags: W
LayerCount: 2
Fore
SplineSet
266 653 m 1,0,1
 278 684 278 684 303 711.5 c 128,-1,2
 328 739 328 739 360 758.5 c 128,-1,3
 392 778 392 778 430.5 789.5 c 128,-1,4
 469 801 469 801 508 801 c 0,5,6
 574 801 574 801 630 772 c 128,-1,7
 686 743 686 743 726.5 692.5 c 128,-1,8
 767 642 767 642 790 573 c 128,-1,9
 813 504 813 504 813 424 c 0,10,11
 813 330 813 330 782 249.5 c 128,-1,12
 751 169 751 169 696.5 110 c 128,-1,13
 642 51 642 51 568 17.5 c 128,-1,14
 494 -16 494 -16 408 -16 c 0,15,16
 355 -16 355 -16 303.5 -6.5 c 128,-1,17
 252 3 252 3 211.5 18.5 c 128,-1,18
 171 34 171 34 146 53.5 c 128,-1,19
 121 73 121 73 121 94 c 2,20,-1
 121 997 l 2,21,22
 121 1025 121 1025 117.5 1042.5 c 128,-1,23
 114 1060 114 1060 104 1069.5 c 128,-1,24
 94 1079 94 1079 77.5 1082 c 128,-1,25
 61 1085 61 1085 35 1085 c 2,26,-1
 4 1085 l 1,27,-1
 4 1112 l 1,28,-1
 55 1126 l 2,29,30
 86 1135 86 1135 111 1142 c 128,-1,31
 136 1149 136 1149 159.5 1156.5 c 128,-1,32
 183 1164 183 1164 206 1172 c 128,-1,33
 229 1180 229 1180 258 1190 c 1,34,-1
 266 1186 l 1,35,-1
 266 653 l 1,0,1
266 123 m 2,36,37
 266 105 266 105 279.5 90 c 128,-1,38
 293 75 293 75 316 63.5 c 128,-1,39
 339 52 339 52 369.5 45.5 c 128,-1,40
 400 39 400 39 434 39 c 0,41,42
 546 39 546 39 604 116 c 128,-1,43
 662 193 662 193 662 342 c 0,44,45
 662 422 662 422 646.5 486.5 c 128,-1,46
 631 551 631 551 601.5 596 c 128,-1,47
 572 641 572 641 530.5 665.5 c 128,-1,48
 489 690 489 690 438 690 c 0,49,50
 404 690 404 690 373 679.5 c 128,-1,51
 342 669 342 669 318 651.5 c 128,-1,52
 294 634 294 634 280 610 c 128,-1,53
 266 586 266 586 266 559 c 2,54,-1
 266 123 l 2,36,37
EndSplineSet
EndChar

StartChar: c
Encoding: 99 99 61
Width: 772
Flags: W
LayerCount: 2
Fore
SplineSet
717 256 m 1,0,1
 697 218 697 218 680.5 189 c 128,-1,2
 664 160 664 160 649 137.5 c 128,-1,3
 634 115 634 115 619 98 c 128,-1,4
 604 81 604 81 586 66 c 0,5,6
 535 22 535 22 485 3 c 128,-1,7
 435 -16 435 -16 375 -16 c 0,8,9
 302 -16 302 -16 241 12.5 c 128,-1,10
 180 41 180 41 136 92 c 128,-1,11
 92 143 92 143 67.5 214 c 128,-1,12
 43 285 43 285 43 371 c 0,13,14
 43 474 43 474 77.5 559.5 c 128,-1,15
 112 645 112 645 178 702 c 0,16,17
 289 801 289 801 426 801 c 0,18,19
 480 801 480 801 528 786.5 c 128,-1,20
 576 772 576 772 612.5 747.5 c 128,-1,21
 649 723 649 723 670.5 690.5 c 128,-1,22
 692 658 692 658 692 621 c 0,23,24
 692 592 692 592 667.5 570.5 c 128,-1,25
 643 549 643 549 608 549 c 0,26,27
 583 549 583 549 561 570.5 c 128,-1,28
 539 592 539 592 528 629 c 2,29,-1
 516 666 l 1,30,31
 508 715 508 715 484 733.5 c 128,-1,32
 460 752 460 752 414 752 c 0,33,34
 361 752 361 752 318 729.5 c 128,-1,35
 275 707 275 707 243.5 666.5 c 128,-1,36
 212 626 212 626 195 570 c 128,-1,37
 178 514 178 514 178 446 c 0,38,39
 178 372 178 372 198 310 c 128,-1,40
 218 248 218 248 253.5 203.5 c 128,-1,41
 289 159 289 159 338 134 c 128,-1,42
 387 109 387 109 446 109 c 0,43,44
 484 109 484 109 515.5 117.5 c 128,-1,45
 547 126 547 126 576 144.5 c 128,-1,46
 605 163 605 163 633 194 c 128,-1,47
 661 225 661 225 692 270 c 1,48,-1
 717 256 l 1,49,-1
 717 256 l 1,0,1
EndSplineSet
EndChar

StartChar: d
Encoding: 100 100 62
Width: 870
Flags: W
LayerCount: 2
Fore
SplineSet
592 98 m 1,0,1
 549 36 549 36 496 10 c 128,-1,2
 443 -16 443 -16 369 -16 c 0,3,4
 297 -16 297 -16 238 11 c 128,-1,5
 179 38 179 38 136.5 86.5 c 128,-1,6
 94 135 94 135 70.5 203.5 c 128,-1,7
 47 272 47 272 47 356 c 0,8,9
 47 450 47 450 75.5 531 c 128,-1,10
 104 612 104 612 153 672 c 128,-1,11
 202 732 202 732 268.5 766.5 c 128,-1,12
 335 801 335 801 410 801 c 0,13,14
 459 801 459 801 501.5 785 c 128,-1,15
 544 769 544 769 592 725 c 1,16,-1
 592 997 l 2,17,18
 592 1024 592 1024 589 1041 c 128,-1,19
 586 1058 586 1058 577 1068 c 128,-1,20
 568 1078 568 1078 552.5 1081.5 c 128,-1,21
 537 1085 537 1085 512 1085 c 2,22,-1
 473 1085 l 1,23,-1
 473 1112 l 1,24,25
 515 1124 515 1124 548.5 1133.5 c 128,-1,26
 582 1143 582 1143 612 1151 c 128,-1,27
 642 1159 642 1159 670 1168.5 c 128,-1,28
 698 1178 698 1178 729 1190 c 1,29,-1
 737 1186 l 1,30,-1
 737 199 l 2,31,32
 737 165 737 165 741 145 c 128,-1,33
 745 125 745 125 755.5 114.5 c 128,-1,34
 766 104 766 104 784.5 101 c 128,-1,35
 803 98 803 98 831 98 c 0,36,37
 836 98 836 98 841 98 c 128,-1,38
 846 98 846 98 854 100 c 1,39,-1
 854 74 l 1,40,-1
 598 -16 l 1,41,-1
 592 -12 l 1,42,-1
 592 98 l 1,0,1
592 578 m 2,43,44
 592 612 592 612 577 643.5 c 128,-1,45
 562 675 562 675 537.5 699 c 128,-1,46
 513 723 513 723 480.5 737.5 c 128,-1,47
 448 752 448 752 414 752 c 0,48,49
 365 752 365 752 325 729 c 128,-1,50
 285 706 285 706 256.5 663.5 c 128,-1,51
 228 621 228 621 212.5 561 c 128,-1,52
 197 501 197 501 197 426 c 0,53,54
 197 345 197 345 214.5 280 c 128,-1,55
 232 215 232 215 263.5 169.5 c 128,-1,56
 295 124 295 124 339 99 c 128,-1,57
 383 74 383 74 436 74 c 0,58,59
 515 74 515 74 563 125 c 0,60,61
 576 139 576 139 584 154.5 c 128,-1,62
 592 170 592 170 592 178 c 2,63,-1
 592 578 l 2,43,44
EndSplineSet
EndChar

StartChar: e
Encoding: 101 101 63
Width: 772
Flags: W
LayerCount: 2
Fore
SplineSet
737 274 m 1,0,1
 682 128 682 128 589.5 56 c 128,-1,2
 497 -16 497 -16 369 -16 c 0,3,4
 294 -16 294 -16 233.5 10.5 c 128,-1,5
 173 37 173 37 130.5 87.5 c 128,-1,6
 88 138 88 138 65.5 210 c 128,-1,7
 43 282 43 282 43 373 c 0,8,9
 43 472 43 472 71.5 551 c 128,-1,10
 100 630 100 630 149.5 685.5 c 128,-1,11
 199 741 199 741 265.5 771 c 128,-1,12
 332 801 332 801 408 801 c 0,13,14
 476 801 476 801 534.5 775.5 c 128,-1,15
 593 750 593 750 631 700 c 0,16,17
 646 681 646 681 657.5 660 c 128,-1,18
 669 639 669 639 678.5 613.5 c 128,-1,19
 688 588 688 588 694.5 555.5 c 128,-1,20
 701 523 701 523 705 481 c 1,21,-1
 170 481 l 1,22,23
 172 386 172 386 193 314.5 c 128,-1,24
 214 243 214 243 249.5 196 c 128,-1,25
 285 149 285 149 333.5 125.5 c 128,-1,26
 382 102 382 102 440 102 c 0,27,28
 481 102 481 102 517 112 c 128,-1,29
 553 122 553 122 586 144 c 128,-1,30
 619 166 619 166 649.5 201 c 128,-1,31
 680 236 680 236 711 287 c 1,32,-1
 737 274 l 1,0,1
528 539 m 1,33,34
 518 596 518 596 505.5 634 c 128,-1,35
 493 672 493 672 473.5 695 c 128,-1,36
 454 718 454 718 426 727.5 c 128,-1,37
 398 737 398 737 356 737 c 0,38,39
 276 737 276 737 231 689.5 c 128,-1,40
 186 642 186 642 172 539 c 1,41,-1
 528 539 l 1,33,34
EndSplineSet
EndChar

StartChar: f
Encoding: 102 102 64
Width: 580
Flags: W
LayerCount: 2
Fore
SplineSet
326 727 m 1,0,-1
 326 180 l 2,1,2
 326 132 326 132 331.5 102.5 c 128,-1,3
 337 73 337 73 354 57 c 128,-1,4
 371 41 371 41 402.5 35 c 128,-1,5
 434 29 434 29 487 27 c 1,6,-1
 487 0 l 1,7,-1
 35 0 l 1,8,-1
 35 27 l 1,9,10
 83 29 83 29 111 36 c 128,-1,11
 139 43 139 43 154 59.5 c 128,-1,12
 169 76 169 76 173.5 105 c 128,-1,13
 178 134 178 134 178 180 c 2,14,-1
 178 727 l 1,15,-1
 37 727 l 1,16,-1
 37 784 l 1,17,-1
 178 784 l 1,18,19
 180 836 180 836 184 875 c 128,-1,20
 188 914 188 914 195 946 c 128,-1,21
 202 978 202 978 213 1005.5 c 128,-1,22
 224 1033 224 1033 242 1063 c 0,23,24
 277 1123 277 1123 340.5 1156.5 c 128,-1,25
 404 1190 404 1190 485 1190 c 0,26,27
 525 1190 525 1190 558.5 1182 c 128,-1,28
 592 1174 592 1174 616 1159.5 c 128,-1,29
 640 1145 640 1145 653 1125 c 128,-1,30
 666 1105 666 1105 666 1081 c 0,31,32
 666 1050 666 1050 644.5 1030 c 128,-1,33
 623 1010 623 1010 594 1010 c 0,34,35
 571 1010 571 1010 554 1024 c 128,-1,36
 537 1038 537 1038 514 1073 c 0,37,38
 491 1110 491 1110 470.5 1125.5 c 128,-1,39
 450 1141 450 1141 424 1141 c 0,40,41
 373 1141 373 1141 348.5 1100.5 c 128,-1,42
 324 1060 324 1060 324 985 c 2,43,-1
 324 784 l 1,44,-1
 539 784 l 1,45,-1
 539 727 l 1,46,-1
 326 727 l 1,0,-1
EndSplineSet
EndChar

StartChar: g
Encoding: 103 103 65
Width: 870
Flags: W
LayerCount: 2
Fore
SplineSet
674 676 m 1,0,1
 692 634 692 634 699.5 601 c 128,-1,2
 707 568 707 568 707 530 c 0,3,4
 707 464 707 464 687.5 417 c 128,-1,5
 668 370 668 370 623 332 c 0,6,7
 575 294 575 294 524.5 276 c 128,-1,8
 474 258 474 258 420 258 c 0,9,10
 406 258 406 258 385.5 260 c 128,-1,11
 365 262 365 262 336 268 c 1,12,13
 318 262 318 262 299.5 249.5 c 128,-1,14
 281 237 281 237 266 221 c 128,-1,15
 251 205 251 205 241 188.5 c 128,-1,16
 231 172 231 172 231 158 c 0,17,18
 231 117 231 117 367 111 c 2,19,-1
 592 100 l 2,20,21
 689 95 689 95 746 45.5 c 128,-1,22
 803 -4 803 -4 803 -86 c 0,23,24
 803 -136 803 -136 780.5 -177 c 128,-1,25
 758 -218 758 -218 707 -260 c 0,26,27
 635 -319 635 -319 542 -349 c 128,-1,28
 449 -379 449 -379 350 -379 c 0,29,30
 288 -379 288 -379 233 -365.5 c 128,-1,31
 178 -352 178 -352 137 -329.5 c 128,-1,32
 96 -307 96 -307 71.5 -276.5 c 128,-1,33
 47 -246 47 -246 47 -211 c 0,34,35
 47 -186 47 -186 56.5 -162.5 c 128,-1,36
 66 -139 66 -139 87 -113.5 c 128,-1,37
 108 -88 108 -88 140.5 -60 c 128,-1,38
 173 -32 173 -32 219 2 c 1,39,40
 165 28 165 28 146 48 c 128,-1,41
 127 68 127 68 127 94 c 0,42,43
 127 116 127 116 134.5 131.5 c 128,-1,44
 142 147 142 147 160 166.5 c 128,-1,45
 178 186 178 186 208 213 c 128,-1,46
 238 240 238 240 283 285 c 1,47,48
 239 306 239 306 208.5 330 c 128,-1,49
 178 354 178 354 158.5 381.5 c 128,-1,50
 139 409 139 409 130 442 c 128,-1,51
 121 475 121 475 121 516 c 0,52,53
 121 577 121 577 143.5 629.5 c 128,-1,54
 166 682 166 682 206 720 c 128,-1,55
 246 758 246 758 300 779.5 c 128,-1,56
 354 801 354 801 416 801 c 0,57,58
 448 801 448 801 481 793 c 128,-1,59
 514 785 514 785 551 774 c 2,60,-1
 588 762 l 2,61,62
 614 751 614 751 636 747 c 128,-1,63
 658 743 658 743 684 743 c 2,64,-1
 819 743 l 1,65,-1
 819 676 l 1,66,-1
 674 676 l 1,0,1
256 -2 m 1,67,68
 230 -37 230 -37 213 -59 c 128,-1,69
 196 -81 196 -81 186.5 -96.5 c 128,-1,70
 177 -112 177 -112 173.5 -125 c 128,-1,71
 170 -138 170 -138 170 -154 c 0,72,73
 170 -182 170 -182 188 -205.5 c 128,-1,74
 206 -229 206 -229 239.5 -245.5 c 128,-1,75
 273 -262 273 -262 320 -271.5 c 128,-1,76
 367 -281 367 -281 426 -281 c 0,77,78
 499 -281 499 -281 559.5 -269 c 128,-1,79
 620 -257 620 -257 663 -235 c 128,-1,80
 706 -213 706 -213 730 -181.5 c 128,-1,81
 754 -150 754 -150 754 -111 c 0,82,83
 754 -87 754 -87 742.5 -71 c 128,-1,84
 731 -55 731 -55 705.5 -45 c 128,-1,85
 680 -35 680 -35 639 -31 c 128,-1,86
 598 -27 598 -27 539 -27 c 0,87,88
 507 -27 507 -27 466.5 -25.5 c 128,-1,89
 426 -24 426 -24 386.5 -20.5 c 128,-1,90
 347 -17 347 -17 312 -12.5 c 128,-1,91
 277 -8 277 -8 256 -2 c 1,67,68
264 584 m 2,92,93
 264 521 264 521 277 469 c 128,-1,94
 290 417 290 417 314 380.5 c 128,-1,95
 338 344 338 344 370.5 323.5 c 128,-1,96
 403 303 403 303 442 303 c 0,97,98
 502 303 502 303 537.5 345 c 128,-1,99
 573 387 573 387 573 463 c 0,100,101
 573 512 573 512 559 568.5 c 128,-1,102
 545 625 545 625 520 670 c 0,103,104
 500 708 500 708 467.5 730 c 128,-1,105
 435 752 435 752 393 752 c 0,106,107
 333 752 333 752 298.5 709 c 128,-1,108
 264 666 264 666 264 588 c 2,109,-1
 264 584 l 2,92,93
EndSplineSet
EndChar

StartChar: h
Encoding: 104 104 66
Width: 870
Flags: W
LayerCount: 2
Fore
SplineSet
274 178 m 1,0,1
 274 133 274 133 278 105 c 128,-1,2
 282 77 282 77 295 61 c 128,-1,3
 308 45 308 45 330.5 38 c 128,-1,4
 353 31 353 31 391 27 c 1,5,-1
 391 0 l 1,6,-1
 14 0 l 1,7,-1
 14 27 l 1,8,9
 52 31 52 31 74.5 37.5 c 128,-1,10
 97 44 97 44 108.5 60 c 128,-1,11
 120 76 120 76 123.5 104 c 128,-1,12
 127 132 127 132 127 178 c 2,13,-1
 127 997 l 2,14,15
 127 1025 127 1025 123.5 1042.5 c 128,-1,16
 120 1060 120 1060 110.5 1069.5 c 128,-1,17
 101 1079 101 1079 84 1082 c 128,-1,18
 67 1085 67 1085 39 1085 c 2,19,-1
 16 1085 l 1,20,-1
 16 1112 l 1,21,-1
 66 1126 l 2,22,23
 101 1137 101 1137 128.5 1145.5 c 128,-1,24
 156 1154 156 1154 179 1161 c 128,-1,25
 202 1168 202 1168 222.5 1175 c 128,-1,26
 243 1182 243 1182 264 1190 c 1,27,-1
 274 1184 l 1,28,-1
 274 653 l 1,29,30
 303 693 303 693 332.5 721 c 128,-1,31
 362 749 362 749 393 767 c 128,-1,32
 424 785 424 785 458 793 c 128,-1,33
 492 801 492 801 530 801 c 0,34,35
 743 801 743 801 743 524 c 2,36,-1
 743 178 l 2,37,38
 743 133 743 133 746 106.5 c 128,-1,39
 749 80 749 80 759.5 64 c 128,-1,40
 770 48 770 48 791 40.5 c 128,-1,41
 812 33 812 33 848 27 c 1,42,-1
 848 0 l 1,43,-1
 479 0 l 1,44,-1
 479 27 l 1,45,46
 517 31 517 31 540.5 38 c 128,-1,47
 564 45 564 45 576.5 61 c 128,-1,48
 589 77 589 77 593.5 105 c 128,-1,49
 598 133 598 133 598 178 c 2,50,-1
 598 522 l 2,51,52
 598 707 598 707 467 707 c 0,53,54
 441 707 441 707 417.5 701 c 128,-1,55
 394 695 394 695 371 682 c 128,-1,56
 348 669 348 669 324.5 648 c 128,-1,57
 301 627 301 627 274 598 c 1,58,-1
 274 178 l 1,59,-1
 274 178 l 1,0,1
EndSplineSet
EndChar

StartChar: i
Encoding: 105 105 67
Width: 483
Flags: W
LayerCount: 2
Fore
SplineSet
311 178 m 2,0,1
 311 131 311 131 315 102.5 c 128,-1,2
 319 74 319 74 332.5 58 c 128,-1,3
 346 42 346 42 371.5 35.5 c 128,-1,4
 397 29 397 29 440 27 c 1,5,-1
 440 0 l 1,6,-1
 29 0 l 1,7,-1
 29 27 l 1,8,9
 74 29 74 29 101.5 35.5 c 128,-1,10
 129 42 129 42 143 58 c 128,-1,11
 157 74 157 74 161.5 102.5 c 128,-1,12
 166 131 166 131 166 178 c 2,13,-1
 166 582 l 2,14,15
 166 639 166 639 153 662.5 c 128,-1,16
 140 686 140 686 109 686 c 0,17,18
 96 684 96 684 81 683 c 128,-1,19
 66 682 66 682 47 682 c 2,20,-1
 35 680 l 1,21,-1
 35 705 l 1,22,-1
 303 801 l 1,23,-1
 311 797 l 1,24,-1
 311 178 l 2,0,1
223 1190 m 0,25,26
 260 1190 260 1190 286.5 1163.5 c 128,-1,27
 313 1137 313 1137 313 1100 c 0,28,29
 313 1081 313 1081 306 1065 c 128,-1,30
 299 1049 299 1049 286.5 1037 c 128,-1,31
 274 1025 274 1025 257.5 1018.5 c 128,-1,32
 241 1012 241 1012 223 1012 c 0,33,34
 186 1012 186 1012 160.5 1037.5 c 128,-1,35
 135 1063 135 1063 135 1100 c 0,36,37
 135 1118 135 1118 142 1134.5 c 128,-1,38
 149 1151 149 1151 161 1163.5 c 128,-1,39
 173 1176 173 1176 189 1183 c 128,-1,40
 205 1190 205 1190 223 1190 c 0,25,26
EndSplineSet
EndChar

StartChar: j
Encoding: 106 106 68
Width: 483
Flags: W
LayerCount: 2
Fore
SplineSet
336 0 m 2,0,1
 336 -379 336 -379 43 -379 c 0,2,3
 8 -379 8 -379 -22.5 -372 c 128,-1,4
 -53 -365 -53 -365 -75.5 -352.5 c 128,-1,5
 -98 -340 -98 -340 -110.5 -323 c 128,-1,6
 -123 -306 -123 -306 -123 -285 c 0,7,8
 -123 -256 -123 -256 -101.5 -235.5 c 128,-1,9
 -80 -215 -80 -215 -49 -215 c 0,10,11
 -29 -215 -29 -215 -10.5 -228 c 128,-1,12
 8 -241 8 -241 33 -270 c 0,13,14
 56 -299 56 -299 71 -309 c 128,-1,15
 86 -319 86 -319 106 -319 c 0,16,17
 123 -319 123 -319 140.5 -310 c 128,-1,18
 158 -301 158 -301 166 -289 c 0,19,20
 173 -276 173 -276 177.5 -260.5 c 128,-1,21
 182 -245 182 -245 185 -221 c 128,-1,22
 188 -197 188 -197 189 -163 c 128,-1,23
 190 -129 190 -129 190 -78 c 2,24,-1
 190 582 l 2,25,26
 190 639 190 639 177 662.5 c 128,-1,27
 164 686 164 686 133 686 c 0,28,29
 121 686 121 686 102.5 684 c 128,-1,30
 84 682 84 682 66 682 c 2,31,-1
 55 680 l 1,32,-1
 55 707 l 1,33,34
 94 719 94 719 126.5 729.5 c 128,-1,35
 159 740 159 740 190.5 751 c 128,-1,36
 222 762 222 762 255.5 774 c 128,-1,37
 289 786 289 786 328 801 c 1,38,-1
 336 797 l 1,39,-1
 336 0 l 2,0,1
248 1190 m 0,40,41
 285 1190 285 1190 311.5 1163.5 c 128,-1,42
 338 1137 338 1137 338 1100 c 256,43,44
 338 1063 338 1063 311.5 1037.5 c 128,-1,45
 285 1012 285 1012 248 1012 c 256,46,47
 211 1012 211 1012 185.5 1037.5 c 128,-1,48
 160 1063 160 1063 160 1100 c 0,49,50
 160 1118 160 1118 167 1134.5 c 128,-1,51
 174 1151 174 1151 186 1163.5 c 128,-1,52
 198 1176 198 1176 214 1183 c 128,-1,53
 230 1190 230 1190 248 1190 c 0,40,41
EndSplineSet
EndChar

StartChar: k
Encoding: 107 107 69
Width: 870
Flags: W
LayerCount: 2
Fore
SplineSet
66 1126 m 2,0,1
 103 1135 103 1135 132.5 1143 c 128,-1,2
 162 1151 162 1151 186.5 1159 c 128,-1,3
 211 1167 211 1167 234 1174.5 c 128,-1,4
 257 1182 257 1182 283 1190 c 1,5,-1
 289 1186 l 1,6,-1
 289 455 l 1,7,-1
 528 666 l 2,8,9
 547 683 547 683 557 698.5 c 128,-1,10
 567 714 567 714 567 725 c 0,11,12
 567 745 567 745 548.5 751.5 c 128,-1,13
 530 758 530 758 479 760 c 1,14,-1
 479 784 l 1,15,-1
 836 784 l 1,16,-1
 836 758 l 1,17,-1
 821 758 l 2,18,19
 798 758 798 758 778 755.5 c 128,-1,20
 758 753 758 753 741 748 c 0,21,22
 699 735 699 735 627 680 c 128,-1,23
 555 625 555 625 461 539 c 2,24,-1
 410 492 l 1,25,-1
 676 154 l 2,26,27
 703 121 703 121 727.5 98 c 128,-1,28
 752 75 752 75 776 60 c 128,-1,29
 800 45 800 45 825 37 c 128,-1,30
 850 29 850 29 879 27 c 1,31,-1
 879 0 l 1,32,-1
 500 0 l 1,33,-1
 500 27 l 1,34,-1
 532 27 l 2,35,36
 549 27 549 27 559 33.5 c 128,-1,37
 569 40 569 40 569 51 c 0,38,39
 569 59 569 59 565.5 67.5 c 128,-1,40
 562 76 562 76 551 88 c 0,41,42
 543 96 543 96 539 104 c 2,43,-1
 289 436 l 1,44,-1
 289 117 l 2,45,46
 289 69 289 69 310 50 c 128,-1,47
 331 31 331 31 385 29 c 2,48,-1
 420 27 l 1,49,-1
 420 0 l 1,50,-1
 12 0 l 1,51,-1
 12 27 l 1,52,53
 59 35 59 35 85.5 41.5 c 128,-1,54
 112 48 112 48 124.5 59 c 128,-1,55
 137 70 137 70 140 89 c 128,-1,56
 143 108 143 108 143 143 c 2,57,-1
 143 981 l 2,58,59
 143 1013 143 1013 139.5 1033.5 c 128,-1,60
 136 1054 136 1054 127 1066 c 128,-1,61
 118 1078 118 1078 103.5 1082.5 c 128,-1,62
 89 1087 89 1087 68 1087 c 0,63,64
 54 1087 54 1087 41.5 1086 c 128,-1,65
 29 1085 29 1085 12 1085 c 1,66,-1
 12 1112 l 1,67,-1
 66 1126 l 2,0,1
EndSplineSet
EndChar

StartChar: l
Encoding: 108 108 70
Width: 483
Flags: W
LayerCount: 2
Fore
SplineSet
33 1112 m 1,0,1
 78 1124 78 1124 114 1133.5 c 128,-1,2
 150 1143 150 1143 182.5 1151 c 128,-1,3
 215 1159 215 1159 245.5 1168.5 c 128,-1,4
 276 1178 276 1178 309 1190 c 1,5,-1
 317 1186 l 1,6,-1
 317 145 l 2,7,8
 317 110 317 110 322 88.5 c 128,-1,9
 327 67 327 67 341 54 c 128,-1,10
 355 41 355 41 380 35 c 128,-1,11
 405 29 405 29 446 27 c 1,12,-1
 446 0 l 1,13,-1
 37 0 l 1,14,-1
 37 27 l 1,15,16
 77 29 77 29 103 36 c 128,-1,17
 129 43 129 43 144 57.5 c 128,-1,18
 159 72 159 72 164.5 95 c 128,-1,19
 170 118 170 118 170 152 c 2,20,-1
 170 981 l 2,21,22
 170 1042 170 1042 155 1064.5 c 128,-1,23
 140 1087 140 1087 98 1087 c 0,24,25
 86 1087 86 1087 71.5 1086 c 128,-1,26
 57 1085 57 1085 43 1085 c 2,27,-1
 33 1085 l 1,28,-1
 33 1112 l 1,29,-1
 33 1112 l 1,0,1
EndSplineSet
EndChar

StartChar: m
Encoding: 109 109 71
Width: 1354
Flags: W
LayerCount: 2
Fore
SplineSet
33 723 m 1,0,1
 69 730 69 730 99.5 738.5 c 128,-1,2
 130 747 130 747 158.5 757 c 128,-1,3
 187 767 187 767 215.5 778 c 128,-1,4
 244 789 244 789 276 801 c 1,5,-1
 289 797 l 1,6,-1
 289 666 l 1,7,8
 343 707 343 707 381.5 733.5 c 128,-1,9
 420 760 420 760 449.5 775 c 128,-1,10
 479 790 479 790 504 795.5 c 128,-1,11
 529 801 529 801 557 801 c 0,12,13
 631 801 631 801 675.5 765 c 128,-1,14
 720 729 720 729 743 653 c 1,15,16
 813 732 813 732 882 766.5 c 128,-1,17
 951 801 951 801 1026 801 c 0,18,19
 1229 801 1229 801 1229 492 c 2,20,-1
 1229 133 l 2,21,22
 1229 79 1229 79 1247.5 56 c 128,-1,23
 1266 33 1266 33 1305 31 c 2,24,-1
 1350 27 l 1,25,-1
 1350 0 l 1,26,-1
 969 0 l 1,27,-1
 969 27 l 1,28,29
 1006 31 1006 31 1028.5 37 c 128,-1,30
 1051 43 1051 43 1063 56 c 128,-1,31
 1075 69 1075 69 1079 92 c 128,-1,32
 1083 115 1083 115 1083 152 c 2,33,-1
 1083 518 l 2,34,35
 1083 571 1083 571 1076 607.5 c 128,-1,36
 1069 644 1069 644 1053.5 667 c 128,-1,37
 1038 690 1038 690 1013 700.5 c 128,-1,38
 988 711 988 711 952 711 c 0,39,40
 892 711 892 711 846 686 c 128,-1,41
 800 661 800 661 762 604 c 1,42,-1
 762 166 l 2,43,44
 762 126 762 126 767.5 99 c 128,-1,45
 773 72 773 72 787.5 56 c 128,-1,46
 802 40 802 40 826 33.5 c 128,-1,47
 850 27 850 27 887 27 c 1,48,-1
 887 0 l 1,49,-1
 498 0 l 1,50,-1
 498 27 l 1,51,52
 535 29 535 29 558 35 c 128,-1,53
 581 41 581 41 594 54.5 c 128,-1,54
 607 68 607 68 611.5 91 c 128,-1,55
 616 114 616 114 616 150 c 2,56,-1
 616 528 l 2,57,58
 616 711 616 711 502 711 c 0,59,60
 452 711 452 711 404 690.5 c 128,-1,61
 356 670 356 670 322 641 c 0,62,63
 311 633 311 633 304 621.5 c 128,-1,64
 297 610 297 610 297 608 c 2,65,-1
 297 117 l 2,66,67
 297 91 297 91 302.5 74 c 128,-1,68
 308 57 308 57 321 46.5 c 128,-1,69
 334 36 334 36 356.5 31.5 c 128,-1,70
 379 27 379 27 414 27 c 1,71,-1
 414 0 l 1,72,-1
 29 0 l 1,73,-1
 29 27 l 1,74,75
 65 27 65 27 88.5 33 c 128,-1,76
 112 39 112 39 125.5 53 c 128,-1,77
 139 67 139 67 144.5 90 c 128,-1,78
 150 113 150 113 150 147 c 2,79,-1
 150 588 l 2,80,81
 150 651 150 651 136.5 675.5 c 128,-1,82
 123 700 123 700 88 700 c 0,83,84
 74 700 74 700 62 698.5 c 128,-1,85
 50 697 50 697 33 692 c 1,86,-1
 33 723 l 1,87,-1
 33 723 l 1,0,1
EndSplineSet
EndChar

StartChar: n
Encoding: 110 110 72
Width: 870
Flags: W
LayerCount: 2
Fore
SplineSet
29 723 m 1,0,1
 65 734 65 734 94.5 743 c 128,-1,2
 124 752 124 752 152 760.5 c 128,-1,3
 180 769 180 769 208 779 c 128,-1,4
 236 789 236 789 268 801 c 1,5,-1
 281 797 l 1,6,-1
 281 659 l 1,7,8
 324 701 324 701 358 728.5 c 128,-1,9
 392 756 392 756 420.5 772 c 128,-1,10
 449 788 449 788 475.5 794.5 c 128,-1,11
 502 801 502 801 532 801 c 0,12,13
 632 801 632 801 684.5 733.5 c 128,-1,14
 737 666 737 666 737 541 c 2,15,-1
 737 141 l 2,16,17
 737 109 737 109 741.5 88.5 c 128,-1,18
 746 68 746 68 758 55 c 128,-1,19
 770 42 770 42 791 35.5 c 128,-1,20
 812 29 812 29 844 27 c 1,21,-1
 844 0 l 1,22,-1
 481 0 l 1,23,-1
 481 27 l 1,24,25
 514 29 514 29 535.5 36.5 c 128,-1,26
 557 44 557 44 569.5 60.5 c 128,-1,27
 582 77 582 77 587 104 c 128,-1,28
 592 131 592 131 592 172 c 2,29,-1
 592 537 l 2,30,31
 592 625 592 625 560 665 c 128,-1,32
 528 705 528 705 465 705 c 0,33,34
 443 705 443 705 424 700.5 c 128,-1,35
 405 696 405 696 385 684.5 c 128,-1,36
 365 673 365 673 341.5 654 c 128,-1,37
 318 635 318 635 287 606 c 1,38,-1
 287 117 l 2,39,40
 287 94 287 94 292 77.5 c 128,-1,41
 297 61 297 61 310 50.5 c 128,-1,42
 323 40 323 40 344.5 34.5 c 128,-1,43
 366 29 366 29 399 27 c 1,44,-1
 399 0 l 1,45,-1
 31 0 l 1,46,-1
 31 27 l 1,47,48
 64 29 64 29 85 36 c 128,-1,49
 106 43 106 43 118 57.5 c 128,-1,50
 130 72 130 72 134.5 96 c 128,-1,51
 139 120 139 120 139 156 c 2,52,-1
 139 588 l 2,53,54
 139 651 139 651 125 675.5 c 128,-1,55
 111 700 111 700 76 700 c 0,56,57
 62 700 62 700 49.5 698.5 c 128,-1,58
 37 697 37 697 29 692 c 1,59,-1
 29 723 l 1,60,-1
 29 723 l 1,0,1
EndSplineSet
EndChar

StartChar: o
Encoding: 111 111 73
Width: 870
Flags: W
LayerCount: 2
Fore
SplineSet
434 801 m 256,0,1
 518 801 518 801 588.5 771 c 128,-1,2
 659 741 659 741 710 688.5 c 128,-1,3
 761 636 761 636 790 564 c 128,-1,4
 819 492 819 492 819 408 c 0,5,6
 819 317 819 317 789.5 239.5 c 128,-1,7
 760 162 760 162 708 105 c 128,-1,8
 656 48 656 48 585 16 c 128,-1,9
 514 -16 514 -16 432 -16 c 0,10,11
 349 -16 349 -16 279 15 c 128,-1,12
 209 46 209 46 158 100.5 c 128,-1,13
 107 155 107 155 78 230 c 128,-1,14
 49 305 49 305 49 393 c 0,15,16
 49 483 49 483 78 558 c 128,-1,17
 107 633 107 633 158 687 c 128,-1,18
 209 741 209 741 279.5 771 c 128,-1,19
 350 801 350 801 434 801 c 256,0,1
412 752 m 0,20,21
 366 752 366 752 328 732.5 c 128,-1,22
 290 713 290 713 263 677 c 128,-1,23
 236 641 236 641 221.5 590.5 c 128,-1,24
 207 540 207 540 207 479 c 0,25,26
 207 398 207 398 222 317.5 c 128,-1,27
 237 237 237 237 267.5 173.5 c 128,-1,28
 298 110 298 110 344.5 70.5 c 128,-1,29
 391 31 391 31 453 31 c 0,30,31
 502 31 502 31 541 52.5 c 128,-1,32
 580 74 580 74 607 115 c 128,-1,33
 634 156 634 156 648 214 c 128,-1,34
 662 272 662 272 662 346 c 0,35,36
 662 436 662 436 643.5 510.5 c 128,-1,37
 625 585 625 585 591.5 639 c 128,-1,38
 558 693 558 693 512 722.5 c 128,-1,39
 466 752 466 752 412 752 c 0,20,21
EndSplineSet
EndChar

StartChar: p
Encoding: 112 112 74
Width: 870
Flags: W
LayerCount: 2
Fore
SplineSet
14 713 m 1,0,1
 51 723 51 723 82 732.5 c 128,-1,2
 113 742 113 742 142 752.5 c 128,-1,3
 171 763 171 763 201 774.5 c 128,-1,4
 231 786 231 786 266 801 c 1,5,-1
 276 797 l 1,6,-1
 276 664 l 1,7,8
 336 736 336 736 394.5 768.5 c 128,-1,9
 453 801 453 801 528 801 c 0,10,11
 591 801 591 801 644.5 773.5 c 128,-1,12
 698 746 698 746 736.5 697 c 128,-1,13
 775 648 775 648 797 579.5 c 128,-1,14
 819 511 819 511 819 430 c 0,15,16
 819 335 819 335 790.5 253.5 c 128,-1,17
 762 172 762 172 712.5 112 c 128,-1,18
 663 52 663 52 596 18 c 128,-1,19
 529 -16 529 -16 453 -16 c 0,20,21
 425 -16 425 -16 403 -12.5 c 128,-1,22
 381 -9 381 -9 360.5 -1 c 128,-1,23
 340 7 340 7 320 21.5 c 128,-1,24
 300 36 300 36 276 57 c 1,25,-1
 276 -215 l 2,26,27
 276 -256 276 -256 282 -281.5 c 128,-1,28
 288 -307 288 -307 304.5 -321.5 c 128,-1,29
 321 -336 321 -336 351.5 -341 c 128,-1,30
 382 -346 382 -346 430 -346 c 1,31,-1
 430 -377 l 1,32,-1
 8 -377 l 1,33,-1
 8 -348 l 1,34,35
 47 -344 47 -344 71 -337.5 c 128,-1,36
 95 -331 95 -331 108.5 -318 c 128,-1,37
 122 -305 122 -305 126.5 -283.5 c 128,-1,38
 131 -262 131 -262 131 -227 c 2,39,-1
 131 586 l 2,40,41
 131 622 131 622 127 642 c 128,-1,42
 123 662 123 662 112.5 672 c 128,-1,43
 102 682 102 682 82 684 c 128,-1,44
 62 686 62 686 31 686 c 0,45,46
 26 686 26 686 22.5 686 c 128,-1,47
 19 686 19 686 14 684 c 1,48,-1
 14 713 l 1,0,1
276 154 m 2,49,50
 276 133 276 133 292.5 112.5 c 128,-1,51
 309 92 309 92 335 75.5 c 128,-1,52
 361 59 361 59 394 49 c 128,-1,53
 427 39 427 39 459 39 c 0,54,55
 506 39 506 39 544.5 62.5 c 128,-1,56
 583 86 583 86 610.5 128.5 c 128,-1,57
 638 171 638 171 653 230.5 c 128,-1,58
 668 290 668 290 668 362 c 0,59,60
 668 437 668 437 653 499 c 128,-1,61
 638 561 638 561 610 604.5 c 128,-1,62
 582 648 582 648 542.5 672 c 128,-1,63
 503 696 503 696 455 696 c 0,64,65
 425 696 425 696 393.5 685.5 c 128,-1,66
 362 675 362 675 335.5 658.5 c 128,-1,67
 309 642 309 642 292.5 621.5 c 128,-1,68
 276 601 276 601 276 582 c 2,69,-1
 276 154 l 2,49,50
EndSplineSet
EndChar

StartChar: q
Encoding: 113 113 75
Width: 870
Flags: W
LayerCount: 2
Fore
SplineSet
739 797 m 1,0,-1
 739 -246 l 2,1,2
 739 -273 739 -273 743 -290 c 128,-1,3
 747 -307 747 -307 758.5 -319 c 128,-1,4
 770 -331 770 -331 792 -339 c 128,-1,5
 814 -347 814 -347 850 -354 c 1,6,-1
 850 -377 l 1,7,-1
 438 -377 l 1,8,-1
 438 -348 l 1,9,10
 484 -344 484 -344 514 -337 c 128,-1,11
 544 -330 544 -330 562 -316 c 128,-1,12
 580 -302 580 -302 587 -277.5 c 128,-1,13
 594 -253 594 -253 594 -215 c 2,14,-1
 594 111 l 1,15,16
 479 -16 479 -16 319 -16 c 0,17,18
 258 -16 258 -16 207 11.5 c 128,-1,19
 156 39 156 39 119.5 88 c 128,-1,20
 83 137 83 137 63 205.5 c 128,-1,21
 43 274 43 274 43 356 c 0,22,23
 43 450 43 450 72.5 532 c 128,-1,24
 102 614 102 614 153.5 674 c 128,-1,25
 205 734 205 734 275 768.5 c 128,-1,26
 345 803 345 803 426 803 c 0,27,28
 453 803 453 803 476.5 799.5 c 128,-1,29
 500 796 500 796 523.5 788.5 c 128,-1,30
 547 781 547 781 572 769 c 128,-1,31
 597 757 597 757 627 739 c 1,32,-1
 721 797 l 1,33,-1
 739 797 l 1,0,-1
594 580 m 2,34,35
 594 754 594 754 432 754 c 0,36,37
 377 754 377 754 332 730.5 c 128,-1,38
 287 707 287 707 255.5 663.5 c 128,-1,39
 224 620 224 620 207 558.5 c 128,-1,40
 190 497 190 497 190 420 c 0,41,42
 190 344 190 344 206.5 282.5 c 128,-1,43
 223 221 223 221 253 178 c 128,-1,44
 283 135 283 135 325.5 111.5 c 128,-1,45
 368 88 368 88 420 88 c 0,46,47
 462 88 462 88 500 103.5 c 128,-1,48
 538 119 538 119 569 143 c 0,49,50
 582 154 582 154 588 171.5 c 128,-1,51
 594 189 594 189 594 221 c 2,52,-1
 594 580 l 2,34,35
EndSplineSet
EndChar

StartChar: r
Encoding: 114 114 76
Width: 580
Flags: W
LayerCount: 2
Fore
SplineSet
12 707 m 1,0,1
 51 719 51 719 83 729.5 c 128,-1,2
 115 740 115 740 145 751 c 128,-1,3
 175 762 175 762 204.5 774 c 128,-1,4
 234 786 234 786 268 801 c 1,5,-1
 279 797 l 1,6,-1
 279 637 l 1,7,8
 312 682 312 682 338.5 713.5 c 128,-1,9
 365 745 365 745 389 764.5 c 128,-1,10
 413 784 413 784 436.5 792.5 c 128,-1,11
 460 801 460 801 487 801 c 0,12,13
 532 801 532 801 558 776.5 c 128,-1,14
 584 752 584 752 584 709 c 0,15,16
 584 671 584 671 565 651 c 128,-1,17
 546 631 546 631 514 631 c 0,18,19
 497 631 497 631 480.5 638.5 c 128,-1,20
 464 646 464 646 444 666 c 0,21,22
 430 678 430 678 421 684 c 128,-1,23
 412 690 412 690 399 690 c 0,24,25
 383 690 383 690 362 675.5 c 128,-1,26
 341 661 341 661 322.5 640 c 128,-1,27
 304 619 304 619 291.5 594.5 c 128,-1,28
 279 570 279 570 279 549 c 2,29,-1
 279 156 l 2,30,31
 279 119 279 119 286 95 c 128,-1,32
 293 71 293 71 309.5 56.5 c 128,-1,33
 326 42 326 42 354.5 35.5 c 128,-1,34
 383 29 383 29 426 27 c 1,35,-1
 426 0 l 1,36,-1
 8 0 l 1,37,-1
 8 27 l 1,38,39
 50 35 50 35 74.5 42 c 128,-1,40
 99 49 99 49 112 61 c 128,-1,41
 125 73 125 73 129 92.5 c 128,-1,42
 133 112 133 112 133 145 c 2,43,-1
 133 582 l 2,44,45
 133 639 133 639 119 662.5 c 128,-1,46
 105 686 105 686 74 686 c 0,47,48
 57 686 57 686 44 684 c 128,-1,49
 31 682 31 682 12 680 c 1,50,-1
 12 707 l 1,51,-1
 12 707 l 1,0,1
EndSplineSet
EndChar

StartChar: s
Encoding: 115 115 77
Width: 678
Flags: W
LayerCount: 2
Fore
SplineSet
522 547 m 1,0,1
 493 662 493 662 448.5 712 c 128,-1,2
 404 762 404 762 332 762 c 0,3,4
 270 762 270 762 233.5 728 c 128,-1,5
 197 694 197 694 197 643 c 0,6,7
 197 606 197 606 216 575 c 128,-1,8
 235 544 235 544 270 524 c 2,9,-1
 461 412 l 2,10,11
 536 367 536 367 571 318.5 c 128,-1,12
 606 270 606 270 606 207 c 0,13,14
 606 161 606 161 586.5 120.5 c 128,-1,15
 567 80 567 80 534 49.5 c 128,-1,16
 501 19 501 19 456 1.5 c 128,-1,17
 411 -16 411 -16 360 -16 c 0,18,19
 341 -16 341 -16 309.5 -11.5 c 128,-1,20
 278 -7 278 -7 246.5 -1 c 128,-1,21
 215 5 215 5 189 9.5 c 128,-1,22
 163 14 163 14 154 14 c 0,23,24
 137 14 137 14 130.5 10 c 128,-1,25
 124 6 124 6 113 -6 c 1,26,-1
 90 -6 l 1,27,-1
 90 264 l 1,28,-1
 119 264 l 1,29,30
 127 227 127 227 134.5 200 c 128,-1,31
 142 173 142 173 150.5 152 c 128,-1,32
 159 131 159 131 169 114 c 128,-1,33
 179 97 179 97 193 82 c 0,34,35
 217 53 217 53 256 36.5 c 128,-1,36
 295 20 295 20 340 20 c 0,37,38
 406 20 406 20 444.5 54 c 128,-1,39
 483 88 483 88 483 145 c 0,40,41
 483 225 483 225 393 276 c 2,42,-1
 293 334 l 2,43,44
 236 365 236 365 197 394 c 128,-1,45
 158 423 158 423 133.5 453.5 c 128,-1,46
 109 484 109 484 98.5 516.5 c 128,-1,47
 88 549 88 549 88 586 c 0,48,49
 88 633 88 633 106 672 c 128,-1,50
 124 711 124 711 155.5 739.5 c 128,-1,51
 187 768 187 768 230.5 783.5 c 128,-1,52
 274 799 274 799 326 799 c 0,53,54
 358 799 358 799 387.5 794 c 128,-1,55
 417 789 417 789 446 778 c 0,56,57
 474 766 474 766 492 766 c 0,58,59
 500 766 500 766 503 767 c 128,-1,60
 506 768 506 768 518 780 c 2,61,-1
 522 784 l 1,62,-1
 541 784 l 1,63,-1
 541 547 l 1,64,-1
 522 547 l 1,65,-1
 522 547 l 1,0,1
EndSplineSet
EndChar

StartChar: t
Encoding: 116 116 78
Width: 483
Flags: W
LayerCount: 2
Fore
SplineSet
268 727 m 1,0,-1
 268 229 l 2,1,2
 268 148 268 148 288.5 111 c 128,-1,3
 309 74 309 74 358 74 c 0,4,5
 387 74 387 74 412 87.5 c 128,-1,6
 437 101 437 101 463 133 c 1,7,-1
 485 115 l 1,8,9
 442 46 442 46 392.5 15 c 128,-1,10
 343 -16 343 -16 276 -16 c 0,11,12
 123 -16 123 -16 123 205 c 2,13,-1
 123 727 l 1,14,-1
 31 727 l 2,15,16
 23 730 23 730 23 739 c 0,17,18
 23 756 23 756 51 772 c 0,19,20
 62 776 62 776 80.5 792 c 128,-1,21
 99 808 99 808 122 833.5 c 128,-1,22
 145 859 145 859 170.5 891 c 128,-1,23
 196 923 196 923 221 958 c 0,24,25
 232 972 232 972 238.5 983.5 c 128,-1,26
 245 995 245 995 256 1008 c 1,27,28
 264 1008 264 1008 266 1003.5 c 128,-1,29
 268 999 268 999 268 985 c 2,30,-1
 268 784 l 1,31,-1
 444 784 l 1,32,-1
 444 727 l 1,33,-1
 268 727 l 1,0,-1
EndSplineSet
EndChar

StartChar: u
Encoding: 117 117 79
Width: 870
Flags: W
LayerCount: 2
Fore
SplineSet
834 63 m 1,0,1
 801 52 801 52 772 43.5 c 128,-1,2
 743 35 743 35 715 26 c 128,-1,3
 687 17 687 17 658 7.5 c 128,-1,4
 629 -2 629 -2 596 -14 c 1,5,-1
 588 -12 l 1,6,-1
 588 133 l 1,7,-1
 512 57 l 2,8,9
 475 20 475 20 429 2 c 128,-1,10
 383 -16 383 -16 334 -16 c 0,11,12
 287 -16 287 -16 248 -0.5 c 128,-1,13
 209 15 209 15 181.5 44.5 c 128,-1,14
 154 74 154 74 138.5 115.5 c 128,-1,15
 123 157 123 157 123 209 c 2,16,-1
 123 647 l 2,17,18
 123 677 123 677 118 697.5 c 128,-1,19
 113 718 113 718 100 731 c 128,-1,20
 87 744 87 744 66 751 c 128,-1,21
 45 758 45 758 14 760 c 1,22,-1
 14 784 l 1,23,-1
 268 784 l 1,24,-1
 268 215 l 2,25,26
 268 187 268 187 278.5 163 c 128,-1,27
 289 139 289 139 306 121.5 c 128,-1,28
 323 104 323 104 346 94 c 128,-1,29
 369 84 369 84 393 84 c 0,30,31
 473 84 473 84 547 143 c 0,32,33
 565 157 565 157 572.5 177.5 c 128,-1,34
 580 198 580 198 580 236 c 2,35,-1
 580 643 l 2,36,37
 580 677 580 677 574.5 697.5 c 128,-1,38
 569 718 569 718 555 730 c 128,-1,39
 541 742 541 742 516 747 c 128,-1,40
 491 752 491 752 451 754 c 1,41,-1
 451 784 l 1,42,-1
 725 784 l 1,43,-1
 725 186 l 2,44,45
 725 156 725 156 729.5 136.5 c 128,-1,46
 734 117 734 117 745 106 c 128,-1,47
 756 95 756 95 775.5 90.5 c 128,-1,48
 795 86 795 86 825 86 c 2,49,-1
 834 86 l 1,50,-1
 834 63 l 1,51,-1
 834 63 l 1,0,1
EndSplineSet
EndChar

StartChar: v
Encoding: 118 118 80
Width: 870
Flags: W
LayerCount: 2
Fore
SplineSet
829 758 m 1,0,1
 811 756 811 756 798 751 c 128,-1,2
 785 746 785 746 773 731.5 c 128,-1,3
 761 717 761 717 748 691 c 128,-1,4
 735 665 735 665 717 621 c 2,5,-1
 496 63 l 2,6,7
 476 12 476 12 464 -6.5 c 128,-1,8
 452 -25 452 -25 444 -25 c 0,9,10
 433 -25 433 -25 423 -3 c 128,-1,11
 413 19 413 19 399 57 c 2,12,-1
 190 557 l 2,13,14
 162 624 162 624 142.5 663 c 128,-1,15
 123 702 123 702 106.5 722.5 c 128,-1,16
 90 743 90 743 73.5 749.5 c 128,-1,17
 57 756 57 756 33 758 c 1,18,-1
 33 784 l 1,19,-1
 375 784 l 1,20,-1
 375 758 l 1,21,22
 330 753 330 753 312.5 742.5 c 128,-1,23
 295 732 295 732 295 709 c 0,24,25
 295 696 295 696 298 679 c 128,-1,26
 301 662 301 662 309 643 c 2,27,-1
 487 199 l 1,28,-1
 659 649 l 2,29,30
 664 663 664 663 667 675.5 c 128,-1,31
 670 688 670 688 670 700 c 0,32,33
 670 749 670 749 588 758 c 1,34,-1
 588 784 l 1,35,-1
 829 784 l 1,36,-1
 829 758 l 1,37,-1
 829 758 l 1,0,1
EndSplineSet
EndChar

StartChar: w
Encoding: 119 119 81
Width: 1257
Flags: W
LayerCount: 2
Fore
SplineSet
1208 758 m 1,0,1
 1193 752 1193 752 1185 746.5 c 128,-1,2
 1177 741 1177 741 1170 732 c 128,-1,3
 1163 723 1163 723 1156 707 c 128,-1,4
 1149 691 1149 691 1137 664 c 2,5,-1
 897 61 l 2,6,7
 886 34 886 34 878.5 17 c 128,-1,8
 871 0 871 0 866 -9.5 c 128,-1,9
 861 -19 861 -19 856.5 -22 c 128,-1,10
 852 -25 852 -25 848 -25 c 0,11,12
 843 -25 843 -25 839 -22 c 128,-1,13
 835 -19 835 -19 830.5 -11 c 128,-1,14
 826 -3 826 -3 820.5 11.5 c 128,-1,15
 815 26 815 26 807 49 c 2,16,-1
 647 463 l 1,17,-1
 453 43 l 2,18,19
 436 8 436 8 427 -8.5 c 128,-1,20
 418 -25 418 -25 410 -25 c 0,21,22
 392 -25 392 -25 365 51 c 2,23,-1
 129 647 l 2,24,25
 115 681 115 681 104.5 702 c 128,-1,26
 94 723 94 723 84 734.5 c 128,-1,27
 74 746 74 746 63 751 c 128,-1,28
 52 756 52 756 37 758 c 1,29,-1
 37 784 l 1,30,-1
 350 784 l 1,31,-1
 350 758 l 1,32,33
 301 752 301 752 284.5 738.5 c 128,-1,34
 268 725 268 725 268 694 c 0,35,36
 268 672 268 672 281 647 c 2,37,-1
 453 193 l 1,38,-1
 610 541 l 1,39,40
 587 607 587 607 571.5 647.5 c 128,-1,41
 556 688 556 688 540 711.5 c 128,-1,42
 524 735 524 735 505 744.5 c 128,-1,43
 486 754 486 754 457 758 c 1,44,-1
 457 784 l 1,45,-1
 809 784 l 1,46,-1
 809 758 l 1,47,48
 778 752 778 752 758.5 747 c 128,-1,49
 739 742 739 742 728 735.5 c 128,-1,50
 717 729 717 729 713 719.5 c 128,-1,51
 709 710 709 710 709 694 c 0,52,53
 709 685 709 685 709.5 679.5 c 128,-1,54
 710 674 710 674 713 665 c 128,-1,55
 716 656 716 656 721.5 639.5 c 128,-1,56
 727 623 727 623 737 592 c 2,57,-1
 885 203 l 1,58,-1
 1040 588 l 2,59,60
 1054 623 1054 623 1062.5 652.5 c 128,-1,61
 1071 682 1071 682 1071 702 c 0,62,63
 1071 725 1071 725 1054.5 736 c 128,-1,64
 1038 747 1038 747 993 758 c 1,65,-1
 993 784 l 1,66,-1
 1208 784 l 1,67,-1
 1208 758 l 1,0,1
EndSplineSet
EndChar

StartChar: x
Encoding: 120 120 82
Width: 870
Flags: W
LayerCount: 2
Fore
SplineSet
483 27 m 1,0,1
 526 28 526 28 539.5 36.5 c 128,-1,2
 553 45 553 45 553 68 c 0,3,4
 553 81 553 81 543 98 c 2,5,-1
 385 342 l 1,6,-1
 248 129 l 2,7,8
 213 76 213 76 213 57 c 0,9,10
 213 40 213 40 229 33.5 c 128,-1,11
 245 27 245 27 283 27 c 1,12,-1
 283 0 l 1,13,-1
 31 0 l 1,14,-1
 31 27 l 1,15,16
 52 29 52 29 66.5 32.5 c 128,-1,17
 81 36 81 36 94.5 45 c 128,-1,18
 108 54 108 54 122 70.5 c 128,-1,19
 136 87 136 87 156 115 c 2,20,-1
 354 401 l 1,21,-1
 190 653 l 2,22,23
 169 682 169 682 153.5 702 c 128,-1,24
 138 722 138 722 123.5 734.5 c 128,-1,25
 109 747 109 747 93.5 752.5 c 128,-1,26
 78 758 78 758 57 758 c 2,27,-1
 43 758 l 1,28,-1
 43 784 l 1,29,-1
 401 784 l 1,30,-1
 401 758 l 1,31,32
 363 756 363 756 345.5 746.5 c 128,-1,33
 328 737 328 737 328 719 c 0,34,35
 328 702 328 702 349 660.5 c 128,-1,36
 370 619 370 619 408 563 c 2,37,-1
 432 530 l 1,38,39
 463 575 463 575 485 605 c 128,-1,40
 507 635 507 635 521 656 c 128,-1,41
 535 677 535 677 542 691.5 c 128,-1,42
 549 706 549 706 549 719 c 0,43,44
 549 737 549 737 533 746.5 c 128,-1,45
 517 756 517 756 479 758 c 1,46,-1
 479 784 l 1,47,-1
 754 784 l 1,48,-1
 754 758 l 1,49,50
 712 756 712 756 675 736.5 c 128,-1,51
 638 717 638 717 612 682 c 2,52,-1
 469 471 l 1,53,-1
 690 131 l 2,54,55
 711 102 711 102 728 82 c 128,-1,56
 745 62 745 62 761.5 50 c 128,-1,57
 778 38 778 38 795.5 32.5 c 128,-1,58
 813 27 813 27 834 27 c 1,59,-1
 834 0 l 1,60,-1
 483 0 l 1,61,-1
 483 27 l 1,62,-1
 483 27 l 1,0,1
EndSplineSet
EndChar

StartChar: y
Encoding: 121 121 83
Width: 870
Flags: W
LayerCount: 2
Fore
SplineSet
827 758 m 1,0,1
 796 755 796 755 777.5 737.5 c 128,-1,2
 759 720 759 720 743 680 c 2,3,-1
 475 -31 l 2,4,5
 440 -125 440 -125 406.5 -191 c 128,-1,6
 373 -257 373 -257 337 -299 c 128,-1,7
 301 -341 301 -341 262.5 -360 c 128,-1,8
 224 -379 224 -379 180 -379 c 0,9,10
 153 -379 153 -379 129.5 -371.5 c 128,-1,11
 106 -364 106 -364 88.5 -351 c 128,-1,12
 71 -338 71 -338 61 -319.5 c 128,-1,13
 51 -301 51 -301 51 -279 c 0,14,15
 51 -248 51 -248 73.5 -225.5 c 128,-1,16
 96 -203 96 -203 127 -203 c 0,17,18
 147 -203 147 -203 170.5 -206.5 c 128,-1,19
 194 -210 194 -210 219 -221 c 0,20,21
 232 -226 232 -226 242 -229.5 c 128,-1,22
 252 -233 252 -233 260 -233 c 0,23,24
 279 -233 279 -233 304.5 -213 c 128,-1,25
 330 -193 330 -193 350 -156 c 0,26,27
 360 -137 360 -137 372.5 -108.5 c 128,-1,28
 385 -80 385 -80 395.5 -51.5 c 128,-1,29
 406 -23 406 -23 413 0.5 c 128,-1,30
 420 24 420 24 420 33 c 0,31,32
 420 53 420 53 400 98 c 128,-1,33
 380 143 380 143 342 209 c 1,34,-1
 317 260 l 1,35,-1
 311 274 l 1,36,-1
 113 702 l 2,37,38
 102 725 102 725 80.5 740 c 128,-1,39
 59 755 59 755 25 760 c 1,40,-1
 25 784 l 1,41,-1
 383 784 l 1,42,-1
 383 758 l 1,43,44
 326 756 326 756 304.5 745 c 128,-1,45
 283 734 283 734 283 711 c 0,46,47
 283 697 283 697 287 680 c 128,-1,48
 291 663 291 663 299 643 c 2,49,-1
 500 205 l 1,50,-1
 668 684 l 2,51,52
 673 692 673 692 674.5 700.5 c 128,-1,53
 676 709 676 709 676 715 c 0,54,55
 676 758 676 758 592 758 c 1,56,-1
 592 784 l 1,57,-1
 827 784 l 1,58,-1
 827 758 l 1,59,-1
 827 758 l 1,0,1
EndSplineSet
EndChar

StartChar: z
Encoding: 122 122 84
Width: 772
Flags: W
LayerCount: 2
Fore
SplineSet
47 0 m 1,0,-1
 47 27 l 1,1,-1
 510 731 l 1,2,-1
 268 731 l 2,3,4
 230 731 230 731 205 725 c 128,-1,5
 180 719 180 719 164 702 c 128,-1,6
 148 685 148 685 138.5 655.5 c 128,-1,7
 129 626 129 626 123 578 c 1,8,-1
 92 578 l 1,9,-1
 92 784 l 1,10,-1
 700 784 l 1,11,-1
 700 758 l 1,12,-1
 233 51 l 1,13,-1
 473 51 l 2,14,15
 541 51 541 51 584.5 63 c 128,-1,16
 628 75 628 75 645 98 c 0,17,18
 654 109 654 109 660.5 120.5 c 128,-1,19
 667 132 667 132 673 148 c 128,-1,20
 679 164 679 164 684.5 186.5 c 128,-1,21
 690 209 690 209 696 242 c 1,22,-1
 727 236 l 1,23,-1
 702 0 l 1,24,-1
 47 0 l 1,0,-1
EndSplineSet
EndChar

StartChar: braceleft
Encoding: 123 123 85
Width: 836
Flags: W
LayerCount: 2
Fore
SplineSet
608 -315 m 1,0,1
 566 -315 566 -315 534.5 -312.5 c 128,-1,2
 503 -310 503 -310 479 -304.5 c 128,-1,3
 455 -299 455 -299 436 -290.5 c 128,-1,4
 417 -282 417 -282 399 -270 c 0,5,6
 362 -247 362 -247 342 -196.5 c 128,-1,7
 322 -146 322 -146 322 -72 c 2,8,-1
 322 238 l 2,9,10
 322 281 322 281 315.5 312.5 c 128,-1,11
 309 344 309 344 292 367 c 128,-1,12
 275 390 275 390 246.5 406 c 128,-1,13
 218 422 218 422 174 434 c 1,14,15
 218 449 218 449 246.5 464 c 128,-1,16
 275 479 275 479 292 500.5 c 128,-1,17
 309 522 309 522 315.5 553.5 c 128,-1,18
 322 585 322 585 322 633 c 2,19,-1
 322 942 l 2,20,21
 322 1014 322 1014 336.5 1059.5 c 128,-1,22
 351 1105 351 1105 385 1132 c 128,-1,23
 419 1159 419 1159 473.5 1170.5 c 128,-1,24
 528 1182 528 1182 608 1184 c 1,25,-1
 608 1163 l 1,26,27
 563 1153 563 1153 533 1136.5 c 128,-1,28
 503 1120 503 1120 485 1094.5 c 128,-1,29
 467 1069 467 1069 459 1033.5 c 128,-1,30
 451 998 451 998 451 950 c 2,31,-1
 451 657 l 2,32,33
 451 603 451 603 444 567 c 128,-1,34
 437 531 437 531 418.5 505.5 c 128,-1,35
 400 480 400 480 368 463.5 c 128,-1,36
 336 447 336 447 287 432 c 1,37,38
 336 422 336 422 368 406.5 c 128,-1,39
 400 391 400 391 418.5 365.5 c 128,-1,40
 437 340 437 340 444 302.5 c 128,-1,41
 451 265 451 265 451 211 c 2,42,-1
 451 -82 l 2,43,44
 451 -131 451 -131 459 -166 c 128,-1,45
 467 -201 467 -201 485 -226 c 128,-1,46
 503 -251 503 -251 533 -268 c 128,-1,47
 563 -285 563 -285 608 -297 c 1,48,-1
 608 -315 l 1,49,-1
 608 -315 l 1,0,1
EndSplineSet
EndChar

StartChar: bar
Encoding: 124 124 86
Width: 348
Flags: W
LayerCount: 2
Fore
SplineSet
231 1176 m 1,0,-1
 231 -25 l 1,1,-1
 117 -25 l 1,2,-1
 117 1176 l 1,3,-1
 231 1176 l 1,0,-1
EndSplineSet
EndChar

StartChar: asciitilde
Encoding: 126 126 87
Width: 942
Flags: W
LayerCount: 2
Fore
SplineSet
874 471 m 1,0,1
 844 430 844 430 818 402 c 128,-1,2
 792 374 792 374 767 356.5 c 128,-1,3
 742 339 742 339 716 331.5 c 128,-1,4
 690 324 690 324 659 324 c 0,5,6
 630 324 630 324 607 327 c 128,-1,7
 584 330 584 330 556 340 c 128,-1,8
 528 350 528 350 490.5 368.5 c 128,-1,9
 453 387 453 387 395 418 c 0,10,11
 372 430 372 430 345 436 c 128,-1,12
 318 442 318 442 293 442 c 0,13,14
 273 442 273 442 256.5 437.5 c 128,-1,15
 240 433 240 433 225 422.5 c 128,-1,16
 210 412 210 412 195.5 395.5 c 128,-1,17
 181 379 181 379 164 354 c 1,18,-1
 70 410 l 1,19,20
 101 451 101 451 127 479 c 128,-1,21
 153 507 153 507 177.5 524.5 c 128,-1,22
 202 542 202 542 228 549.5 c 128,-1,23
 254 557 254 557 285 557 c 0,24,25
 313 557 313 557 336 553.5 c 128,-1,26
 359 550 359 550 386.5 540 c 128,-1,27
 414 530 414 530 452 511.5 c 128,-1,28
 490 493 490 493 549 463 c 0,29,30
 572 450 572 450 598.5 444 c 128,-1,31
 625 438 625 438 651 438 c 0,32,33
 688 438 688 438 718 457 c 128,-1,34
 748 476 748 476 780 528 c 1,35,-1
 874 471 l 1,36,-1
 874 471 l 1,0,1
EndSplineSet
EndChar

StartChar: ccedilla
Encoding: 231 231 90
Width: 805
Flags: W
LayerCount: 2
Fore
SplineSet
775 198 m 1,0,-1
 764 142 l 1,1,2
 616 37 616 37 445 -9 c 1,3,-1
 408 -65 l 1,4,5
 481 -86 481 -86 481 -146 c 0,6,7
 481 -197 481 -197 424.5 -240.5 c 128,-1,8
 368 -284 368 -284 301 -284 c 0,9,10
 272 -284 272 -284 232 -277 c 1,11,-1
 287 -201 l 1,12,13
 322 -223 322 -223 348 -223 c 0,14,15
 412 -223 412 -223 412 -172 c 0,16,17
 412 -117 412 -117 311 -111 c 1,18,-1
 376 -19 l 1,19,20
 145 5 145 5 145 228 c 0,21,22
 145 445 145 445 302 622 c 128,-1,23
 459 799 459 799 652 799 c 0,24,25
 736 799 736 799 819 762 c 1,26,-1
 770 578 l 1,27,-1
 725 578 l 1,28,-1
 728 589 l 2,29,30
 735 622 735 622 735 638 c 0,31,32
 735 737 735 737 599 737 c 0,33,34
 475 737 475 737 382.5 595 c 128,-1,35
 290 453 290 453 290 263 c 0,36,37
 290 62 290 62 446 62 c 0,38,39
 563 62 563 62 775 198 c 1,0,-1
EndSplineSet
EndChar

StartChar: icircumflex
Encoding: 238 238 95
Width: 468
Flags: W
LayerCount: 2
Fore
SplineSet
328 0 m 1,0,-1
 140 0 l 1,1,-1
 140 1117 l 1,2,-1
 328 1117 l 1,3,-1
 328 0 l 1,0,-1
521 1297 m 1,4,-1
 370 1297 l 1,5,-1
 231 1560 l 1,6,-1
 93 1297 l 1,7,-1
 -54 1297 l 1,8,-1
 120 1676 l 1,9,-1
 347 1676 l 1,10,-1
 521 1297 l 1,4,-1
EndSplineSet
EndChar

StartChar: idieresis
Encoding: 239 239 96
Width: 468
Flags: W
LayerCount: 2
Fore
SplineSet
328 0 m 1,0,-1
 140 0 l 1,1,-1
 140 1117 l 1,2,-1
 328 1117 l 1,3,-1
 328 0 l 1,0,-1
506 1304 m 1,4,-1
 317 1304 l 1,5,-1
 317 1499 l 1,6,-1
 506 1499 l 1,7,-1
 506 1304 l 1,4,-1
151 1304 m 1,8,-1
 -38 1304 l 1,9,-1
 -38 1499 l 1,10,-1
 151 1499 l 1,11,-1
 151 1304 l 1,8,-1
EndSplineSet
EndChar

StartChar: dagger
Encoding: 8224 8224 101
Width: 932
Flags: W
LayerCount: 2
Fore
SplineSet
347 -231 m 1,0,-1
 567 622 l 1,1,-1
 248 592 l 1,2,-1
 297 700 l 1,3,-1
 576 668 l 1,4,-1
 607 1066 l 1,5,-1
 755 1093 l 1,6,-1
 621 668 l 1,7,-1
 941 700 l 1,8,-1
 895 592 l 1,9,-1
 612 622 l 1,10,-1
 496 -213 l 1,11,-1
 347 -231 l 1,0,-1
EndSplineSet
EndChar

StartChar: degree
Encoding: 176 176 102
Width: 409
Flags: W
LayerCount: 2
Fore
SplineSet
395 844 m 0,0,1
 344 844 344 844 307.5 880 c 128,-1,2
 271 916 271 916 271 968 c 0,3,4
 271 1021 271 1021 307.5 1057 c 128,-1,5
 344 1093 344 1093 395 1093 c 0,6,7
 447 1093 447 1093 483 1057 c 128,-1,8
 519 1021 519 1021 519 968 c 0,9,10
 519 916 519 916 483 880 c 128,-1,11
 447 844 447 844 395 844 c 0,0,1
395 888 m 256,12,13
 427 888 427 888 450.5 912 c 128,-1,14
 474 936 474 936 474 968 c 256,15,16
 474 1000 474 1000 450.5 1024 c 128,-1,17
 427 1048 427 1048 395 1048 c 256,18,19
 363 1048 363 1048 339 1024 c 128,-1,20
 315 1000 315 1000 315 968 c 256,21,22
 315 936 315 936 339 912 c 128,-1,23
 363 888 363 888 395 888 c 256,12,13
EndSplineSet
EndChar

StartChar: cent
Encoding: 162 162 103
Width: 693
Flags: W
LayerCount: 2
Fore
SplineSet
365 -18 m 1,0,-1
 404 176 l 1,1,2
 142 195 142 195 142 355 c 0,3,4
 142 459 142 459 242 534.5 c 128,-1,5
 342 610 342 610 492 622 c 1,6,-1
 527 799 l 1,7,-1
 572 799 l 1,8,-1
 537 622 l 1,9,10
 637 617 637 617 715 601 c 1,11,-1
 689 471 l 1,12,-1
 644 471 l 1,13,14
 644 477 644 477 645 488 c 0,15,16
 648 509 648 509 648 517 c 0,17,18
 648 572 648 572 528 578 c 1,19,-1
 459 229 l 1,20,21
 567 229 567 229 661 280 c 1,22,-1
 650 229 l 1,23,24
 544 176 544 176 448 176 c 1,25,-1
 409 -18 l 1,26,-1
 365 -18 l 1,0,-1
415 232 m 1,27,-1
 484 578 l 1,28,29
 272 547 272 547 272 383 c 0,30,31
 272 255 272 255 415 232 c 1,27,-1
EndSplineSet
EndChar

StartChar: sterling
Encoding: 163 163 104
Width: 874
Flags: W
LayerCount: 2
Fore
SplineSet
17 0 m 1,0,-1
 109 88 l 1,1,-1
 122 88 l 2,2,3
 229 88 229 88 272.5 136.5 c 128,-1,4
 316 185 316 185 347 343 c 2,5,-1
 356 391 l 1,6,-1
 196 391 l 1,7,-1
 205 436 l 1,8,-1
 365 436 l 1,9,-1
 378 499 l 2,10,11
 407 642 407 642 496.5 721 c 128,-1,12
 586 800 586 800 718 800 c 0,13,14
 797 800 797 800 892 765 c 1,15,-1
 858 586 l 1,16,-1
 808 586 l 1,17,-1
 810 598 l 2,18,19
 812 608 812 608 812 620 c 0,20,21
 812 746 812 746 679 746 c 0,22,23
 614 746 614 746 584.5 710 c 128,-1,24
 555 674 555 674 535 569 c 2,25,-1
 508 436 l 1,26,-1
 748 436 l 1,27,-1
 739 391 l 1,28,-1
 499 391 l 1,29,-1
 492 359 l 2,30,31
 473 265 473 265 427.5 208 c 128,-1,32
 382 151 382 151 275 88 c 1,33,-1
 480 88 l 2,34,35
 617 88 617 88 679 102.5 c 128,-1,36
 741 117 741 117 819 167 c 1,37,-1
 808 113 l 1,38,39
 735 35 735 35 665.5 7.5 c 128,-1,40
 596 -20 596 -20 470 -20 c 1,41,-1
 442 -19 l 1,42,-1
 17 0 l 1,0,-1
EndSplineSet
EndChar

StartChar: section
Encoding: 167 167 105
Width: 932
Flags: W
LayerCount: 2
Fore
SplineSet
107 -153 m 1,0,-1
 232 -80 l 1,1,2
 348 -178 348 -178 481 -178 c 0,3,4
 564 -178 564 -178 621.5 -127.5 c 128,-1,5
 679 -77 679 -77 679 -5 c 0,6,7
 679 48 679 48 645.5 80.5 c 128,-1,8
 612 113 612 113 513 160 c 2,9,-1
 440 193 l 2,10,11
 247 283 247 283 247 409 c 0,12,13
 247 528 247 528 409 652 c 1,14,15
 328 717 328 717 328 815 c 0,16,17
 328 938 328 938 440 1015.5 c 128,-1,18
 552 1093 552 1093 727 1093 c 0,19,20
 814 1093 814 1093 933 1060 c 1,21,-1
 897 879 l 1,22,-1
 853 879 l 1,23,24
 857 904 857 904 857 916 c 0,25,26
 857 1039 857 1039 652 1039 c 0,27,28
 560 1039 560 1039 500.5 987 c 128,-1,29
 441 935 441 935 441 853 c 0,30,31
 441 798 441 798 466 774.5 c 128,-1,32
 491 751 491 751 613 686 c 2,33,-1
 674 652 l 2,34,35
 854 553 854 553 854 444 c 0,36,37
 854 319 854 319 703 200 c 1,38,39
 801 136 801 136 801 40 c 0,40,41
 801 -75 801 -75 684.5 -153 c 128,-1,42
 568 -231 568 -231 397 -231 c 0,43,44
 244 -231 244 -231 107 -153 c 1,0,-1
667 229 m 1,45,46
 747 319 747 319 747 394 c 0,47,48
 747 470 747 470 628 527 c 2,49,-1
 558 562 l 2,50,51
 495 593 495 593 445 625 c 1,52,53
 355 545 355 545 355 456 c 0,54,55
 355 382 355 382 474 326 c 2,56,-1
 571 279 l 2,57,58
 607 263 607 263 667 229 c 1,45,46
EndSplineSet
EndChar

StartChar: bullet
Encoding: 8226 8226 106
Width: 931
Flags: W
LayerCount: 2
Fore
SplineSet
817 662 m 256,0,1
 817 517 817 517 713.5 414 c 128,-1,2
 610 311 610 311 465 311 c 256,3,4
 320 311 320 311 217 414 c 128,-1,5
 114 517 114 517 114 662 c 256,6,7
 114 807 114 807 217 910 c 128,-1,8
 320 1013 320 1013 465 1013 c 256,9,10
 610 1013 610 1013 713.5 910 c 128,-1,11
 817 807 817 807 817 662 c 256,0,1
EndSplineSet
EndChar

StartChar: paragraph
Encoding: 182 182 107
Width: 932
Flags: W
LayerCount: 2
Fore
SplineSet
365 -239 m 1,0,-1
 511 496 l 1,1,2
 241 542 241 542 241 747 c 0,3,4
 241 876 241 876 346.5 968 c 128,-1,5
 452 1060 452 1060 628 1085 c 1,6,-1
 660 1244 l 1,7,-1
 704 1244 l 1,8,-1
 673 1085 l 1,9,-1
 703 1086 l 2,10,11
 744 1086 744 1086 796 1080 c 1,12,-1
 828 1244 l 1,13,-1
 873 1244 l 1,14,-1
 839 1071 l 1,15,16
 891 1057 891 1057 948 1036 c 1,17,-1
 938 988 l 1,18,19
 898 1005 898 1005 830 1024 c 1,20,-1
 742 586 l 1,21,22
 794 603 794 603 869 643 c 1,23,-1
 859 586 l 1,24,25
 794 549 794 549 732 530 c 1,26,-1
 578 -239 l 1,27,-1
 534 -239 l 1,28,-1
 684 514 l 1,29,30
 597 496 597 496 556 496 c 1,31,-1
 409 -239 l 1,32,-1
 365 -239 l 1,0,-1
695 568 m 1,33,-1
 787 1031 l 1,34,35
 738 1040 738 1040 704 1040 c 0,36,37
 691 1040 691 1040 664 1039 c 1,38,-1
 567 553 l 1,39,40
 625 553 625 553 695 568 c 1,33,-1
EndSplineSet
EndChar

StartChar: registered
Encoding: 174 174 108
Width: 897
Flags: W
LayerCount: 2
Fore
SplineSet
580 445 m 0,0,1
 448 445 448 445 354.5 538.5 c 128,-1,2
 261 632 261 632 261 764 c 256,3,4
 261 896 261 896 354.5 990 c 128,-1,5
 448 1084 448 1084 580 1084 c 0,6,7
 714 1084 714 1084 807 990 c 128,-1,8
 900 896 900 896 900 764 c 256,9,10
 900 632 900 632 806.5 538.5 c 128,-1,11
 713 445 713 445 580 445 c 0,0,1
580 484 m 0,12,13
 695 484 695 484 777.5 567 c 128,-1,14
 860 650 860 650 860 764 c 256,15,16
 860 878 860 878 777.5 961 c 128,-1,17
 695 1044 695 1044 580 1044 c 0,18,19
 466 1044 466 1044 383.5 961 c 128,-1,20
 301 878 301 878 301 764 c 256,21,22
 301 650 301 650 383.5 567 c 128,-1,23
 466 484 466 484 580 484 c 0,12,13
529 737 m 1,24,-1
 501 596 l 1,25,-1
 394 596 l 1,26,-1
 403 639 l 1,27,-1
 456 639 l 1,28,-1
 511 915 l 1,29,-1
 458 915 l 1,30,-1
 466 959 l 1,31,-1
 598 959 l 2,32,33
 751 959 751 959 751 875 c 0,34,35
 751 800 751 800 650 750 c 1,36,-1
 685 639 l 1,37,-1
 747 639 l 1,38,-1
 738 596 l 1,39,-1
 641 596 l 1,40,-1
 591 737 l 1,41,-1
 529 737 l 1,24,-1
538 782 m 1,42,-1
 574 782 l 2,43,44
 697 782 697 782 697 866 c 0,45,46
 697 915 697 915 607 915 c 2,47,-1
 564 915 l 1,48,-1
 538 782 l 1,42,-1
EndSplineSet
EndChar

StartChar: copyright
Encoding: 169 169 109
Width: 1244
Flags: W
LayerCount: 2
Fore
SplineSet
725 -27 m 0,0,1
 495 -27 495 -27 330.5 137 c 128,-1,2
 166 301 166 301 166 533 c 256,3,4
 166 765 166 765 330.5 929 c 128,-1,5
 495 1093 495 1093 725 1093 c 0,6,7
 958 1093 958 1093 1122 929 c 128,-1,8
 1286 765 1286 765 1286 533 c 256,9,10
 1286 301 1286 301 1122 137 c 128,-1,11
 958 -27 958 -27 725 -27 c 0,0,1
725 18 m 0,12,13
 939 18 939 18 1090 169 c 128,-1,14
 1241 320 1241 320 1241 533 c 256,15,16
 1241 746 1241 746 1090 897 c 128,-1,17
 939 1048 939 1048 725 1048 c 0,18,19
 513 1048 513 1048 362 897 c 128,-1,20
 211 746 211 746 211 533 c 256,21,22
 211 320 211 320 362 169 c 128,-1,23
 513 18 513 18 725 18 c 0,12,13
890 246 m 1,24,25
 785 213 785 213 704 213 c 0,26,27
 580 213 580 213 508 279.5 c 128,-1,28
 436 346 436 346 436 462 c 0,29,30
 436 625 436 625 541 734.5 c 128,-1,31
 646 844 646 844 805 844 c 0,32,33
 896 844 896 844 1003 814 c 1,34,-1
 967 675 l 1,35,-1
 915 684 l 1,36,-1
 923 766 l 1,37,38
 854 798 854 798 792 798 c 0,39,40
 688 798 688 798 616 700 c 128,-1,41
 544 602 544 602 544 462 c 0,42,43
 544 271 544 271 722 271 c 0,44,45
 823 271 823 271 902 307 c 1,46,-1
 890 246 l 1,24,25
EndSplineSet
EndChar

StartChar: trademark
Encoding: 8482 8482 110
Width: 1333
Flags: W
LayerCount: 2
Fore
SplineSet
440 1021 m 1,0,-1
 307 1021 l 1,1,-1
 288 923 l 1,2,-1
 225 923 l 1,3,-1
 254 1066 l 1,4,-1
 751 1066 l 1,5,-1
 723 923 l 1,6,-1
 661 923 l 1,7,-1
 679 1021 l 1,8,-1
 546 1021 l 1,9,-1
 456 569 l 1,10,-1
 554 569 l 1,11,-1
 545 524 l 1,12,-1
 243 524 l 1,13,-1
 253 569 l 1,14,-1
 350 569 l 1,15,-1
 440 1021 l 1,0,-1
1011 569 m 1,16,-1
 942 956 l 1,17,-1
 857 524 l 1,18,-1
 688 524 l 1,19,-1
 697 569 l 1,20,-1
 794 569 l 1,21,-1
 884 1021 l 1,22,-1
 787 1021 l 1,23,-1
 796 1066 l 1,24,-1
 1036 1066 l 1,25,-1
 1092 747 l 1,26,-1
 1265 1066 l 1,27,-1
 1481 1066 l 1,28,-1
 1473 1021 l 1,29,-1
 1375 1021 l 1,30,-1
 1285 569 l 1,31,-1
 1383 569 l 1,32,-1
 1373 524 l 1,33,-1
 1178 524 l 1,34,-1
 1270 985 l 1,35,-1
 1041 569 l 1,36,-1
 1011 569 l 1,16,-1
EndSplineSet
EndChar

StartChar: acute
Encoding: 180 180 111
Width: 256
Flags: W
LayerCount: 2
Fore
SplineSet
118 999 m 1,0,1
 195 1083 195 1083 192 1046 c 1,2,3
 183 1014 183 1014 135.5 924 c 128,-1,4
 88 834 88 834 66 802 c 1,5,6
 55 796 55 796 62 848 c 1,7,8
 83 919 83 919 118 999 c 1,0,1
EndSplineSet
EndChar

StartChar: dieresis
Encoding: 168 168 112
Width: 862
Flags: W
LayerCount: 2
Fore
SplineSet
495 923 m 1,0,-1
 408 1033 l 1,1,-1
 520 1119 l 1,2,-1
 607 1003 l 1,3,-1
 495 923 l 1,0,-1
841 923 m 1,4,-1
 752 1035 l 1,5,-1
 866 1119 l 1,6,-1
 951 1004 l 1,7,-1
 841 923 l 1,4,-1
EndSplineSet
EndChar

StartChar: plusminus
Encoding: 177 177 113
Width: 932
Flags: W
LayerCount: 2
Fore
SplineSet
76 0 m 1,0,-1
 92 80 l 1,1,-1
 873 80 l 1,2,-1
 858 0 l 1,3,-1
 76 0 l 1,0,-1
469 213 m 1,4,-1
 525 493 l 1,5,-1
 174 493 l 1,6,-1
 189 573 l 1,7,-1
 541 573 l 1,8,-1
 596 852 l 1,9,-1
 676 852 l 1,10,-1
 621 573 l 1,11,-1
 971 573 l 1,12,-1
 956 493 l 1,13,-1
 605 493 l 1,14,-1
 549 213 l 1,15,-1
 469 213 l 1,4,-1
EndSplineSet
EndChar

StartChar: yen
Encoding: 165 165 114
Width: 965
Flags: W
LayerCount: 2
Fore
SplineSet
156 0 m 1,0,-1
 247 99 l 1,1,2
 269 97 269 97 279 97 c 0,3,4
 415 97 415 97 477 257 c 1,5,-1
 272 257 l 1,6,-1
 280 301 l 1,7,-1
 489 301 l 1,8,9
 495 346 495 346 499 409 c 1,10,-1
 301 409 l 1,11,-1
 310 453 l 1,12,-1
 499 453 l 1,13,14
 499 465 499 465 499 470 c 0,15,16
 499 567 499 567 463.5 631 c 128,-1,17
 428 695 428 695 375 695 c 256,18,19
 322 695 322 695 250 638 c 128,-1,20
 178 581 178 581 139 509 c 1,21,-1
 106 534 l 1,22,23
 172 650 172 650 268.5 724.5 c 128,-1,24
 365 799 365 799 452 799 c 0,25,26
 612 799 612 799 612 518 c 1,27,-1
 611 472 l 1,28,29
 736 799 736 799 971 799 c 0,30,31
 1045 799 1045 799 1100 765 c 1,32,-1
 1016 653 l 1,33,34
 967 684 967 684 915 684 c 0,35,36
 742 684 742 684 651 453 c 1,37,-1
 835 453 l 1,38,-1
 826 409 l 1,39,-1
 643 409 l 1,40,-1
 634 369 l 2,41,42
 627 335 627 335 609 301 c 1,43,-1
 805 301 l 1,44,-1
 796 257 l 1,45,-1
 585 257 l 1,46,47
 519 138 519 138 389 91 c 1,48,-1
 624 77 l 1,49,-1
 534 -18 l 1,50,-1
 156 0 l 1,0,-1
EndSplineSet
EndChar

StartChar: mu1
Encoding: 181 181 115
Width: 992
Flags: W
LayerCount: 2
Fore
SplineSet
100 -302 m 1,0,-1
 155 -76 l 1,1,-1
 270 500 l 2,2,3
 282 560 282 560 282 611 c 0,4,5
 282 693 282 693 206 782 c 1,6,-1
 368 790 l 1,7,8
 427 740 427 740 427 623 c 0,9,10
 427 576 427 576 409 481 c 2,11,-1
 355 213 l 2,12,13
 347 176 347 176 347 161 c 0,14,15
 347 106 347 106 391 106 c 0,16,17
 446 106 446 106 553.5 229 c 128,-1,18
 661 352 661 352 753 519 c 1,19,-1
 805 782 l 1,20,-1
 958 790 l 1,21,-1
 905 569 l 1,22,-1
 834 213 l 2,23,24
 818 132 818 132 818 106 c 0,25,26
 818 53 818 53 861 53 c 0,27,28
 931 53 931 53 1075 218 c 1,29,-1
 1062 151 l 1,30,31
 905 -18 905 -18 779 -18 c 0,32,33
 675 -18 675 -18 675 91 c 0,34,35
 675 128 675 128 692 213 c 2,36,-1
 727 391 l 1,37,-1
 717 391 l 1,38,39
 517 0 517 0 312 0 c 1,40,-1
 255 -284 l 1,41,-1
 100 -302 l 1,0,-1
EndSplineSet
EndChar

StartChar: logicalnot
Encoding: 172 172 116
Width: 932
Flags: W
LayerCount: 2
Fore
SplineSet
177 510 m 1,0,-1
 193 590 l 1,1,-1
 975 590 l 1,2,-1
 906 248 l 1,3,-1
 814 248 l 1,4,-1
 866 510 l 1,5,-1
 177 510 l 1,0,-1
EndSplineSet
EndChar

StartChar: florin
Encoding: 402 402 117
Width: 679
Flags: W
LayerCount: 2
Fore
SplineSet
158 -231 m 1,0,-1
 210 -18 l 1,1,-1
 286 364 l 1,2,-1
 108 364 l 1,3,-1
 117 409 l 1,4,-1
 294 409 l 1,5,-1
 298 427 l 2,6,7
 330 586 330 586 463 692.5 c 128,-1,8
 596 799 596 799 761 799 c 0,9,10
 818 799 818 799 860 784 c 1,11,-1
 764 678 l 1,12,13
 712 729 712 729 643 729 c 0,14,15
 500 729 500 729 457 512 c 2,16,-1
 436 409 l 1,17,-1
 623 409 l 1,18,-1
 614 364 l 1,19,-1
 427 364 l 1,20,-1
 313 -213 l 1,21,-1
 158 -231 l 1,0,-1
EndSplineSet
EndChar

StartChar: ellipsis
Encoding: 8230 8230 118
Width: 1474
Flags: W
LayerCount: 2
Fore
SplineSet
178 0 m 1,0,-1
 206 142 l 1,1,-1
 348 142 l 1,2,-1
 319 0 l 1,3,-1
 178 0 l 1,0,-1
667 0 m 1,4,-1
 695 142 l 1,5,-1
 837 142 l 1,6,-1
 808 0 l 1,7,-1
 667 0 l 1,4,-1
1155 0 m 1,8,-1
 1183 142 l 1,9,-1
 1326 142 l 1,10,-1
 1297 0 l 1,11,-1
 1155 0 l 1,8,-1
EndSplineSet
EndChar

StartChar: OE
Encoding: 338 338 119
Width: 1477
Flags: W
LayerCount: 2
Fore
SplineSet
816 0 m 1,0,-1
 831 70 l 1,1,2
 711 -27 711 -27 549 -27 c 0,3,4
 371 -27 371 -27 269 81 c 128,-1,5
 167 189 167 189 167 378 c 0,6,7
 167 661 167 661 358 877 c 128,-1,8
 549 1093 549 1093 799 1093 c 0,9,10
 931 1093 931 1093 1017 1007 c 1,11,-1
 1029 1066 l 1,12,-1
 1593 1066 l 1,13,-1
 1529 862 l 1,14,-1
 1484 862 l 1,15,16
 1490 891 1490 891 1490 913 c 0,17,18
 1490 969 1490 969 1424.5 990.5 c 128,-1,19
 1359 1012 1359 1012 1187 1012 c 2,20,-1
 1165 1012 l 1,21,-1
 1082 586 l 1,22,-1
 1402 586 l 1,23,-1
 1329 512 l 1,24,25
 1165 533 1165 533 1107 533 c 2,26,-1
 1071 533 l 1,27,-1
 1012 218 l 2,28,29
 1002 167 1002 167 1002 156 c 0,30,31
 1002 80 1002 80 1228 80 c 0,32,33
 1348 80 1348 80 1453 160 c 1,34,-1
 1442 103 l 1,35,36
 1318 -23 1318 -23 1203 -23 c 0,37,38
 1183 -23 1183 -23 1161 -21 c 2,39,-1
 816 0 l 1,0,-1
888 361 m 2,40,-1
 961 723 l 2,41,42
 974 786 974 786 974 841 c 0,43,44
 974 933 974 933 916.5 990.5 c 128,-1,45
 859 1048 859 1048 769 1048 c 0,46,47
 604 1048 604 1048 466.5 844 c 128,-1,48
 329 640 329 640 329 395 c 0,49,50
 329 218 329 218 396.5 117.5 c 128,-1,51
 464 17 464 17 585 17 c 0,52,53
 818 17 818 17 888 361 c 2,40,-1
EndSplineSet
EndChar

StartChar: oe
Encoding: 339 339 120
Width: 1350
Flags: W
LayerCount: 2
Fore
SplineSet
706 145 m 1,0,1
 535 -18 535 -18 370 -18 c 0,2,3
 273 -18 273 -18 209 55 c 128,-1,4
 145 128 145 128 145 237 c 0,5,6
 145 448 145 448 302.5 623.5 c 128,-1,7
 460 799 460 799 650 799 c 0,8,9
 794 799 794 799 859 630 c 1,10,11
 1025 799 1025 799 1183 799 c 0,12,13
 1246 799 1246 799 1286.5 758 c 128,-1,14
 1327 717 1327 717 1327 651 c 0,15,16
 1327 508 1327 508 1192.5 414 c 128,-1,17
 1058 320 1058 320 841 311 c 1,18,-1
 840 278 l 1,19,20
 840 66 840 66 998 66 c 0,21,22
 1113 66 1113 66 1327 200 c 1,23,-1
 1316 146 l 1,24,25
 1083 -18 1083 -18 917 -18 c 0,26,27
 758 -18 758 -18 706 145 c 1,0,1
431 35 m 0,28,29
 544 35 544 35 636 178.5 c 128,-1,30
 728 322 728 322 728 499 c 0,31,32
 728 607 728 607 689 672 c 128,-1,33
 650 737 650 737 584 737 c 0,34,35
 472 737 472 737 382 594 c 128,-1,36
 292 451 292 451 292 272 c 0,37,38
 292 35 292 35 431 35 c 0,28,29
844 355 m 1,39,40
 1004 368 1004 368 1097.5 438.5 c 128,-1,41
 1191 509 1191 509 1191 620 c 0,42,43
 1191 733 1191 733 1110 733 c 0,44,45
 1024 733 1024 733 941.5 616 c 128,-1,46
 859 499 859 499 844 355 c 1,39,40
EndSplineSet
EndChar

StartChar: endash
Encoding: 8211 8211 121
Width: 434
Flags: W
LayerCount: 2
Fore
SplineSet
434 154 m 1,0,-1
 0 154 l 1,1,-1
 0 234 l 1,2,-1
 434 234 l 1,3,-1
 434 154 l 1,0,-1
EndSplineSet
EndChar

StartChar: emdash
Encoding: 8212 8212 122
Width: 1862
Flags: W
LayerCount: 2
Fore
SplineSet
1866 572 m 1,0,-1
 -4 572 l 1,1,-1
 -4 732 l 1,2,-1
 1866 732 l 1,3,-1
 1866 572 l 1,0,-1
EndSplineSet
EndChar

StartChar: quotedblleft
Encoding: 8220 8220 123
Width: 645
Flags: W
LayerCount: 2
Fore
SplineSet
437 1051 m 1,0,1
 452 1061 452 1061 460.5 1065 c 128,-1,2
 469 1069 469 1069 481 1069 c 0,3,4
 506 1069 506 1069 524 1049.5 c 128,-1,5
 542 1030 542 1030 542 1003 c 0,6,7
 542 973 542 973 524 955 c 128,-1,8
 506 937 506 937 477 937 c 0,9,10
 433 937 433 937 401.5 981 c 128,-1,11
 370 1025 370 1025 370 1084 c 0,12,13
 370 1112 370 1112 383 1145.5 c 128,-1,14
 396 1179 396 1179 418 1210 c 0,15,16
 451 1252 451 1252 467 1252 c 0,17,18
 472 1252 472 1252 474.5 1249.5 c 128,-1,19
 477 1247 477 1247 477 1243 c 256,20,21
 477 1239 477 1239 474.5 1235.5 c 128,-1,22
 472 1232 472 1232 461 1219 c 0,23,24
 439 1194 439 1194 427.5 1167 c 128,-1,25
 416 1140 416 1140 416 1115 c 0,26,27
 416 1098 416 1098 421.5 1081 c 128,-1,28
 427 1064 427 1064 437 1051 c 1,0,1
189 1051 m 1,29,30
 203 1061 203 1061 212 1065 c 128,-1,31
 221 1069 221 1069 233 1069 c 0,32,33
 258 1069 258 1069 275.5 1049.5 c 128,-1,34
 293 1030 293 1030 293 1003 c 0,35,36
 293 973 293 973 275.5 955 c 128,-1,37
 258 937 258 937 228 937 c 0,38,39
 185 937 185 937 153 981 c 128,-1,40
 121 1025 121 1025 121 1084 c 0,41,42
 121 1112 121 1112 134 1145.5 c 128,-1,43
 147 1179 147 1179 169 1210 c 0,44,45
 202 1252 202 1252 219 1252 c 0,46,47
 224 1252 224 1252 226.5 1249.5 c 128,-1,48
 229 1247 229 1247 229 1243 c 256,49,50
 229 1239 229 1239 226.5 1235.5 c 128,-1,51
 224 1232 224 1232 213 1219 c 0,52,53
 190 1194 190 1194 178.5 1167 c 128,-1,54
 167 1140 167 1140 167 1115 c 0,55,56
 167 1098 167 1098 172.5 1081 c 128,-1,57
 178 1064 178 1064 189 1051 c 1,29,30
EndSplineSet
EndChar

StartChar: quotedblright
Encoding: 8221 8221 124
Width: 637
Flags: W
LayerCount: 2
Fore
SplineSet
226 1139 m 1,0,1
 212 1129 212 1129 203 1125 c 128,-1,2
 194 1121 194 1121 182 1121 c 0,3,4
 157 1121 157 1121 139 1140 c 128,-1,5
 121 1159 121 1159 121 1187 c 0,6,7
 121 1216 121 1216 139 1234 c 128,-1,8
 157 1252 157 1252 187 1252 c 0,9,10
 230 1252 230 1252 261.5 1208.5 c 128,-1,11
 293 1165 293 1165 293 1106 c 0,12,13
 293 1077 293 1077 280.5 1043.5 c 128,-1,14
 268 1010 268 1010 246 980 c 0,15,16
 213 937 213 937 196 937 c 0,17,18
 191 937 191 937 188.5 940 c 128,-1,19
 186 943 186 943 186 947 c 0,20,21
 186 950 186 950 188.5 954 c 128,-1,22
 191 958 191 958 202 971 c 0,23,24
 224 995 224 995 235.5 1022.5 c 128,-1,25
 247 1050 247 1050 247 1075 c 0,26,27
 247 1091 247 1091 241.5 1108.5 c 128,-1,28
 236 1126 236 1126 226 1139 c 1,0,1
475 1139 m 1,29,30
 460 1129 460 1129 451.5 1125 c 128,-1,31
 443 1121 443 1121 431 1121 c 0,32,33
 406 1121 406 1121 388 1140 c 128,-1,34
 370 1159 370 1159 370 1187 c 0,35,36
 370 1216 370 1216 388 1234 c 128,-1,37
 406 1252 406 1252 435 1252 c 0,38,39
 478 1252 478 1252 510 1208.5 c 128,-1,40
 542 1165 542 1165 542 1106 c 0,41,42
 542 1077 542 1077 529 1043.5 c 128,-1,43
 516 1010 516 1010 494 980 c 0,44,45
 461 937 461 937 444 937 c 0,46,47
 440 937 440 937 437 940 c 128,-1,48
 434 943 434 943 434 947 c 0,49,50
 434 950 434 950 437 954 c 128,-1,51
 440 958 440 958 451 971 c 0,52,53
 473 995 473 995 484.5 1022.5 c 128,-1,54
 496 1050 496 1050 496 1075 c 0,55,56
 496 1091 496 1091 490.5 1108.5 c 128,-1,57
 485 1126 485 1126 475 1139 c 1,29,30
EndSplineSet
EndChar

StartChar: divide
Encoding: 247 247 125
Width: 1093
Flags: W
LayerCount: 2
Fore
SplineSet
624 674 m 1,0,-1
 466 674 l 1,1,-1
 466 855 l 1,2,-1
 624 855 l 1,3,-1
 624 674 l 1,0,-1
933 383 m 1,4,-1
 157 383 l 1,5,-1
 157 489 l 1,6,-1
 933 489 l 1,7,-1
 933 383 l 1,4,-1
624 17 m 1,8,-1
 466 17 l 1,9,-1
 466 198 l 1,10,-1
 624 198 l 1,11,-1
 624 17 l 1,8,-1
EndSplineSet
EndChar

StartChar: lozenge
Encoding: 9674 9674 126
Width: 1118
Flags: W
LayerCount: 2
Fore
SplineSet
1003 699 m 1,0,-1
 560 197 l 1,1,-1
 117 699 l 1,2,-1
 560 1202 l 1,3,-1
 1003 699 l 1,0,-1
848 699 m 1,4,-1
 560 1036 l 1,5,-1
 271 699 l 1,6,-1
 560 364 l 1,7,-1
 848 699 l 1,4,-1
EndSplineSet
EndChar

StartChar: Euro
Encoding: 8364 8364 128
Width: 812
Flags: W
LayerCount: 2
Fore
SplineSet
210 464 m 1,0,1
 252 596 252 596 371.5 697.5 c 128,-1,2
 491 799 491 799 674 799 c 0,3,4
 773 799 773 799 885 769 c 1,5,-1
 845 624 l 1,6,-1
 795 624 l 1,7,8
 801 653 801 653 801 665 c 0,9,10
 801 701 801 701 757 726 c 128,-1,11
 713 751 713 751 649 751 c 0,12,13
 445 751 445 751 349 464 c 1,14,-1
 686 464 l 1,15,-1
 677 420 l 1,16,-1
 337 420 l 2,17,18
 335 418 335 418 332 404 c 2,19,-1
 325 365 l 1,20,-1
 325 360 l 1,21,-1
 665 360 l 1,22,-1
 656 315 l 1,23,-1
 319 315 l 1,24,-1
 319 289 l 2,25,26
 319 178 319 178 370 115.5 c 128,-1,27
 421 53 421 53 512 53 c 0,28,29
 636 53 636 53 765 135 c 1,30,-1
 755 72 l 1,31,32
 604 -18 604 -18 459 -18 c 0,33,34
 324 -18 324 -18 249.5 59 c 128,-1,35
 175 136 175 136 175 274 c 0,36,37
 175 300 175 300 175 315 c 1,38,-1
 111 315 l 1,39,-1
 120 360 l 1,40,-1
 182 360 l 1,41,-1
 182 364 l 1,42,43
 189 401 189 401 194 420 c 1,44,-1
 118 420 l 1,45,-1
 127 464 l 1,46,-1
 210 464 l 1,0,1
EndSplineSet
EndChar

StartChar: guilsinglleft
Encoding: 8249 8249 129
Width: 560
Flags: W
LayerCount: 2
Fore
SplineSet
375 71 m 1,0,1
 304 237 304 237 167 391 c 1,2,3
 358 507 358 507 437 653 c 1,4,-1
 587 711 l 1,5,6
 536 589 536 589 315 441 c 1,7,8
 423 310 423 310 499 138 c 1,9,-1
 375 71 l 1,0,1
EndSplineSet
EndChar

StartChar: guilsinglright
Encoding: 8250 8250 130
Width: 560
Flags: W
LayerCount: 2
Fore
SplineSet
339 711 m 1,0,1
 410 545 410 545 546 391 c 1,2,3
 356 275 356 275 276 128 c 1,4,-1
 128 71 l 1,5,6
 178 193 178 193 400 341 c 1,7,8
 293 470 293 470 215 643 c 1,9,-1
 339 711 l 1,0,1
EndSplineSet
EndChar

StartChar: daggerdbl
Encoding: 8225 8225 133
Width: 932
Flags: W
LayerCount: 2
Fore
SplineSet
349 -231 m 1,0,-1
 481 185 l 1,1,-1
 161 154 l 1,2,-1
 211 261 l 1,3,-1
 490 229 l 1,4,-1
 567 616 l 1,5,-1
 247 586 l 1,6,-1
 297 693 l 1,7,-1
 575 661 l 1,8,-1
 608 1066 l 1,9,-1
 758 1093 l 1,10,-1
 620 661 l 1,11,-1
 940 693 l 1,12,-1
 889 586 l 1,13,-1
 611 616 l 1,14,-1
 535 229 l 1,15,-1
 855 261 l 1,16,-1
 804 154 l 1,17,-1
 525 185 l 1,18,-1
 499 -213 l 1,19,-1
 349 -231 l 1,0,-1
EndSplineSet
EndChar

StartChar: middot.001
Encoding: 8729 8729 134
Width: 620
Flags: W
LayerCount: 2
Fore
SplineSet
429 516 m 1,0,-1
 190 516 l 1,1,-1
 190 789 l 1,2,-1
 429 789 l 1,3,-1
 429 516 l 1,0,-1
EndSplineSet
EndChar

StartChar: quotesinglbase
Encoding: 8218 8218 135
Width: 418
Flags: W
LayerCount: 2
Fore
SplineSet
103 128 m 1,0,-1
 247 231 l 1,1,-1
 353 90 l 1,2,3
 345 -56 345 -56 262.5 -134.5 c 128,-1,4
 180 -213 180 -213 36 -213 c 1,5,-1
 76 -168 l 1,6,7
 189 -158 189 -158 211 -18 c 1,8,-1
 103 128 l 1,0,-1
EndSplineSet
EndChar

StartChar: quotedblbase
Encoding: 8222 8222 136
Width: 684
Flags: W
LayerCount: 2
Fore
SplineSet
91 92 m 1,0,-1
 204 178 l 1,1,-1
 292 64 l 1,2,3
 270 -213 270 -213 31 -213 c 1,4,-1
 60 -168 l 1,5,6
 166 -148 166 -148 179 -16 c 1,7,-1
 91 92 l 1,0,-1
401 92 m 1,8,-1
 516 178 l 1,9,-1
 602 64 l 1,10,11
 581 -213 581 -213 341 -213 c 1,12,-1
 372 -168 l 1,13,14
 476 -148 476 -148 490 -16 c 1,15,-1
 401 92 l 1,8,-1
EndSplineSet
EndChar

StartChar: perthousand
Encoding: 8240 8240 137
Width: 1571
Flags: W
LayerCount: 2
Fore
SplineSet
385 533 m 0,0,1
 304 533 304 533 254.5 584.5 c 128,-1,2
 205 636 205 636 205 722 c 0,3,4
 205 865 205 865 286.5 965.5 c 128,-1,5
 368 1066 368 1066 483 1066 c 0,6,7
 567 1066 567 1066 617.5 1014.5 c 128,-1,8
 668 963 668 963 668 877 c 0,9,10
 668 733 668 733 585.5 633 c 128,-1,11
 503 533 503 533 385 533 c 0,0,1
311 715 m 0,12,13
 311 578 311 578 398 578 c 0,14,15
 463 578 463 578 517 671.5 c 128,-1,16
 571 765 571 765 571 881 c 0,17,18
 571 1022 571 1022 483 1022 c 0,19,20
 416 1022 416 1022 363.5 928 c 128,-1,21
 311 834 311 834 311 715 c 0,12,13
850 0 m 0,22,23
 769 0 769 0 719.5 51.5 c 128,-1,24
 670 103 670 103 670 189 c 0,25,26
 670 331 670 331 751 432 c 128,-1,27
 832 533 832 533 947 533 c 0,28,29
 1031 533 1031 533 1081.5 481.5 c 128,-1,30
 1132 430 1132 430 1132 344 c 0,31,32
 1132 200 1132 200 1049.5 100 c 128,-1,33
 967 0 967 0 850 0 c 0,22,23
776 182 m 0,34,35
 776 44 776 44 862 44 c 0,36,37
 929 44 929 44 982 138 c 128,-1,38
 1035 232 1035 232 1035 348 c 0,39,40
 1035 490 1035 490 948 490 c 0,41,42
 880 490 880 490 828 395.5 c 128,-1,43
 776 301 776 301 776 182 c 0,34,35
131 -27 m 1,44,-1
 1111 1093 l 1,45,-1
 1206 1093 l 1,46,-1
 225 -27 l 1,47,-1
 131 -27 l 1,44,-1
1376 0 m 0,48,49
 1294 0 1294 0 1244.5 51.5 c 128,-1,50
 1195 103 1195 103 1195 189 c 0,51,52
 1195 331 1195 331 1276.5 432 c 128,-1,53
 1358 533 1358 533 1473 533 c 0,54,55
 1557 533 1557 533 1607.5 481.5 c 128,-1,56
 1658 430 1658 430 1658 344 c 0,57,58
 1658 200 1658 200 1575.5 100 c 128,-1,59
 1493 0 1493 0 1376 0 c 0,48,49
1301 183 m 0,60,61
 1301 44 1301 44 1389 44 c 0,62,63
 1453 44 1453 44 1507 138 c 128,-1,64
 1561 232 1561 232 1561 347 c 0,65,66
 1561 490 1561 490 1473 490 c 0,67,68
 1406 490 1406 490 1353.5 395.5 c 128,-1,69
 1301 301 1301 301 1301 183 c 0,60,61
EndSplineSet
EndChar

StartChar: circumflex
Encoding: 710 710 139
Width: 862
Flags: W
LayerCount: 2
Fore
SplineSet
870 976 m 1,0,-1
 783 923 l 1,1,2
 729 984 729 984 693 1082 c 1,3,4
 652 1032 652 1032 574 953 c 0,5,6
 571 949 571 949 553 931 c 1,7,-1
 452 923 l 1,8,9
 607 1037 607 1037 674 1120 c 1,10,-1
 772 1182 l 1,11,12
 805 1069 805 1069 870 976 c 1,0,-1
EndSplineSet
EndChar

StartChar: cedilla
Encoding: 184 184 140
Width: 862
Flags: W
LayerCount: 2
Fore
SplineSet
456 0 m 1,0,-1
 414 -64 l 1,1,2
 485 -86 485 -86 485 -147 c 0,3,4
 485 -198 485 -198 428.5 -241 c 128,-1,5
 372 -284 372 -284 303 -284 c 0,6,7
 272 -284 272 -284 237 -277 c 1,8,-1
 292 -201 l 1,9,10
 326 -223 326 -223 352 -223 c 0,11,12
 416 -223 416 -223 416 -171 c 0,13,14
 416 -112 416 -112 318 -112 c 1,15,-1
 394 0 l 1,16,-1
 456 0 l 1,0,-1
EndSplineSet
EndChar

StartChar: brokenbar
Encoding: 166 166 141
Width: 355
Flags: W
LayerCount: 2
Fore
SplineSet
86 -213 m 1,0,-1
 203 373 l 1,1,-1
 301 373 l 1,2,-1
 184 -213 l 1,3,-1
 86 -213 l 1,0,-1
238 551 m 1,4,-1
 355 1137 l 1,5,-1
 453 1137 l 1,6,-1
 337 551 l 1,7,-1
 238 551 l 1,4,-1
EndSplineSet
EndChar

StartChar: minus
Encoding: 8722 8722 142
Width: 1490
Flags: W
LayerCount: 2
Fore
SplineSet
1308 572 m 1,0,-1
 182 572 l 1,1,-1
 182 732 l 1,2,-1
 1308 732 l 1,3,-1
 1308 572 l 1,0,-1
EndSplineSet
EndChar

StartChar: multiply
Encoding: 215 215 143
Width: 723
Flags: W
LayerCount: 2
Fore
SplineSet
567 645 m 1,0,-1
 640 571 l 1,1,-1
 461 392 l 1,2,-1
 640 213 l 1,3,-1
 567 139 l 1,4,-1
 387 318 l 1,5,-1
 207 138 l 1,6,-1
 133 212 l 1,7,-1
 314 392 l 1,8,-1
 133 572 l 1,9,-1
 207 646 l 1,10,-1
 387 466 l 1,11,-1
 567 645 l 1,0,-1
EndSplineSet
EndChar

StartChar: onesuperior
Encoding: 185 185 144
Width: 596
Flags: W
LayerCount: 2
Fore
SplineSet
573 1093 m 1,0,-1
 487 657 l 2,1,2
 476 607 476 607 476 589 c 0,3,4
 476 570 476 570 532 563 c 1,5,-1
 591 560 l 1,6,-1
 582 516 l 1,7,-1
 210 516 l 1,8,-1
 218 560 l 1,9,-1
 279 563 l 2,10,11
 328 567 328 567 337.5 578 c 128,-1,12
 347 589 347 589 362 657 c 2,13,-1
 418 938 l 2,14,15
 423 960 423 960 423 978 c 0,16,17
 423 1004 423 1004 355 1013 c 2,18,-1
 310 1021 l 1,19,-1
 319 1066 l 1,20,-1
 573 1093 l 1,0,-1
EndSplineSet
EndChar

StartChar: twosuperior
Encoding: 178 178 145
Width: 596
Flags: W
LayerCount: 2
Fore
SplineSet
187 516 m 1,0,-1
 207 617 l 1,1,2
 362 712 362 712 454.5 803.5 c 128,-1,3
 547 895 547 895 547 952 c 0,4,5
 547 1046 547 1046 463 1046 c 0,6,7
 352 1046 352 1046 331 928 c 1,8,-1
 278 928 l 1,9,-1
 304 1059 l 1,10,11
 400 1093 400 1093 484 1093 c 0,12,13
 674 1093 674 1093 674 959 c 0,14,15
 674 887 674 887 624.5 842 c 128,-1,16
 575 797 575 797 297 617 c 1,17,-1
 607 617 l 1,18,-1
 587 516 l 1,19,-1
 187 516 l 1,0,-1
EndSplineSet
EndChar

StartChar: threesuperior
Encoding: 179 179 146
Width: 596
Flags: W
LayerCount: 2
Fore
SplineSet
185 545 m 1,0,-1
 257 620 l 1,1,2
 337 556 337 556 418 556 c 0,3,4
 460 556 460 556 490.5 587 c 128,-1,5
 521 618 521 618 521 661 c 0,6,7
 521 776 521 776 345 776 c 0,8,9
 323 776 323 776 301 773 c 1,10,-1
 331 859 l 1,11,12
 350 860 350 860 365 860 c 0,13,14
 412 860 412 860 466 849 c 1,15,16
 547 886 547 886 547 961 c 0,17,18
 547 1046 547 1046 454 1046 c 0,19,20
 365 1046 365 1046 342 941 c 1,21,-1
 289 941 l 1,22,-1
 311 1057 l 1,23,24
 398 1093 398 1093 484 1093 c 0,25,26
 662 1093 662 1093 662 984 c 0,27,28
 662 893 662 893 520 829 c 1,29,30
 625 790 625 790 625 693 c 0,31,32
 625 616 625 616 554.5 563 c 128,-1,33
 484 510 484 510 378 510 c 0,34,35
 289 510 289 510 185 545 c 1,0,-1
EndSplineSet
EndChar

StartChar: onehalf
Encoding: 189 189 147
Width: 1262
Flags: W
LayerCount: 2
Fore
SplineSet
528 1093 m 1,0,-1
 442 657 l 2,1,2
 432 606 432 606 432 589 c 0,3,4
 432 570 432 570 488 563 c 1,5,-1
 547 560 l 1,6,-1
 538 516 l 1,7,-1
 165 516 l 1,8,-1
 174 560 l 1,9,-1
 235 563 l 2,10,11
 283 567 283 567 293 578 c 128,-1,12
 303 589 303 589 318 657 c 2,13,-1
 373 938 l 2,14,15
 378 960 378 960 378 978 c 0,16,17
 378 1004 378 1004 310 1013 c 2,18,-1
 265 1021 l 1,19,-1
 274 1066 l 1,20,-1
 528 1093 l 1,0,-1
160 -27 m 1,21,-1
 1180 1093 l 1,22,-1
 1280 1093 l 1,23,-1
 257 -27 l 1,24,-1
 160 -27 l 1,21,-1
778 0 m 1,25,-1
 797 103 l 1,26,27
 952 197 952 197 1045 288 c 128,-1,28
 1138 379 1138 379 1138 436 c 0,29,30
 1138 530 1138 530 1053 530 c 0,31,32
 942 530 942 530 922 413 c 1,33,-1
 868 413 l 1,34,-1
 895 544 l 1,35,36
 989 578 989 578 1075 578 c 0,37,38
 1264 578 1264 578 1264 445 c 0,39,40
 1264 373 1264 373 1214.5 328 c 128,-1,41
 1165 283 1165 283 887 103 c 1,42,-1
 1197 103 l 1,43,-1
 1177 0 l 1,44,-1
 778 0 l 1,25,-1
EndSplineSet
EndChar

StartChar: onequarter
Encoding: 188 188 148
Width: 1262
Flags: W
LayerCount: 2
Fore
SplineSet
546 1093 m 1,0,-1
 460 657 l 2,1,2
 450 606 450 606 450 589 c 0,3,4
 450 570 450 570 506 563 c 1,5,-1
 565 560 l 1,6,-1
 556 516 l 1,7,-1
 183 516 l 1,8,-1
 192 560 l 1,9,-1
 253 563 l 2,10,11
 301 567 301 567 311 578 c 128,-1,12
 321 589 321 589 336 657 c 2,13,-1
 391 938 l 2,14,15
 396 960 396 960 396 978 c 0,16,17
 396 1004 396 1004 328 1013 c 2,18,-1
 283 1021 l 1,19,-1
 292 1066 l 1,20,-1
 546 1093 l 1,0,-1
178 -27 m 1,21,-1
 1198 1093 l 1,22,-1
 1298 1093 l 1,23,-1
 275 -27 l 1,24,-1
 178 -27 l 1,21,-1
981 164 m 1,25,-1
 732 182 l 1,26,-1
 747 261 l 1,27,-1
 1102 578 l 1,28,-1
 1170 578 l 1,29,-1
 1102 236 l 1,30,-1
 1212 229 l 1,31,-1
 1168 149 l 1,32,-1
 1086 157 l 1,33,34
 1076 102 1076 102 1076 74 c 0,35,36
 1076 52 1076 52 1129 49 c 2,37,-1
 1189 45 l 1,38,-1
 1180 0 l 1,39,-1
 820 0 l 1,40,-1
 829 45 l 1,41,-1
 886 49 l 2,42,43
 937 52 937 52 952 64 c 128,-1,44
 967 76 967 76 973 117 c 0,45,46
 976 134 976 134 981 164 c 1,25,-1
997 244 m 1,47,-1
 1038 446 l 1,48,-1
 823 255 l 1,49,-1
 997 244 l 1,47,-1
EndSplineSet
EndChar

StartChar: threequarters
Encoding: 190 190 149
Width: 1262
Flags: W
LayerCount: 2
Fore
SplineSet
174 545 m 1,0,-1
 247 620 l 1,1,2
 326 556 326 556 407 556 c 0,3,4
 448 556 448 556 478.5 587 c 128,-1,5
 509 618 509 618 509 661 c 0,6,7
 509 776 509 776 333 776 c 0,8,9
 311 776 311 776 289 773 c 1,10,-1
 319 859 l 1,11,12
 338 860 338 860 355 860 c 0,13,14
 401 860 401 860 455 849 c 1,15,16
 535 886 535 886 535 961 c 0,17,18
 535 1046 535 1046 442 1046 c 0,19,20
 354 1046 354 1046 330 941 c 1,21,-1
 277 941 l 1,22,-1
 301 1057 l 1,23,24
 387 1093 387 1093 472 1093 c 0,25,26
 651 1093 651 1093 651 984 c 0,27,28
 651 893 651 893 508 829 c 1,29,30
 614 790 614 790 614 693 c 0,31,32
 614 616 614 616 543 563 c 128,-1,33
 472 510 472 510 366 510 c 0,34,35
 277 510 277 510 174 545 c 1,0,-1
178 -27 m 1,36,-1
 1198 1093 l 1,37,-1
 1298 1093 l 1,38,-1
 275 -27 l 1,39,-1
 178 -27 l 1,36,-1
981 164 m 1,40,-1
 732 182 l 1,41,-1
 747 261 l 1,42,-1
 1102 578 l 1,43,-1
 1170 578 l 1,44,-1
 1102 236 l 1,45,-1
 1212 229 l 1,46,-1
 1168 149 l 1,47,-1
 1086 157 l 1,48,49
 1076 102 1076 102 1076 74 c 0,50,51
 1076 52 1076 52 1129 49 c 2,52,-1
 1189 45 l 1,53,-1
 1180 0 l 1,54,-1
 820 0 l 1,55,-1
 829 45 l 1,56,-1
 886 49 l 2,57,58
 938 52 938 52 952.5 64 c 128,-1,59
 967 76 967 76 973 117 c 0,60,61
 976 134 976 134 981 164 c 1,40,-1
997 244 m 1,62,-1
 1038 446 l 1,63,-1
 823 255 l 1,64,-1
 997 244 l 1,62,-1
EndSplineSet
EndChar

StartChar: macron
Encoding: 175 175 150
Width: 1118
Flags: W
LayerCount: 2
Fore
SplineSet
1134 1659 m 1,0,-1
 -16 1659 l 1,1,-1
 -16 1789 l 1,2,-1
 1134 1789 l 1,3,-1
 1134 1659 l 1,0,-1
EndSplineSet
EndChar

StartChar: periodcentered
Encoding: 183 183 151
Width: 724
Flags: W
LayerCount: 2
Fore
SplineSet
482 832 m 1,0,-1
 243 832 l 1,1,-1
 243 1117 l 1,2,-1
 482 1117 l 1,3,-1
 482 832 l 1,0,-1
EndSplineSet
EndChar

StartChar: H22073
Encoding: 9633 9633 152
Width: 1237
Flags: W
LayerCount: 2
Fore
SplineSet
146 944 m 1,0,-1
 1090 944 l 1,1,-1
 1090 0 l 1,2,-1
 146 0 l 1,3,-1
 146 944 l 1,0,-1
222 868 m 1,4,-1
 222 76 l 1,5,-1
 1014 76 l 1,6,-1
 1014 868 l 1,7,-1
 222 868 l 1,4,-1
EndSplineSet
EndChar

StartChar: H18543
Encoding: 9642 9642 153
Width: 1089
Flags: W
LayerCount: 2
Fore
SplineSet
886 994 m 1,0,-1
 886 300 l 1,1,-1
 192 300 l 1,2,-1
 192 994 l 1,3,-1
 886 994 l 1,0,-1
EndSplineSet
EndChar

StartChar: H18551
Encoding: 9643 9643 154
Width: 1089
Flags: W
LayerCount: 2
Fore
SplineSet
888 996 m 1,0,-1
 888 301 l 1,1,-1
 193 301 l 1,2,-1
 193 996 l 1,3,-1
 888 996 l 1,0,-1
774 882 m 1,4,-1
 307 882 l 1,5,-1
 307 415 l 1,6,-1
 774 415 l 1,7,-1
 774 882 l 1,4,-1
EndSplineSet
EndChar

StartChar: H18533
Encoding: 9679 9679 155
Width: 1339
Flags: W
LayerCount: 2
Fore
SplineSet
204 719 m 0,0,1
 204 920 204 920 345 1061 c 128,-1,2
 486 1202 486 1202 685 1202 c 0,3,4
 885 1202 885 1202 1026 1061 c 128,-1,5
 1167 920 1167 920 1167 719 c 0,6,7
 1167 521 1167 521 1026 380 c 128,-1,8
 885 239 885 239 685 239 c 0,9,10
 486 239 486 239 345 380 c 128,-1,11
 204 521 204 521 204 719 c 0,0,1
EndSplineSet
EndChar

StartChar: openbullet
Encoding: 9702 9702 156
Width: 1089
Flags: W
LayerCount: 2
Fore
SplineSet
544 1171 m 0,0,1
 700 1171 700 1171 810.5 1060.5 c 128,-1,2
 921 950 921 950 921 794 c 256,3,4
 921 638 921 638 810.5 528 c 128,-1,5
 700 418 700 418 544 418 c 256,6,7
 388 418 388 418 278 528 c 128,-1,8
 168 638 168 638 168 794 c 256,9,10
 168 950 168 950 277.5 1060.5 c 128,-1,11
 387 1171 387 1171 544 1171 c 0,0,1
544 1057 m 0,12,13
 435 1057 435 1057 358.5 979.5 c 128,-1,14
 282 902 282 902 282 794 c 0,15,16
 282 685 282 685 359 608.5 c 128,-1,17
 436 532 436 532 544 532 c 256,18,19
 652 532 652 532 729.5 608.5 c 128,-1,20
 807 685 807 685 807 794 c 0,21,22
 807 902 807 902 730.5 979.5 c 128,-1,23
 654 1057 654 1057 544 1057 c 0,12,13
EndSplineSet
EndChar

StartChar: currency
Encoding: 164 164 157
Width: 932
Flags: W
LayerCount: 2
Fore
SplineSet
769 322 m 1,0,-1
 879 184 l 1,1,-1
 841 153 l 1,2,-1
 732 292 l 1,3,4
 616 214 616 214 504 214 c 0,5,6
 394 214 394 214 310 292 c 1,7,-1
 145 153 l 1,8,-1
 120 184 l 1,9,-1
 286 322 l 1,10,11
 243 397 243 397 243 470 c 0,12,13
 243 613 243 613 369 743 c 1,14,-1
 259 882 l 1,15,-1
 297 913 l 1,16,-1
 407 775 l 1,17,18
 521 852 521 852 634 852 c 0,19,20
 744 852 744 852 828 775 c 1,21,-1
 994 913 l 1,22,-1
 1019 882 l 1,23,-1
 852 743 l 1,24,25
 895 668 895 668 895 596 c 0,26,27
 895 455 895 455 769 322 c 1,0,-1
818 579 m 0,28,29
 818 666 818 666 762 721.5 c 128,-1,30
 706 777 706 777 620 777 c 0,31,32
 502 777 502 777 411 688 c 128,-1,33
 320 599 320 599 320 485 c 0,34,35
 320 400 320 400 376.5 344.5 c 128,-1,36
 433 289 433 289 519 289 c 0,37,38
 635 289 635 289 726.5 377.5 c 128,-1,39
 818 466 818 466 818 579 c 0,28,29
EndSplineSet
EndChar

StartChar: uniFFFC
Encoding: 65532 65532 158
Width: 2048
Flags: W
LayerCount: 2
Fore
SplineSet
2048 1150 m 1,0,-1
 1948 1150 l 1,1,-1
 1948 1373 l 1,2,-1
 1725 1373 l 1,3,-1
 1725 1473 l 1,4,-1
 2048 1473 l 1,5,-1
 2048 1150 l 1,0,-1
1473 1373 m 1,6,-1
 1150 1373 l 1,7,-1
 1150 1473 l 1,8,-1
 1473 1473 l 1,9,-1
 1473 1373 l 1,6,-1
2048 575 m 1,10,-1
 1948 575 l 1,11,-1
 1948 898 l 1,12,-1
 2048 898 l 1,13,-1
 2048 575 l 1,10,-1
1782 611 m 2,14,15
 1782 370 1782 370 1571 370 c 0,16,17
 1485 370 1485 370 1433 415 c 1,18,-1
 1506 494 l 1,19,20
 1531 468 1531 468 1571 468 c 0,21,22
 1666 468 1666 468 1666 606 c 2,23,-1
 1666 1090 l 1,24,-1
 1782 1090 l 1,25,-1
 1782 611 l 2,14,15
898 1373 m 1,26,-1
 575 1373 l 1,27,-1
 575 1473 l 1,28,-1
 898 1473 l 1,29,-1
 898 1373 l 1,26,-1
2048 0 m 1,30,-1
 1725 0 l 1,31,-1
 1725 100 l 1,32,-1
 1948 100 l 1,33,-1
 1948 323 l 1,34,-1
 2048 323 l 1,35,-1
 2048 0 l 1,30,-1
1423 591 m 0,36,37
 1423 382 1423 382 1149 382 c 2,38,-1
 909 382 l 1,39,-1
 909 1090 l 1,40,-1
 1144 1090 l 2,41,42
 1393 1090 1393 1090 1393 904 c 0,43,44
 1393 813 1393 813 1304 759 c 1,45,46
 1423 713 1423 713 1423 591 c 0,36,37
323 1373 m 1,47,-1
 100 1373 l 1,48,-1
 100 1150 l 1,49,-1
 0 1150 l 1,50,-1
 0 1473 l 1,51,-1
 323 1473 l 1,52,-1
 323 1373 l 1,47,-1
1473 0 m 1,53,-1
 1150 0 l 1,54,-1
 1150 100 l 1,55,-1
 1473 100 l 1,56,-1
 1473 0 l 1,53,-1
854 735 m 0,57,58
 854 562 854 562 772 466 c 128,-1,59
 690 370 690 370 537 370 c 256,60,61
 384 370 384 370 303.5 466 c 128,-1,62
 223 562 223 562 223 735 c 0,63,64
 223 910 223 910 303.5 1006 c 128,-1,65
 384 1102 384 1102 537 1102 c 256,66,67
 690 1102 690 1102 772 1006 c 128,-1,68
 854 910 854 910 854 735 c 0,57,58
100 575 m 1,69,-1
 0 575 l 1,70,-1
 0 898 l 1,71,-1
 100 898 l 1,72,-1
 100 575 l 1,69,-1
898 0 m 1,73,-1
 575 0 l 1,74,-1
 575 100 l 1,75,-1
 898 100 l 1,76,-1
 898 0 l 1,73,-1
323 0 m 1,77,-1
 0 0 l 1,78,-1
 0 323 l 1,79,-1
 100 323 l 1,80,-1
 100 100 l 1,81,-1
 323 100 l 1,82,-1
 323 0 l 1,77,-1
1277 893 m 0,83,84
 1277 992 1277 992 1114 992 c 2,85,-1
 1025 992 l 1,86,-1
 1025 798 l 1,87,-1
 1126 798 l 2,88,89
 1277 798 1277 798 1277 893 c 0,83,84
1307 591 m 0,90,91
 1307 700 1307 700 1136 700 c 2,92,-1
 1025 700 l 1,93,-1
 1025 480 l 1,94,-1
 1149 480 l 2,95,96
 1307 480 1307 480 1307 591 c 0,90,91
738 735 m 0,97,98
 738 1004 738 1004 537 1004 c 0,99,100
 339 1004 339 1004 339 735 c 0,101,102
 339 468 339 468 537 468 c 0,103,104
 738 468 738 468 738 735 c 0,97,98
EndSplineSet
EndChar

StartChar: dotbelowcomb
Encoding: 65538 -1 160
Width: 0
Flags: W
LayerCount: 2
Fore
SplineSet
666 -382 m 1,0,-1
 452 -382 l 1,1,-1
 452 -187 l 1,2,-1
 666 -187 l 1,3,-1
 666 -382 l 1,0,-1
EndSplineSet
EndChar

StartChar: zerowidthnonjoiner
Encoding: 8204 8204 175
Width: 0
GlyphClass: 2
Flags: W
LayerCount: 2
Fore
SplineSet
36 1289 m 1,0,-1
 36 -275 l 1,1,-1
 -36 -275 l 1,2,-1
 -36 1289 l 1,3,-1
 36 1289 l 1,0,-1
EndSplineSet
EndChar

StartChar: zerowidthjoiner
Encoding: 8205 8205 176
Width: 0
GlyphClass: 2
Flags: W
LayerCount: 2
Fore
SplineSet
36 -275 m 1,0,-1
 -36 -275 l 1,1,-1
 -36 1114 l 1,2,-1
 -170 978 l 1,3,-1
 -219 1027 l 1,4,-1
 -48 1196 l 1,5,-1
 -219 1364 l 1,6,-1
 -170 1413 l 1,7,-1
 0 1242 l 1,8,-1
 170 1413 l 1,9,-1
 219 1364 l 1,10,-1
 48 1196 l 1,11,-1
 219 1027 l 1,12,-1
 170 978 l 1,13,-1
 36 1114 l 1,14,-1
 36 -275 l 1,0,-1
EndSplineSet
EndChar

StartChar: lefttorightmark
Encoding: 8206 8206 177
Width: 0
GlyphClass: 2
Flags: W
LayerCount: 2
Fore
SplineSet
430 1198 m 1,0,-1
 213 984 l 1,1,-1
 164 1033 l 1,2,-1
 301 1163 l 1,3,-1
 35 1163 l 1,4,-1
 35 -275 l 1,5,-1
 -36 -275 l 1,6,-1
 -36 1234 l 1,7,-1
 301 1234 l 1,8,-1
 164 1364 l 1,9,-1
 213 1413 l 1,10,-1
 430 1198 l 1,0,-1
EndSplineSet
EndChar

StartChar: righttoleftmark
Encoding: 8207 8207 178
Width: 0
GlyphClass: 2
Flags: W
LayerCount: 2
Fore
SplineSet
35 -275 m 1,0,-1
 -36 -275 l 1,1,-1
 -36 1163 l 1,2,-1
 -302 1163 l 1,3,-1
 -165 1033 l 1,4,-1
 -214 984 l 1,5,-1
 -431 1198 l 1,6,-1
 -214 1413 l 1,7,-1
 -165 1364 l 1,8,-1
 -302 1234 l 1,9,-1
 35 1234 l 1,10,-1
 35 -275 l 1,0,-1
EndSplineSet
EndChar

StartChar: afii57388.001
Encoding: 1644 1644 179
Width: 325
GlyphClass: 2
Flags: W
LayerCount: 2
Fore
SplineSet
193 602 m 0,0,1
 188 589 188 589 182 577.5 c 128,-1,2
 176 566 176 566 170 555 c 0,3,4
 160 543 160 543 148.5 542.5 c 128,-1,5
 137 542 137 542 143 555 c 0,6,7
 172 607 172 607 186.5 656.5 c 128,-1,8
 201 706 201 706 201 736 c 1,9,10
 179 741 179 741 165 750.5 c 128,-1,11
 151 760 151 760 143 770.5 c 128,-1,12
 135 781 135 781 132 790 c 128,-1,13
 129 799 129 799 129 804 c 0,14,15
 129 819 129 819 134 834.5 c 128,-1,16
 139 850 139 850 148 862.5 c 128,-1,17
 157 875 157 875 169 883 c 128,-1,18
 181 891 181 891 196 891 c 0,19,20
 250 891 250 891 250 804 c 0,21,22
 250 790 250 790 246 768 c 128,-1,23
 242 746 242 746 235 719 c 128,-1,24
 228 692 228 692 217 662 c 128,-1,25
 206 632 206 632 193 602 c 0,0,1
EndSplineSet
EndChar

StartChar: afii57409
Encoding: 1569 1569 180
Width: 623
GlyphClass: 2
Flags: W
AnchorPoint: "Anchor-3" 330 -285 basechar 0
AnchorPoint: "Anchor-2" 255 690 basechar 0
LayerCount: 2
Fore
SplineSet
372 362 m 1,0,1
 353 388 353 388 337 398 c 128,-1,2
 321 408 321 408 295 408 c 0,3,4
 258 408 258 408 224 389 c 128,-1,5
 190 370 190 370 190 350 c 0,6,7
 190 335 190 335 204 318 c 128,-1,8
 218 301 218 301 240 288 c 0,9,10
 279 265 279 265 329 265 c 0,11,12
 368 265 368 265 431 281.5 c 128,-1,13
 494 298 494 298 558 325 c 2,14,-1
 578 333 l 1,15,16
 571 309 571 309 559.5 283 c 128,-1,17
 548 257 548 257 537 241 c 0,18,19
 522 221 522 221 502 208.5 c 128,-1,20
 482 196 482 196 447 185 c 2,21,-1
 413 174 l 2,22,23
 302 139 302 139 242.5 98.5 c 128,-1,24
 183 58 183 58 155 -1 c 1,25,26
 137 26 137 26 137 51 c 0,27,28
 137 78 137 78 150 104.5 c 128,-1,29
 163 131 163 131 194 167 c 1,30,31
 142 197 142 197 124.5 220 c 128,-1,32
 107 243 107 243 107 282 c 0,33,34
 107 362 107 362 187 441 c 0,35,36
 265 518 265 518 342 518 c 0,37,38
 378 518 378 518 402.5 497.5 c 128,-1,39
 427 477 427 477 427 446 c 0,40,41
 427 400 427 400 372 362 c 1,0,1
EndSplineSet
EndChar

StartChar: afii57440
Encoding: 1600 1600 181
Width: 525
GlyphClass: 2
Flags: W
LayerCount: 2
Fore
SplineSet
2 142 m 1,0,-1
 525 142 l 2,1,2
 555 142 555 142 565 139 c 128,-1,3
 575 136 575 136 579 125 c 2,4,-1
 580 121 l 2,5,6
 581 119 581 119 581 118 c 2,7,-1
 581 32 l 2,8,9
 581 17 581 17 566 8.5 c 128,-1,10
 551 0 551 0 525 0 c 2,11,-1
 -3 0 l 2,12,13
 -24 0 -24 0 -39 9.5 c 128,-1,14
 -54 19 -54 19 -54 33 c 2,15,-1
 -54 118 l 2,16,17
 -54 119 -54 119 -54 121 c 2,18,-1
 -53 126 l 2,19,20
 -47 142 -47 142 -29 142 c 2,21,-1
 2 142 l 1,0,-1
EndSplineSet
EndChar

StartChar: afii57453
Encoding: 1613 1613 182
Width: 0
GlyphClass: 4
Flags: W
AnchorPoint: "Anchor-3" 0 0 mark 0
AnchorPoint: "Anchor-1" 0 0 mark 0
LayerCount: 2
Fore
SplineSet
184 271 m 1,0,1
 184 232 184 232 162 201 c 0,2,3
 148 180 148 180 120.5 162 c 128,-1,4
 93 144 93 144 -52 77 c 1,5,-1
 -88 59 l 2,6,7
 -108 49 -108 49 -121 41 c 2,8,-1
 -148 26 l 1,9,-1
 -169 14 l 1,10,-1
 -182 6 l 2,11,12
 -188 3 -188 3 -191 1 c 2,13,-1
 -194 1 l 1,14,-1
 -196 1 l 2,15,16
 -198 3 -198 3 -198 5 c 256,17,18
 -198 7 -198 7 -196 12 c 0,19,20
 -194 15 -194 15 -189 27 c 0,21,22
 -172 63 -172 63 -161.5 80.5 c 128,-1,23
 -151 98 -151 98 -140 106 c 0,24,25
 -115 123 -115 123 60 203 c 0,26,27
 150 246 150 246 184 271 c 1,0,1
184 106 m 1,28,29
 184 66 184 66 162 35 c 0,30,31
 148 15 148 15 120.5 -3 c 128,-1,32
 93 -21 93 -21 -52 -88 c 1,33,-1
 -88 -107 l 2,34,35
 -108 -117 -108 -117 -121 -124 c 2,36,-1
 -148 -140 l 1,37,-1
 -169 -152 l 1,38,-1
 -182 -160 l 2,39,40
 -188 -163 -188 -163 -191 -165 c 2,41,-1
 -194 -165 l 1,42,-1
 -196 -165 l 2,43,44
 -198 -163 -198 -163 -198 -161 c 0,45,46
 -198 -158 -198 -158 -196 -154 c 0,47,48
 -194 -151 -194 -151 -189 -139 c 0,49,50
 -172 -103 -172 -103 -161.5 -85.5 c 128,-1,51
 -151 -68 -151 -68 -140 -60 c 0,52,53
 -115 -42 -115 -42 60 38 c 0,54,55
 150 80 150 80 184 106 c 1,28,29
EndSplineSet
EndChar

StartChar: afii57455.001
Encoding: 65539 -1 183
Width: 456
GlyphClass: 4
Flags: W
LayerCount: 2
Fore
SplineSet
400 1600 m 1,0,-1
 393 1505 l 1,1,-1
 316 1557 l 1,2,3
 200 1417 200 1417 125 1417 c 0,4,5
 107 1417 107 1417 68 1428 c 1,6,7
 167 1483 167 1483 273 1578 c 1,8,9
 215 1623 215 1623 215 1665 c 0,10,11
 215 1723 215 1723 259 1786 c 0,12,13
 288 1827 288 1827 327 1827 c 0,14,15
 393 1827 393 1827 393 1742 c 0,16,17
 393 1696 393 1696 362 1629 c 1,18,19
 376 1620 376 1620 400 1600 c 1,0,-1
333 1685 m 0,20,21
 333 1707 333 1707 318.5 1725.5 c 128,-1,22
 304 1744 304 1744 282 1744 c 0,23,24
 264 1744 264 1744 264 1725 c 0,25,26
 264 1696 264 1696 327 1653 c 1,27,28
 333 1673 333 1673 333 1685 c 0,20,21
EndSplineSet
EndChar

StartChar: afii57458.001
Encoding: 65540 -1 184
Width: 347
GlyphClass: 4
Flags: W
LayerCount: 2
Fore
SplineSet
49 526 m 0,0,1
 49 573 49 573 80 613 c 0,2,3
 115 654 115 654 152 654 c 0,4,5
 206 654 206 654 239 608 c 0,6,7
 272 558 272 558 272 489 c 0,8,9
 272 437 272 437 248 411 c 0,10,11
 222 384 222 384 178 384 c 0,12,13
 148 384 148 384 121 402 c 128,-1,14
 94 420 94 420 87 428 c 0,15,16
 49 472 49 472 49 526 c 0,0,1
87 504 m 1,17,18
 224 443 224 443 243 522 c 1,19,20
 243 545 243 545 229 564 c 1,21,22
 213 578 213 578 191 578 c 256,23,24
 169 578 169 578 134 555 c 0,25,26
 87 524 87 524 87 504 c 1,17,18
EndSplineSet
EndChar

StartChar: afii57381
Encoding: 1642 1642 185
Width: 942
GlyphClass: 2
Flags: W
LayerCount: 2
Fore
SplineSet
202 -121 m 1,0,-1
 719 1228 l 1,1,-1
 798 1197 l 1,2,-1
 282 -153 l 1,3,-1
 202 -121 l 1,0,-1
864 48 m 256,4,5
 864 10 864 10 837 -17 c 128,-1,6
 810 -44 810 -44 772 -44 c 0,7,8
 733 -44 733 -44 706 -17 c 128,-1,9
 679 10 679 10 679 49 c 0,10,11
 679 86 679 86 706 113.5 c 128,-1,12
 733 141 733 141 771 141 c 0,13,14
 811 141 811 141 837.5 113.5 c 128,-1,15
 864 86 864 86 864 48 c 256,4,5
295 1044 m 0,16,17
 295 1007 295 1007 268 980 c 128,-1,18
 241 953 241 953 203 953 c 256,19,20
 165 953 165 953 137.5 980 c 128,-1,21
 110 1007 110 1007 110 1046 c 0,22,23
 110 1084 110 1084 137.5 1111 c 128,-1,24
 165 1138 165 1138 202 1138 c 0,25,26
 242 1138 242 1138 268.5 1111 c 128,-1,27
 295 1084 295 1084 295 1044 c 0,16,17
EndSplineSet
EndChar

StartChar: afii57461
Encoding: 1643 1643 186
Width: 906
GlyphClass: 2
Flags: W
LayerCount: 2
Fore
SplineSet
109 -479 m 1,0,-1
 709 462 l 1,1,-1
 814 462 l 1,2,-1
 213 -479 l 1,3,-1
 109 -479 l 1,0,-1
EndSplineSet
EndChar

StartChar: afii63167
Encoding: 1645 1645 187
Width: 1029
GlyphClass: 2
Flags: W
LayerCount: 2
Fore
SplineSet
638 671 m 1,0,-1
 972 674 l 1,1,-1
 972 561 l 1,2,-1
 646 563 l 1,3,-1
 893 324 l 1,4,-1
 812 243 l 1,5,-1
 567 496 l 1,6,-1
 573 155 l 1,7,-1
 458 155 l 1,8,-1
 462 496 l 1,9,-1
 217 243 l 1,10,-1
 135 324 l 1,11,-1
 388 565 l 1,12,-1
 58 561 l 1,13,-1
 58 674 l 1,14,-1
 386 671 l 1,15,-1
 156 897 l 1,16,-1
 237 980 l 1,17,-1
 462 752 l 1,18,-1
 458 1082 l 1,19,-1
 573 1082 l 1,20,-1
 567 748 l 1,21,-1
 791 980 l 1,22,-1
 872 897 l 1,23,-1
 638 671 l 1,0,-1
EndSplineSet
EndChar

StartChar: afii57459
Encoding: 65541 -1 188
Width: 467
GlyphClass: 2
Flags: W
LayerCount: 2
Fore
SplineSet
168 408 m 1,0,1
 190 385 190 385 219 385 c 0,2,3
 245 385 245 385 266 399 c 128,-1,4
 287 413 287 413 287 431 c 0,5,6
 287 457 287 457 259 489 c 0,7,8
 232 518 232 518 221 518 c 0,9,10
 207 518 207 518 187.5 477 c 128,-1,11
 168 436 168 436 168 408 c 1,0,1
351 349 m 1,12,13
 335 337 335 337 324 319 c 0,14,15
 311 299 311 299 301.5 290.5 c 128,-1,16
 292 282 292 282 273 273 c 0,17,18
 241 259 241 259 198 259 c 0,19,20
 146 259 146 259 122 281.5 c 128,-1,21
 98 304 98 304 98 351 c 0,22,23
 98 445 98 445 144 551 c 0,24,25
 192 662 192 662 248 662 c 0,26,27
 281 662 281 662 322.5 621.5 c 128,-1,28
 364 581 364 581 390 523 c 0,29,30
 438 420 438 420 438 314 c 0,31,32
 438 226 438 226 407 158 c 0,33,34
 387 115 387 115 348 87 c 128,-1,35
 309 59 309 59 238 38 c 0,36,37
 183 21 183 21 121.5 11 c 128,-1,38
 60 1 60 1 12 1 c 0,39,40
 -22 1 -22 1 -38 9 c 128,-1,41
 -54 17 -54 17 -54 33 c 2,42,-1
 -54 120 l 2,43,44
 -54 121 -54 121 -54 123 c 2,45,-1
 -53 128 l 2,46,47
 -47 144 -47 144 -18 144 c 2,48,-1
 1 144 l 1,49,-1
 18 144 l 2,50,51
 52 144 52 144 112.5 150.5 c 128,-1,52
 173 157 173 157 202 164 c 0,53,54
 301 185 301 185 358 224 c 0,55,56
 376 236 376 236 381.5 245 c 128,-1,57
 387 254 387 254 387 270 c 0,58,59
 387 321 387 321 351 349 c 1,12,13
EndSplineSet
EndChar

StartChar: afii57543
Encoding: 65542 -1 189
Width: 419
Flags: W
LayerCount: 2
Fore
SplineSet
-54 108 m 2,0,1
 -54 129 -54 129 -43.5 137 c 128,-1,2
 -33 145 -33 145 -15 145 c 0,3,4
 40 145 40 145 80 155 c 128,-1,5
 120 165 120 165 148 179 c 128,-1,6
 176 193 176 193 194 210 c 128,-1,7
 212 227 212 227 224 241.5 c 128,-1,8
 236 256 236 256 245.5 265.5 c 128,-1,9
 255 275 255 275 264 275 c 0,10,11
 274 275 274 275 278 265.5 c 128,-1,12
 282 256 282 256 286 241.5 c 128,-1,13
 290 227 290 227 296.5 210 c 128,-1,14
 303 193 303 193 318 179 c 128,-1,15
 333 165 333 165 360.5 155 c 128,-1,16
 388 145 388 145 433 145 c 0,17,18
 452 145 452 145 462.5 137 c 128,-1,19
 473 129 473 129 473 108 c 2,20,-1
 473 38 l 2,21,22
 473 17 473 17 455 8.5 c 128,-1,23
 437 0 437 0 419 0 c 0,24,25
 392 0 392 0 370.5 5 c 128,-1,26
 349 10 349 10 332 18.5 c 128,-1,27
 315 27 315 27 302 37.5 c 128,-1,28
 289 48 289 48 279 58 c 0,29,30
 259 81 259 81 248.5 99 c 128,-1,31
 238 117 238 117 228 117 c 256,32,33
 218 117 218 117 201 98.5 c 128,-1,34
 184 80 184 80 157 58.5 c 128,-1,35
 130 37 130 37 91 18.5 c 128,-1,36
 52 0 52 0 0 0 c 0,37,38
 -18 0 -18 0 -36 8.5 c 128,-1,39
 -54 17 -54 17 -54 38 c 2,40,-1
 -54 108 l 2,0,1
EndSplineSet
EndChar

StartChar: afii57534
Encoding: 1749 1749 190
Width: 535
GlyphClass: 2
Flags: W
LayerCount: 2
Fore
SplineSet
154 201 m 1,0,1
 214 149 214 149 282 149 c 0,2,3
 305 149 305 149 335.5 157 c 128,-1,4
 366 165 366 165 391 177 c 1,5,-1
 391 189 l 2,6,7
 391 249 391 249 362 286 c 0,8,9
 339 313 339 313 307.5 330.5 c 128,-1,10
 276 348 276 348 248 348 c 0,11,12
 214 348 214 348 192 314 c 128,-1,13
 170 280 170 280 154 201 c 1,0,1
236 0 m 0,14,15
 181 0 181 0 134 43 c 0,16,17
 85 89 85 89 85 158 c 0,18,19
 85 245 85 245 132 367 c 0,20,21
 191 518 191 518 260 518 c 0,22,23
 291 518 291 518 326.5 494 c 128,-1,24
 362 470 362 470 391 429 c 0,25,26
 459 334 459 334 459 219 c 0,27,28
 459 153 459 153 441 95 c 0,29,30
 433 71 433 71 420 61 c 0,31,32
 388 39 388 39 330 19.5 c 128,-1,33
 272 0 272 0 236 0 c 0,14,15
EndSplineSet
EndChar

StartChar: afii64240
Encoding: 65543 -1 191
Width: 351
Flags: W
LayerCount: 2
Fore
SplineSet
148 226 m 1,0,1
 213 161 213 161 270 129 c 1,2,3
 244 98 244 98 228.5 75 c 128,-1,4
 213 52 213 52 189 5 c 1,5,6
 134 52 134 52 67 91 c 2,7,-1
 56 98 l 1,8,9
 66 109 66 109 72 115 c 2,10,-1
 92 144 l 1,11,-1
 112 172 l 2,12,13
 134 202 134 202 148 226 c 1,0,1
EndSplineSet
EndChar

StartChar: afii64241
Encoding: 65544 -1 192
Width: 430
Flags: W
LayerCount: 2
Fore
SplineSet
100 198 m 1,0,1
 157 151 157 151 197 127 c 2,2,-1
 214 117 l 1,3,4
 253 167 253 167 277 210 c 1,5,-1
 282 217 l 1,6,7
 291 211 291 211 293 208 c 2,8,-1
 312 193 l 2,9,10
 339 171 339 171 373 152 c 2,11,-1
 393 140 l 2,12,13
 397 138 397 138 408 131 c 1,14,15
 363 85 363 85 327 12 c 1,16,17
 276 61 276 61 218 92 c 1,18,19
 188 56 188 56 154 -16 c 1,20,21
 121 20 121 20 55 63 c 2,22,-1
 33 77 l 2,23,24
 31 79 31 79 23 85 c 1,25,26
 73 144 73 144 100 198 c 1,0,1
EndSplineSet
EndChar

StartChar: afii63954
Encoding: 65545 -1 193
Width: 497
Flags: W
LayerCount: 2
Fore
SplineSet
130 205 m 1,0,1
 186 159 186 159 226 134 c 2,2,-1
 243 124 l 1,3,4
 282 174 282 174 306 217 c 1,5,-1
 311 224 l 1,6,7
 320 218 320 218 322 216 c 2,8,-1
 341 201 l 2,9,10
 369 178 369 178 401 159 c 2,11,-1
 422 147 l 2,12,13
 425 145 425 145 437 138 c 1,14,15
 393 92 393 92 356 19 c 1,16,17
 305 68 305 68 247 99 c 1,18,19
 217 63 217 63 183 -8 c 1,20,21
 149 28 149 28 85 70 c 2,22,-1
 63 85 l 2,23,24
 61 86 61 86 52 92 c 1,25,26
 101 152 101 152 130 205 c 1,0,1
191 412 m 1,27,-1
 201 403 l 2,28,29
 259 346 259 346 314 316 c 1,30,31
 288 286 288 286 273 262.5 c 128,-1,32
 258 239 258 239 233 191 c 1,33,34
 177 239 177 239 111 277 c 2,35,-1
 100 283 l 1,36,-1
 113 301 l 2,37,38
 170 374 170 374 191 412 c 1,27,-1
EndSplineSet
EndChar

StartChar: afii57382
Encoding: 65546 -1 194
Width: 445
Flags: W
LayerCount: 2
Fore
SplineSet
289 -2 m 1,0,1
 317 -30 317 -30 349.5 -54.5 c 128,-1,2
 382 -79 382 -79 419 -100 c 1,3,4
 395 -129 395 -129 376.5 -157.5 c 128,-1,5
 358 -186 358 -186 343 -217 c 1,6,7
 316 -193 316 -193 288 -171.5 c 128,-1,8
 260 -150 260 -150 231 -134 c 1,9,10
 211 -158 211 -158 192.5 -183.5 c 128,-1,11
 174 -209 174 -209 163 -237 c 1,12,13
 133 -213 133 -213 102.5 -189 c 128,-1,14
 72 -165 72 -165 35 -149 c 1,15,16
 57 -121 57 -121 78.5 -91 c 128,-1,17
 100 -61 100 -61 116 -29 c 1,18,19
 137 -52 137 -52 165 -72.5 c 128,-1,20
 193 -93 193 -93 224 -109 c 1,21,22
 245 -86 245 -86 261.5 -58.5 c 128,-1,23
 278 -31 278 -31 289 -2 c 1,0,1
238 -202 m 1,24,25
 270 -227 270 -227 302.5 -252.5 c 128,-1,26
 335 -278 335 -278 372 -296 c 1,27,28
 348 -326 348 -326 322 -358.5 c 128,-1,29
 296 -391 296 -391 280 -426 c 1,30,31
 251 -397 251 -397 220.5 -371 c 128,-1,32
 190 -345 190 -345 155 -328 c 1,33,34
 207 -271 207 -271 238 -202 c 1,24,25
EndSplineSet
EndChar

StartChar: afii64242
Encoding: 65547 -1 195
Width: 379
Flags: W
LayerCount: 2
Fore
SplineSet
245 489 m 1,0,1
 273 445 273 445 293 385 c 0,2,3
 305 355 305 355 312 315.5 c 128,-1,4
 319 276 319 276 319 251 c 0,5,6
 319 208 319 208 286 132 c 0,7,8
 263 80 263 80 247 53 c 0,9,10
 237 40 237 40 219 31.5 c 128,-1,11
 201 23 201 23 159 14 c 0,12,13
 100 2 100 2 46 2 c 2,14,-1
 0 2 l 2,15,16
 -26 2 -26 2 -40 10 c 128,-1,17
 -54 18 -54 18 -54 34 c 2,18,-1
 -54 124 l 1,19,-1
 -53 128 l 2,20,21
 -47 144 -47 144 -18 144 c 2,22,-1
 20 145 l 1,23,-1
 60 146 l 2,24,25
 129 146 129 146 175.5 160.5 c 128,-1,26
 222 175 222 175 253 204 c 1,27,28
 241 247 241 247 224.5 278.5 c 128,-1,29
 208 310 208 310 175 355 c 1,30,-1
 245 489 l 1,0,1
EndSplineSet
EndChar

StartChar: afii62881
Encoding: 59416 59416 196
Width: 0
GlyphClass: 4
Flags: W
AnchorPoint: "Anchor-2" 0 0 mark 0
AnchorPoint: "Anchor-0" 0 0 mark 0
LayerCount: 2
Fore
SplineSet
203 686 m 1,0,1
 197 636 197 636 173.5 610 c 128,-1,2
 150 584 150 584 84 555 c 2,3,-1
 38 534 l 2,4,5
 -7 513 -7 513 -54 490 c 2,6,-1
 -86 476 l 2,7,8
 -132 453 -132 453 -147 444 c 0,9,10
 -168 431 -168 431 -174 430 c 0,11,12
 -189 423 -189 423 -193 419 c 0,13,14
 -199 411 -199 411 -201 411 c 0,15,16
 -205 411 -205 411 -205 420 c 0,17,18
 -205 430 -205 430 -197 450 c 128,-1,19
 -189 470 -189 470 -180 481 c 0,20,21
 -171 493 -171 493 -148.5 506.5 c 128,-1,22
 -126 520 -126 520 -77 541 c 2,23,-1
 -40 558 l 2,24,25
 -28 564 -28 564 -5 575 c 2,26,-1
 31 592 l 1,27,-1
 67 609 l 2,28,29
 89 619 89 619 106 628 c 2,30,-1
 141 648 l 2,31,32
 167 662 167 662 189 676 c 0,33,34
 193 680 193 680 203 686 c 1,0,1
205 558 m 1,35,36
 199 509 199 509 175.5 483 c 128,-1,37
 152 457 152 457 86 427 c 2,38,-1
 40 407 l 2,39,40
 -6 385 -6 385 -53 363 c 2,41,-1
 -85 348 l 2,42,43
 -132 326 -132 326 -146 317 c 0,44,45
 -167 305 -167 305 -172 303 c 0,46,47
 -187 296 -187 296 -191 291 c 0,48,49
 -198 284 -198 284 -199 284 c 0,50,51
 -203 284 -203 284 -203 292 c 0,52,53
 -203 303 -203 303 -195.5 323 c 128,-1,54
 -188 343 -188 343 -179 353 c 0,55,56
 -169 366 -169 366 -146.5 379.5 c 128,-1,57
 -124 393 -124 393 -76 414 c 2,58,-1
 -39 431 l 2,59,60
 -27 437 -27 437 -4 447 c 2,61,-1
 33 465 l 1,62,-1
 68 481 l 2,63,64
 90 492 90 492 107 501 c 2,65,-1
 142 521 l 2,66,67
 167 535 167 535 190 549 c 0,68,69
 195 552 195 552 205 558 c 1,35,36
170 306 m 1,70,71
 168 298 168 298 167 286 c 2,72,-1
 165 249 l 1,73,-1
 164 217 l 2,74,75
 164 191 164 191 158.5 159.5 c 128,-1,76
 153 128 153 128 144 109 c 0,77,78
 120 50 120 50 69 50 c 0,79,80
 44 50 44 50 8 68 c 1,81,82
 -55 -3 -55 -3 -115 -3 c 0,83,84
 -146 -3 -146 -3 -164.5 18.5 c 128,-1,85
 -183 40 -183 40 -183 75 c 0,86,87
 -183 122 -183 122 -161 173 c 0,88,89
 -141 222 -141 222 -122 222 c 0,90,91
 -113 222 -113 222 -113 208 c 0,92,93
 -113 197 -113 197 -117 182 c 2,94,-1
 -121 164 l 2,95,96
 -125 149 -125 149 -125 132 c 0,97,98
 -125 93 -125 93 -95 93 c 0,99,100
 -68 93 -68 93 -48.5 114 c 128,-1,101
 -29 135 -29 135 -19 174 c 2,102,-1
 -17 187 l 2,103,104
 -11 210 -11 210 -0.5 224.5 c 128,-1,105
 10 239 10 239 20 239 c 256,106,107
 30 239 30 239 30 226 c 0,108,109
 30 223 30 223 29 218 c 2,110,-1
 27 200 l 2,111,112
 26 196 26 196 26 190 c 0,113,114
 26 145 26 145 86 145 c 0,115,116
 110 145 110 145 110 166 c 0,117,118
 110 172 110 172 109 180 c 0,119,120
 105 203 105 203 105 216 c 0,121,122
 105 244 105 244 117 263 c 128,-1,123
 129 282 129 282 155 297 c 2,124,-1
 167 305 l 1,125,-1
 170 306 l 1,70,71
EndSplineSet
Ligature2: "'ccmp' Glyph Composition/Decomposition in Arabic lookup 4 subtable" afii57457 afii57451
EndChar

StartChar: afii57373
Encoding: 65548 -1 200
Width: 420
Flags: W
LayerCount: 2
Fore
SplineSet
188 411 m 0,0,1
 178 407 178 407 167 399 c 128,-1,2
 156 391 156 391 146.5 382.5 c 128,-1,3
 137 374 137 374 129.5 364 c 128,-1,4
 122 354 122 354 119 345 c 1,5,6
 112 351 112 351 110.5 360.5 c 128,-1,7
 109 370 109 370 110.5 383 c 128,-1,8
 112 396 112 396 119.5 410 c 128,-1,9
 127 424 127 424 141 437 c 1,10,11
 115 449 115 449 103.5 464 c 128,-1,12
 92 479 92 479 92 500 c 256,13,14
 92 521 92 521 104 543.5 c 128,-1,15
 116 566 116 566 134.5 585 c 128,-1,16
 153 604 153 604 175.5 617 c 128,-1,17
 198 630 198 630 219 630 c 256,18,19
 240 630 240 630 254.5 619 c 128,-1,20
 269 608 269 608 269 591 c 0,21,22
 269 577 269 577 259 564.5 c 128,-1,23
 249 552 249 552 238 544 c 1,24,25
 230 558 230 558 218.5 563.5 c 128,-1,26
 207 569 207 569 196 569 c 0,27,28
 184 569 184 569 173.5 566 c 128,-1,29
 163 563 163 563 155 558 c 128,-1,30
 147 553 147 553 142.5 547.5 c 128,-1,31
 138 542 138 542 138 537 c 0,32,33
 138 531 138 531 143.5 523 c 128,-1,34
 149 515 149 515 158.5 507.5 c 128,-1,35
 168 500 168 500 182.5 495 c 128,-1,36
 197 490 197 490 215 490 c 0,37,38
 229 490 229 490 246.5 493.5 c 128,-1,39
 264 497 264 497 282.5 502.5 c 128,-1,40
 301 508 301 508 319 514.5 c 128,-1,41
 337 521 337 521 352 528 c 1,42,43
 345 506 345 506 338 491.5 c 128,-1,44
 331 477 331 477 321 467.5 c 128,-1,45
 311 458 311 458 296.5 452 c 128,-1,46
 282 446 282 446 261 441 c 0,47,48
 254 438 254 438 244 434.5 c 128,-1,49
 234 431 234 431 223.5 426.5 c 128,-1,50
 213 422 213 422 203.5 418 c 128,-1,51
 194 414 194 414 188 411 c 0,0,1
EndSplineSet
EndChar

StartChar: afii57374
Encoding: 65549 -1 201
Width: 624
GlyphClass: 2
Flags: W
LayerCount: 2
Fore
SplineSet
356 230 m 0,0,1
 365 229 365 229 389.5 236.5 c 128,-1,2
 414 244 414 244 429 251 c 0,3,4
 486 281 486 281 486 328 c 0,5,6
 486 368 486 368 455 401.5 c 128,-1,7
 424 435 424 435 387 435 c 0,8,9
 339 435 339 435 293 400 c 0,10,11
 272 385 272 385 258.5 365 c 128,-1,12
 245 345 245 345 245 330 c 0,13,14
 245 305 245 305 286 268 c 128,-1,15
 327 231 327 231 356 230 c 0,0,1
678 119 m 2,16,-1
 678 32 l 2,17,18
 678 0 678 0 618 0 c 0,19,20
 554 0 554 0 497 14 c 0,21,22
 455 25 455 25 427.5 35 c 128,-1,23
 400 45 400 45 344 73 c 0,24,25
 305 91 305 91 292 91 c 0,26,27
 280 91 280 91 224 65 c 2,28,-1
 185 47 l 2,29,30
 140 27 140 27 90.5 13.5 c 128,-1,31
 41 0 41 0 10 0 c 0,32,33
 -54 0 -54 0 -54 33 c 2,34,-1
 -54 120 l 2,35,36
 -54 121 -54 121 -54 123 c 2,37,-1
 -53 127 l 2,38,39
 -47 144 -47 144 -18 144 c 2,40,-1
 1 144 l 2,41,42
 25 144 25 144 68.5 149 c 128,-1,43
 112 154 112 154 132 158 c 0,44,45
 185 170 185 170 185 189 c 0,46,47
 185 193 185 193 184 199 c 2,48,-1
 179 221 l 2,49,50
 178 231 178 231 178 247 c 0,51,52
 178 298 178 298 206 357.5 c 128,-1,53
 234 417 234 417 288 481 c 0,54,55
 333 534 333 534 388.5 573 c 128,-1,56
 444 612 444 612 475 612 c 0,57,58
 508 612 508 612 532 552 c 0,59,60
 541 526 541 526 547.5 488.5 c 128,-1,61
 554 451 554 451 554 420 c 0,62,63
 554 380 554 380 544 338.5 c 128,-1,64
 534 297 534 297 518 270 c 2,65,-1
 492 228 l 2,66,67
 477 201 477 201 474 198 c 0,68,69
 466 186 466 186 466 179 c 0,70,71
 466 166 466 166 492 157 c 0,72,73
 508 153 508 153 557.5 148 c 128,-1,74
 607 143 607 143 641 143 c 0,75,76
 671 143 671 143 677 126 c 2,77,-1
 678 122 l 2,78,79
 678 121 678 121 678 119 c 2,16,-1
EndSplineSet
EndChar

StartChar: afii57375
Encoding: 1619 1619 202
Width: 603
GlyphClass: 2
Flags: W
LayerCount: 2
Fore
SplineSet
161 1036 m 0,0,1
 171 1036 171 1036 205 1027 c 0,2,3
 247 1016 247 1016 295 1016 c 0,4,5
 378 1016 378 1016 455 1044.5 c 128,-1,6
 532 1073 532 1073 564 1116 c 0,7,8
 570 1123 570 1123 574 1123 c 2,9,-1
 577 1122 l 2,10,11
 579 1121 579 1121 579 1117 c 0,12,13
 579 1098 579 1098 562.5 1067 c 128,-1,14
 546 1036 546 1036 524 1015 c 0,15,16
 481 972 481 972 399.5 944 c 128,-1,17
 318 916 318 916 239 916 c 0,18,19
 209 916 209 916 171 923 c 2,20,-1
 147 926 l 2,21,22
 138 928 138 928 132 928 c 0,23,24
 102 928 102 928 53 882 c 0,25,26
 48 877 48 877 45 877 c 0,27,28
 39 877 39 877 39 891 c 0,29,30
 39 920 39 920 67 968 c 0,31,32
 87 999 87 999 112 1017.5 c 128,-1,33
 137 1036 137 1036 161 1036 c 0,0,1
EndSplineSet
EndChar

StartChar: afii57471
Encoding: 65550 -1 203
Width: 1496
Flags: W
LayerCount: 2
Fore
SplineSet
1289 121 m 1,0,1
 1226 79 1226 79 1154.5 44 c 128,-1,2
 1083 9 1083 9 1027 -7 c 0,3,4
 867 -54 867 -54 640 -54 c 0,5,6
 401 -54 401 -54 255 16 c 0,7,8
 172 55 172 55 128.5 117.5 c 128,-1,9
 85 180 85 180 85 259 c 0,10,11
 85 357 85 357 135 454 c 0,12,13
 168 518 168 518 186 518 c 0,14,15
 192 518 192 518 192 510 c 0,16,17
 192 503 192 503 184 482 c 0,18,19
 159 414 159 414 159 371 c 0,20,21
 159 247 159 247 297 178 c 0,22,23
 370 141 370 141 479 120.5 c 128,-1,24
 588 100 588 100 707 100 c 0,25,26
 872 100 872 100 1029 130.5 c 128,-1,27
 1186 161 1186 161 1239 203 c 0,28,29
 1259 219 1259 219 1263 243 c 0,30,31
 1271 286 1271 286 1287 286 c 0,32,33
 1296 286 1296 286 1300 278.5 c 128,-1,34
 1304 271 1304 271 1312 239 c 0,35,36
 1321 199 1321 199 1339 181.5 c 128,-1,37
 1357 164 1357 164 1400 153 c 0,38,39
 1445 142 1445 142 1498 142 c 2,40,-1
 1512 142 l 2,41,42
 1543 142 1543 142 1549 125 c 2,43,-1
 1550 121 l 2,44,45
 1551 119 1551 119 1551 117 c 2,46,-1
 1551 31 l 2,47,48
 1551 17 1551 17 1538 8 c 128,-1,49
 1525 -1 1525 -1 1506 -1 c 0,50,51
 1422 -1 1422 -1 1380 13 c 0,52,53
 1340 26 1340 26 1321.5 48 c 128,-1,54
 1303 70 1303 70 1289 121 c 1,0,1
EndSplineSet
EndChar

StartChar: afii52258
Encoding: 65551 -1 204
Width: 1603
GlyphClass: 2
Flags: W
LayerCount: 2
Fore
SplineSet
1228 333 m 0,0,1
 1228 304 1228 304 1264 270 c 0,2,3
 1281 255 1281 255 1302.5 242.5 c 128,-1,4
 1324 230 1324 230 1335 230 c 0,5,6
 1344 230 1344 230 1366.5 236.5 c 128,-1,7
 1389 243 1389 243 1402 249 c 0,8,9
 1466 281 1466 281 1466 328 c 0,10,11
 1466 361 1466 361 1443 393 c 0,12,13
 1414 435 1414 435 1363 435 c 0,14,15
 1324 435 1324 435 1275 401 c 0,16,17
 1228 368 1228 368 1228 333 c 0,0,1
1657 119 m 2,18,-1
 1657 33 l 2,19,20
 1657 0 1657 0 1598 0 c 0,21,22
 1530 0 1530 0 1469 16 c 128,-1,23
 1408 32 1408 32 1335 69 c 0,24,25
 1284 94 1284 94 1269 94 c 256,26,27
 1254 94 1254 94 1185 65 c 0,28,29
 1103 32 1103 32 1042.5 16.5 c 128,-1,30
 982 1 982 1 883 -12 c 0,31,32
 764 -28 764 -28 649 -28 c 0,33,34
 85 -28 85 -28 85 266 c 0,35,36
 85 351 85 351 136 454 c 0,37,38
 168 519 168 519 187 519 c 0,39,40
 194 519 194 519 194 511 c 256,41,42
 194 503 194 503 190 490 c 2,43,-1
 179 462 l 2,44,45
 161 410 161 410 161 371 c 0,46,47
 161 259 161 259 310 194 c 128,-1,48
 459 129 459 129 711 129 c 0,49,50
 779 129 779 129 890.5 136 c 128,-1,51
 1002 143 1002 143 1044 149 c 2,52,-1
 1104 159 l 2,53,54
 1164 168 1164 168 1164 193 c 0,55,56
 1164 196 1164 196 1161 208 c 0,57,58
 1157 219 1157 219 1157 238 c 0,59,60
 1157 355 1157 355 1274 487 c 0,61,62
 1321 540 1321 540 1372 575 c 128,-1,63
 1423 610 1423 610 1453 610 c 0,64,65
 1488 610 1488 610 1511 553 c 0,66,67
 1535 490 1535 490 1535 416 c 0,68,69
 1535 365 1535 365 1519 318.5 c 128,-1,70
 1503 272 1503 272 1467 219 c 0,71,72
 1445 185 1445 185 1445 181 c 0,73,74
 1445 164 1445 164 1483 156 c 0,75,76
 1523 148 1523 148 1569 145 c 2,77,-1
 1603 144 l 1,78,-1
 1620 144 l 2,79,80
 1650 144 1650 144 1656 127 c 2,81,-1
 1657 123 l 2,82,83
 1657 121 1657 121 1657 119 c 2,18,-1
EndSplineSet
EndChar

StartChar: afii62889
Encoding: 65552 -1 210
Width: 1019
Flags: W
LayerCount: 2
Fore
SplineSet
845 134 m 1,0,1
 832 236 832 236 756 236 c 0,2,3
 732 236 732 236 715 223.5 c 128,-1,4
 698 211 698 211 698 192 c 0,5,6
 698 166 698 166 745 147 c 0,7,8
 777 134 777 134 845 134 c 1,0,1
856 0 m 1,9,10
 826 0 826 0 783 4 c 128,-1,11
 740 8 740 8 722 13 c 0,12,13
 629 37 629 37 629 118 c 0,14,15
 629 198 629 198 703 295 c 0,16,17
 755 364 755 364 797 364 c 0,18,19
 841 364 841 364 872.5 312 c 128,-1,20
 904 260 904 260 932 144 c 1,21,-1
 1018 144 l 1,22,-1
 1038 143 l 2,23,24
 1066 143 1066 143 1073 126 c 2,25,-1
 1074 122 l 2,26,27
 1075 121 1075 121 1075 119 c 2,28,-1
 1075 32 l 2,29,30
 1075 20 1075 20 1064 11 c 0,31,32
 1054 4 1054 4 1041 2 c 128,-1,33
 1028 0 1028 0 986 0 c 2,34,-1
 919 0 l 1,35,36
 900 -98 900 -98 860 -167 c 128,-1,37
 820 -236 820 -236 747 -293 c 0,38,39
 674 -351 674 -351 575.5 -386 c 128,-1,40
 477 -421 477 -421 387 -421 c 0,41,42
 211 -421 211 -421 127 -294 c 0,43,44
 75 -217 75 -217 75 -115 c 0,45,46
 75 1 75 1 132 105 c 0,47,48
 153 144 153 144 175 172 c 128,-1,49
 197 200 197 200 207 200 c 0,50,51
 215 200 215 200 215 191 c 0,52,53
 215 186 215 186 212 178 c 0,54,55
 209 175 209 175 201 159 c 0,56,57
 197 150 197 150 189 134 c 0,58,59
 133 33 133 33 133 -56 c 0,60,61
 133 -103 133 -103 150.5 -139 c 128,-1,62
 168 -175 168 -175 207 -207 c 0,63,64
 248 -240 248 -240 303.5 -260 c 128,-1,65
 359 -280 359 -280 413 -280 c 0,66,67
 465 -280 465 -280 538 -262 c 128,-1,68
 611 -244 611 -244 684 -213 c 0,69,70
 766 -178 766 -178 813 -138 c 1,71,72
 829 -116 829 -116 838 -87 c 128,-1,73
 847 -58 847 -58 856 0 c 1,9,10
EndSplineSet
EndChar

StartChar: afii62887
Encoding: 65553 -1 211
Width: 1440
Flags: W
LayerCount: 2
Fore
SplineSet
1262 445 m 1,0,-1
 1328 595 l 1,1,2
 1336 585 1336 585 1350.5 557 c 128,-1,3
 1365 529 1365 529 1374 508 c 0,4,5
 1400 441 1400 441 1400 385 c 0,6,7
 1400 320 1400 320 1363 229 c 0,8,9
 1347 190 1347 190 1332 168 c 128,-1,10
 1317 146 1317 146 1295 132 c 0,11,12
 1242 98 1242 98 1140.5 64 c 128,-1,13
 1039 30 1039 30 929 9 c 0,14,15
 845 -7 845 -7 743 -17.5 c 128,-1,16
 641 -28 641 -28 562 -28 c 0,17,18
 325 -28 325 -28 215 29 c 0,19,20
 148 64 148 64 116.5 113.5 c 128,-1,21
 85 163 85 163 85 234 c 0,22,23
 85 339 85 339 144 431 c 0,24,25
 173 477 173 477 191 477 c 0,26,27
 204 477 204 477 204 466 c 0,28,29
 204 460 204 460 194 445 c 0,30,31
 159 392 159 392 159 349 c 0,32,33
 159 313 159 313 180.5 277 c 128,-1,34
 202 241 202 241 241 213 c 0,35,36
 361 129 361 129 588 129 c 0,37,38
 876 129 876 129 1167 220 c 0,39,40
 1334 271 1334 271 1334 298 c 0,41,42
 1334 317 1334 317 1314 357.5 c 128,-1,43
 1294 398 1294 398 1262 445 c 1,0,-1
EndSplineSet
EndChar

StartChar: afii62888
Encoding: 1697 1697 212
Width: 1406
GlyphClass: 2
Flags: W
LayerCount: 2
Fore
SplineSet
1284 362 m 1,0,1
 1271 349 1271 349 1255 327 c 0,2,3
 1241 306 1241 306 1232 298.5 c 128,-1,4
 1223 291 1223 291 1205 283 c 0,5,6
 1173 270 1173 270 1132 270 c 0,7,8
 1077 270 1077 270 1055 294 c 128,-1,9
 1033 318 1033 318 1033 378 c 0,10,11
 1033 465 1033 465 1082 569 c 0,12,13
 1132 674 1132 674 1182 674 c 0,14,15
 1212 674 1212 674 1247 643 c 128,-1,16
 1282 612 1282 612 1311 562 c 0,17,18
 1374 454 1374 454 1374 317 c 0,19,20
 1374 277 1374 277 1366.5 234 c 128,-1,21
 1359 191 1359 191 1348 166 c 0,22,23
 1328 120 1328 120 1279.5 86 c 128,-1,24
 1231 52 1231 52 1148 25 c 0,25,26
 1067 -1 1067 -1 936 -12 c 0,27,28
 760 -27 760 -27 643 -27 c 2,29,-1
 596 -27 l 2,30,31
 476 -27 476 -27 398.5 -18 c 128,-1,32
 321 -9 321 -9 263 11 c 0,33,34
 172 43 172 43 128.5 97.5 c 128,-1,35
 85 152 85 152 85 234 c 0,36,37
 85 329 85 329 134 416 c 0,38,39
 170 477 170 477 193 477 c 0,40,41
 204 477 204 477 204 467 c 0,42,43
 204 462 204 462 199 454 c 2,44,-1
 186 435 l 2,45,46
 159 393 159 393 159 352 c 0,47,48
 159 303 159 303 194 259 c 128,-1,49
 229 215 229 215 293 184 c 0,50,51
 359 153 359 153 438.5 140.5 c 128,-1,52
 518 128 518 128 657 128 c 0,53,54
 765 128 765 128 909 138.5 c 128,-1,55
 1053 149 1053 149 1117 162 c 0,56,57
 1185 175 1185 175 1237.5 195.5 c 128,-1,58
 1290 216 1290 216 1309 237 c 0,59,60
 1321 251 1321 251 1321 281 c 0,61,62
 1321 334 1321 334 1284 362 c 1,0,1
1102 420 m 1,63,64
 1131 396 1131 396 1159 396 c 0,65,66
 1182 396 1182 396 1200.5 413.5 c 128,-1,67
 1219 431 1219 431 1219 452 c 0,68,69
 1219 474 1219 474 1193 503 c 0,70,71
 1183 514 1183 514 1171 522.5 c 128,-1,72
 1159 531 1159 531 1153 531 c 0,73,74
 1141 531 1141 531 1125.5 498 c 128,-1,75
 1110 465 1110 465 1102 420 c 1,63,64
EndSplineSet
Substitution2: "'fina' Terminal Forms in Arabic lookup 3 subtable" afii52258
Substitution2: "'medi' Medial Forms in Arabic lookup 2 subtable" afii57374
Substitution2: "'init' Initial Forms in Arabic lookup 1 subtable" afii57459
EndChar

StartChar: afii57567
Encoding: 1705 1705 219
Width: 1451
GlyphClass: 2
Flags: W
AnchorPoint: "Anchor-3" 570 -510 basechar 0
AnchorPoint: "Anchor-2" 450 945 basechar 0
LayerCount: 2
Fore
SplineSet
1366 976 m 1,0,1
 1291 953 1291 953 1217.5 927.5 c 128,-1,2
 1144 902 1144 902 1078.5 875.5 c 128,-1,3
 1013 849 1013 849 957.5 824 c 128,-1,4
 902 799 902 799 861.5 776.5 c 128,-1,5
 821 754 821 754 798 737.5 c 128,-1,6
 775 721 775 721 775 712 c 0,7,8
 775 689 775 689 789 675 c 128,-1,9
 803 661 803 661 846 646 c 0,10,11
 895 628 895 628 953 593.5 c 128,-1,12
 1011 559 1011 559 1061.5 508.5 c 128,-1,13
 1112 458 1112 458 1145.5 392.5 c 128,-1,14
 1179 327 1179 327 1179 247 c 0,15,16
 1179 213 1179 213 1168.5 182.5 c 128,-1,17
 1158 152 1158 152 1139 125.5 c 128,-1,18
 1120 99 1120 99 1092.5 78.5 c 128,-1,19
 1065 58 1065 58 1032 45 c 0,20,21
 930 6 930 6 811.5 -10.5 c 128,-1,22
 693 -27 693 -27 563 -27 c 0,23,24
 520 -27 520 -27 467.5 -21.5 c 128,-1,25
 415 -16 415 -16 362 -3 c 128,-1,26
 309 10 309 10 259 31.5 c 128,-1,27
 209 53 209 53 170.5 85.5 c 128,-1,28
 132 118 132 118 108.5 162 c 128,-1,29
 85 206 85 206 85 264 c 0,30,31
 85 311 85 311 97.5 357.5 c 128,-1,32
 110 404 110 404 127 440.5 c 128,-1,33
 144 477 144 477 161 499.5 c 128,-1,34
 178 522 178 522 185 522 c 0,35,36
 196 522 196 522 193.5 510.5 c 128,-1,37
 191 499 191 499 183.5 478.5 c 128,-1,38
 176 458 176 458 168 430.5 c 128,-1,39
 160 403 160 403 160 371 c 0,40,41
 160 298 160 298 200.5 251.5 c 128,-1,42
 241 205 241 205 306 178 c 128,-1,43
 371 151 371 151 451.5 140.5 c 128,-1,44
 532 130 532 130 613 130 c 0,45,46
 666 130 666 130 725.5 133.5 c 128,-1,47
 785 137 785 137 842 144 c 128,-1,48
 899 151 899 151 951 160.5 c 128,-1,49
 1003 170 1003 170 1042.5 183.5 c 128,-1,50
 1082 197 1082 197 1105.5 212.5 c 128,-1,51
 1129 228 1129 228 1129 247 c 0,52,53
 1129 259 1129 259 1106 292 c 128,-1,54
 1083 325 1083 325 1041.5 365.5 c 128,-1,55
 1000 406 1000 406 942.5 447.5 c 128,-1,56
 885 489 885 489 816 520 c 0,57,58
 782 535 782 535 763 550.5 c 128,-1,59
 744 566 744 566 735.5 585 c 128,-1,60
 727 604 727 604 725 628.5 c 128,-1,61
 723 653 723 653 723 685 c 0,62,63
 723 719 723 719 726.5 741 c 128,-1,64
 730 763 730 763 741.5 779.5 c 128,-1,65
 753 796 753 796 773.5 811.5 c 128,-1,66
 794 827 794 827 827 848 c 0,67,68
 870 876 870 876 931 909 c 128,-1,69
 992 942 992 942 1069.5 978 c 128,-1,70
 1147 1014 1147 1014 1241.5 1051.5 c 128,-1,71
 1336 1089 1336 1089 1447 1125 c 1,72,-1
 1366 976 l 1,0,1
EndSplineSet
Substitution2: "'fina' Terminal Forms in Arabic lookup 3 subtable" afii62964
Substitution2: "'medi' Medial Forms in Arabic lookup 2 subtable" afii52306
Substitution2: "'init' Initial Forms in Arabic lookup 1 subtable" afii52305
EndChar

StartChar: afii62964
Encoding: 64399 64399 220
Width: 1607
GlyphClass: 2
Flags: W
AnchorPoint: "Anchor-3" 645 -450 basechar 0
AnchorPoint: "Anchor-2" 555 1110 basechar 0
LayerCount: 2
Fore
SplineSet
1662 38 m 2,0,1
 1662 17 1662 17 1644 8.5 c 128,-1,2
 1626 0 1626 0 1607 0 c 0,3,4
 1583 0 1583 0 1556.5 9.5 c 128,-1,5
 1530 19 1530 19 1502 36 c 128,-1,6
 1474 53 1474 53 1445.5 76 c 128,-1,7
 1417 99 1417 99 1388.5 126 c 128,-1,8
 1360 153 1360 153 1332.5 182.5 c 128,-1,9
 1305 212 1305 212 1278.5 239.5 c 128,-1,10
 1252 267 1252 267 1227 292 c 128,-1,11
 1202 317 1202 317 1178 336 c 1,12,13
 1167 245 1167 245 1150.5 190 c 128,-1,14
 1134 135 1134 135 1106.5 102 c 128,-1,15
 1079 69 1079 69 1037.5 50.5 c 128,-1,16
 996 32 996 32 937 15 c 0,17,18
 898 5 898 5 849 -3 c 128,-1,19
 800 -11 800 -11 749.5 -16 c 128,-1,20
 699 -21 699 -21 650.5 -24 c 128,-1,21
 602 -27 602 -27 563 -27 c 0,22,23
 520 -27 520 -27 467.5 -21.5 c 128,-1,24
 415 -16 415 -16 362 -3 c 128,-1,25
 309 10 309 10 259 31.5 c 128,-1,26
 209 53 209 53 170.5 85.5 c 128,-1,27
 132 118 132 118 108.5 162 c 128,-1,28
 85 206 85 206 85 264 c 0,29,30
 85 311 85 311 97.5 357.5 c 128,-1,31
 110 404 110 404 127 440.5 c 128,-1,32
 144 477 144 477 161 499.5 c 128,-1,33
 178 522 178 522 185 522 c 0,34,35
 196 522 196 522 193.5 510.5 c 128,-1,36
 191 499 191 499 183.5 478.5 c 128,-1,37
 176 458 176 458 168 430.5 c 128,-1,38
 160 403 160 403 160 371 c 0,39,40
 160 323 160 323 178.5 286 c 128,-1,41
 197 249 197 249 229 222.5 c 128,-1,42
 261 196 261 196 304 178 c 128,-1,43
 347 160 347 160 396 149.5 c 128,-1,44
 445 139 445 139 497.5 134.5 c 128,-1,45
 550 130 550 130 601 130 c 0,46,47
 725 130 725 130 820.5 142.5 c 128,-1,48
 916 155 916 155 980.5 176 c 128,-1,49
 1045 197 1045 197 1078 224.5 c 128,-1,50
 1111 252 1111 252 1111 282 c 0,51,52
 1111 311 1111 311 1103.5 333 c 128,-1,53
 1096 355 1096 355 1073 376 c 128,-1,54
 1050 397 1050 397 1007 419.5 c 128,-1,55
 964 442 964 442 895 471 c 0,56,57
 851 490 851 490 822.5 517.5 c 128,-1,58
 794 545 794 545 777.5 575 c 128,-1,59
 761 605 761 605 754.5 637 c 128,-1,60
 748 669 748 669 748 697 c 0,61,62
 748 745 748 745 790.5 794.5 c 128,-1,63
 833 844 833 844 902.5 891.5 c 128,-1,64
 972 939 972 939 1061 985 c 128,-1,65
 1150 1031 1150 1031 1244.5 1073 c 128,-1,66
 1339 1115 1339 1115 1430.5 1152 c 128,-1,67
 1522 1189 1522 1189 1596 1219 c 1,68,-1
 1507 1040 l 1,69,70
 1473 1031 1473 1031 1424 1015 c 128,-1,71
 1375 999 1375 999 1319 977 c 128,-1,72
 1263 955 1263 955 1203 929 c 128,-1,73
 1143 903 1143 903 1085 875 c 128,-1,74
 1027 847 1027 847 975 819.5 c 128,-1,75
 923 792 923 792 884 767 c 128,-1,76
 845 742 845 742 822 721 c 128,-1,77
 799 700 799 700 799 685 c 0,78,79
 799 677 799 677 809 668.5 c 128,-1,80
 819 660 819 660 836 650.5 c 128,-1,81
 853 641 853 641 875 631.5 c 128,-1,82
 897 622 897 622 921 613 c 0,83,84
 1003 579 1003 579 1077.5 534.5 c 128,-1,85
 1152 490 1152 490 1224.5 436.5 c 128,-1,86
 1297 383 1297 383 1370 318.5 c 128,-1,87
 1443 254 1443 254 1523 179 c 0,88,89
 1536 165 1536 165 1562 155 c 128,-1,90
 1588 145 1588 145 1622 145 c 0,91,92
 1640 145 1640 145 1651 137 c 128,-1,93
 1662 129 1662 129 1662 108 c 2,94,-1
 1662 38 l 2,0,1
EndSplineSet
EndChar

StartChar: afii52305
Encoding: 64400 64400 221
Width: 727
GlyphClass: 2
Flags: W
AnchorPoint: "Anchor-3" 345 -540 basechar 0
AnchorPoint: "Anchor-2" 300 1125 basechar 0
LayerCount: 2
Fore
SplineSet
-54 108 m 2,0,1
 -54 129 -54 129 -43.5 137 c 128,-1,2
 -33 145 -33 145 -15 145 c 2,3,-1
 175 145 l 2,4,5
 268 145 268 145 328.5 158.5 c 128,-1,6
 389 172 389 172 425 189.5 c 128,-1,7
 461 207 461 207 475 223.5 c 128,-1,8
 489 240 489 240 489 247 c 0,9,10
 489 259 489 259 466 292 c 128,-1,11
 443 325 443 325 402.5 365.5 c 128,-1,12
 362 406 362 406 304.5 447.5 c 128,-1,13
 247 489 247 489 178 520 c 0,14,15
 144 535 144 535 125 550.5 c 128,-1,16
 106 566 106 566 97 585 c 128,-1,17
 88 604 88 604 86.5 628.5 c 128,-1,18
 85 653 85 653 85 685 c 0,19,20
 85 719 85 719 88.5 741 c 128,-1,21
 92 763 92 763 103.5 779.5 c 128,-1,22
 115 796 115 796 135 811.5 c 128,-1,23
 155 827 155 827 189 848 c 0,24,25
 232 876 232 876 292.5 909 c 128,-1,26
 353 942 353 942 431 978 c 128,-1,27
 509 1014 509 1014 603 1051.5 c 128,-1,28
 697 1089 697 1089 809 1125 c 1,29,-1
 728 976 l 1,30,31
 652 953 652 953 579 927.5 c 128,-1,32
 506 902 506 902 440 875.5 c 128,-1,33
 374 849 374 849 318 824 c 128,-1,34
 262 799 262 799 221.5 776.5 c 128,-1,35
 181 754 181 754 158 737.5 c 128,-1,36
 135 721 135 721 135 712 c 0,37,38
 135 689 135 689 150 675 c 128,-1,39
 165 661 165 661 207 646 c 0,40,41
 239 634 239 634 277 614.5 c 128,-1,42
 315 595 315 595 352 568.5 c 128,-1,43
 389 542 389 542 423 508.5 c 128,-1,44
 457 475 457 475 483.5 434.5 c 128,-1,45
 510 394 510 394 525.5 347 c 128,-1,46
 541 300 541 300 541 247 c 0,47,48
 541 169 541 169 509 121.5 c 128,-1,49
 477 74 477 74 424.5 46.5 c 128,-1,50
 372 19 372 19 306 9.5 c 128,-1,51
 240 0 240 0 173 0 c 2,52,-1
 0 0 l 2,53,54
 -18 0 -18 0 -36 8.5 c 128,-1,55
 -54 17 -54 17 -54 38 c 2,56,-1
 -54 108 l 2,0,1
EndSplineSet
EndChar

StartChar: afii52306
Encoding: 64401 64401 222
Width: 938
GlyphClass: 2
Flags: W
AnchorPoint: "Anchor-3" 435 -525 basechar 0
AnchorPoint: "Anchor-2" 300 1155 basechar 0
LayerCount: 2
Fore
SplineSet
511 332 m 1,0,1
 502 261 502 261 493.5 224.5 c 128,-1,2
 485 188 485 188 468 151 c 0,3,4
 446 100 446 100 408.5 70 c 128,-1,5
 371 40 371 40 309 24 c 0,6,7
 276 15 276 15 222.5 8.5 c 128,-1,8
 169 2 169 2 129 2 c 2,9,-1
 61 1 l 1,10,-1
 0 1 l 2,11,12
 -26 1 -26 1 -40 9 c 128,-1,13
 -54 17 -54 17 -54 33 c 2,14,-1
 -54 123 l 1,15,-1
 -53 127 l 2,16,17
 -47 144 -47 144 -18 144 c 2,18,-1
 1 144 l 1,19,-1
 88 147 l 2,20,21
 148 147 148 147 220 156 c 128,-1,22
 292 165 292 165 333 177 c 0,23,24
 444 211 444 211 444 287 c 0,25,26
 444 334 444 334 414.5 365.5 c 128,-1,27
 385 397 385 397 305 433 c 2,28,-1
 233 466 l 2,29,30
 146 507 146 507 113 570 c 0,31,32
 84 627 84 627 84 682 c 0,33,34
 84 739 84 739 126 790.5 c 128,-1,35
 168 842 168 842 266 903 c 0,36,37
 415 998 415 998 652 1096 c 2,38,-1
 740 1133 l 2,39,40
 800 1157 800 1157 833 1170 c 0,41,42
 894 1194 894 1194 930 1210 c 1,43,-1
 839 1030 l 1,44,-1
 822 1026 l 2,45,46
 682 990 682 990 419 868 c 0,47,48
 293 811 293 811 214 758.5 c 128,-1,49
 135 706 135 706 135 680 c 0,50,51
 135 660 135 660 200 632 c 2,52,-1
 264 604 l 2,53,54
 383 553 383 553 467 497 c 0,55,56
 578 425 578 425 709 307 c 2,57,-1
 773 250 l 2,58,59
 813 213 813 213 822 205 c 0,60,61
 868 164 868 164 890.5 153.5 c 128,-1,62
 913 143 913 143 957 143 c 0,63,64
 985 143 985 143 992 126 c 2,65,-1
 993 122 l 1,66,-1
 993 32 l 2,67,68
 993 0 993 0 933 0 c 0,69,70
 902 0 902 0 876 11 c 0,71,72
 823 35 823 35 772.5 77 c 128,-1,73
 722 119 722 119 638 207 c 0,74,75
 567 282 567 282 523 321 c 2,76,-1
 511 332 l 1,0,1
EndSplineSet
EndChar

